<?xml version="1.0" encoding="UTF-8"?>
<svg xmlns="http://www.w3.org/2000/svg" xmlns:xlink="http://www.w3.org/1999/xlink" fill-opacity="1" color-rendering="auto" color-interpolation="auto" stroke="black" text-rendering="auto" stroke-linecap="square" width="786" stroke-miterlimit="10" stroke-opacity="1" shape-rendering="auto" fill="black" stroke-dasharray="none" font-weight="normal" stroke-width="1" height="448" font-family="'Dialog'" font-style="normal" stroke-linejoin="miter" font-size="12" stroke-dashoffset="0" image-rendering="auto">
  <!--Generated by ySVG-->
  <defs id="genericDefs"/>
  <g>
    <defs id="defs1">
      <clipPath clipPathUnits="userSpaceOnUse" id="clipPath1">
        <path d="M0 0 L786 0 L786 448 L0 448 L0 0 Z"/>
      </clipPath>
      <clipPath clipPathUnits="userSpaceOnUse" id="clipPath2">
        <path d="M111 124 L897 124 L897 572 L111 572 L111 124 Z"/>
      </clipPath>
    </defs>
    <g fill="white" transform="translate(-111,-124)" stroke="white">
      <rect x="111" y="124" clip-path="url(#clipPath2)" width="786" height="448" stroke="none"/>
    </g>
    <g fill="white" stroke="white">
      <rect x="9.125" y="424.75" clip-path="url(#clipPath1)" width="104.9043" height="15.5625" stroke="none"/>
      <path fill="silver" d="M11.125 436 L11.125 427.3281 L13.4844 427.3281 Q15.0469 427.3281 15.7344 427.8594 Q16.4219 428.3906 16.4219 429.5938 Q16.4219 430.9844 15.4844 431.7656 Q14.5469 432.5469 12.8906 432.5469 L12.3438 432.5469 L12.3438 436 L11.125 436 ZM12.3438 431.625 L12.8438 431.625 Q13.9375 431.625 14.5312 431.1172 Q15.125 430.6094 15.125 429.6875 Q15.125 428.9219 14.6562 428.5859 Q14.1875 428.25 13.0938 428.25 L12.3438 428.25 L12.3438 431.625 ZM20.2734 436.1406 Q18.9141 436.1406 18.1016 435.2344 Q17.2891 434.3281 17.2891 432.8125 Q17.2891 431.2812 18.1016 430.3906 Q18.9141 429.5 20.3203 429.5 Q21.7266 429.5 22.5391 430.3906 Q23.3516 431.2812 23.3516 432.8125 Q23.3516 434.3594 22.5312 435.25 Q21.7109 436.1406 20.2734 436.1406 ZM20.2891 435.2812 Q22.1328 435.2812 22.1328 432.8125 Q22.1328 430.3594 20.3203 430.3594 Q18.5078 430.3594 18.5078 432.8125 Q18.5078 435.2812 20.2891 435.2812 ZM25.8945 436 L24.082 429.6406 L25.207 429.6406 L26.5977 434.5625 L28.1133 429.6406 L29.2539 429.6406 L30.582 434.5625 L32.1758 429.6406 L33.1758 429.6406 L31.0977 436 L29.9414 436 L28.582 431.0781 L27.0664 436 L25.8945 436 ZM39.0625 435.7969 Q37.9062 436.1406 37.0781 436.1406 Q35.6719 436.1406 34.7891 435.2109 Q33.9062 434.2812 33.9062 432.7812 Q33.9062 431.3438 34.6875 430.4141 Q35.4688 429.4844 36.6875 429.4844 Q37.8438 429.4844 38.4688 430.3047 Q39.0938 431.125 39.0938 432.6406 L39.0938 433 L35.0781 433 Q35.3281 435.2656 37.2969 435.2656 Q38.0156 435.2656 39.0625 434.875 L39.0625 435.7969 ZM35.125 432.125 L37.9375 432.125 Q37.9375 430.3594 36.6094 430.3594 Q35.2812 430.3594 35.125 432.125 ZM41.0918 436 L41.0918 429.6406 L42.248 429.6406 L42.248 430.8281 Q42.9355 429.5 44.2324 429.5 Q44.4199 429.5 44.6074 429.5312 L44.6074 430.6094 Q44.3105 430.5 44.0762 430.5 Q42.9824 430.5 42.248 431.7969 L42.248 436 L41.0918 436 ZM50.6582 435.7969 Q49.502 436.1406 48.6738 436.1406 Q47.2676 436.1406 46.3848 435.2109 Q45.502 434.2812 45.502 432.7812 Q45.502 431.3438 46.2832 430.4141 Q47.0645 429.4844 48.2832 429.4844 Q49.4395 429.4844 50.0645 430.3047 Q50.6895 431.125 50.6895 432.6406 L50.6895 433 L46.6738 433 Q46.9238 435.2656 48.8926 435.2656 Q49.6113 435.2656 50.6582 434.875 L50.6582 435.7969 ZM46.7207 432.125 L49.5332 432.125 Q49.5332 430.3594 48.2051 430.3594 Q46.877 430.3594 46.7207 432.125 ZM56.7656 436 L56.7656 434.7969 Q56.0625 436.1406 54.6562 436.1406 Q53.5 436.1406 52.8438 435.3047 Q52.1875 434.4688 52.1875 433.0156 Q52.1875 431.4219 52.9297 430.4609 Q53.6719 429.5 54.8906 429.5 Q56.0312 429.5 56.7656 430.3594 L56.7656 426.75 L57.9375 426.75 L57.9375 436 L56.7656 436 ZM56.7656 431.1562 Q55.875 430.3594 55.0781 430.3594 Q53.4062 430.3594 53.4062 432.9062 Q53.4062 435.125 54.8906 435.125 Q55.8438 435.125 56.7656 434.0781 L56.7656 431.1562 ZM64.0371 436.0781 L64.0371 426.75 L65.1934 426.75 L65.1934 430.8281 Q65.8965 429.5 67.3184 429.5 Q68.459 429.5 69.123 430.3359 Q69.7871 431.1719 69.7871 432.625 Q69.7871 434.2031 69.0371 435.1719 Q68.2871 436.1406 67.0684 436.1406 Q65.9434 436.1406 65.1934 435.2812 L65.0527 436.0781 L64.0371 436.0781 ZM65.1934 434.4844 Q66.084 435.2812 66.8965 435.2812 Q68.5527 435.2812 68.5527 432.7344 Q68.5527 430.5 67.084 430.5 Q66.1152 430.5 65.1934 431.5469 L65.1934 434.4844 ZM71.9648 438.3125 L72.9961 436 L70.5273 429.6406 L71.7773 429.6406 L73.6055 434.4219 L75.543 429.6406 L76.6367 429.6406 L73.1523 438.3125 L71.9648 438.3125 ZM82.0312 438.3125 L83.0625 436 L80.5938 429.6406 L81.8438 429.6406 L83.6719 434.4219 L85.6094 429.6406 L86.7031 429.6406 L83.2188 438.3125 L82.0312 438.3125 ZM87.8945 436 L87.8945 427.3281 L92.7383 427.3281 L92.7383 428.25 L89.1133 428.25 L89.1133 431.1562 L92.1602 431.1562 L92.1602 432.0625 L89.1133 432.0625 L89.1133 436 L87.8945 436 ZM94.3594 436 L94.3594 429.6406 L95.5156 429.6406 L95.5156 436 L94.3594 436 ZM94.3594 428.4844 L94.3594 427.3281 L95.5156 427.3281 L95.5156 428.4844 L94.3594 428.4844 ZM97.8281 436 L97.8281 426.75 L98.9844 426.75 L98.9844 436 L97.8281 436 ZM105.9531 435.7969 Q104.7969 436.1406 103.9688 436.1406 Q102.5625 436.1406 101.6797 435.2109 Q100.7969 434.2812 100.7969 432.7812 Q100.7969 431.3438 101.5781 430.4141 Q102.3594 429.4844 103.5781 429.4844 Q104.7344 429.4844 105.3594 430.3047 Q105.9844 431.125 105.9844 432.6406 L105.9844 433 L101.9688 433 Q102.2188 435.2656 104.1875 435.2656 Q104.9062 435.2656 105.9531 434.875 L105.9531 435.7969 ZM102.0156 432.125 L104.8281 432.125 Q104.8281 430.3594 103.5 430.3594 Q102.1719 430.3594 102.0156 432.125 ZM109.6699 436.1406 Q108.873 436.1406 107.748 435.7812 L107.748 434.7188 Q108.873 435.2812 109.7168 435.2812 Q110.2168 435.2812 110.5449 435.0078 Q110.873 434.7344 110.873 434.3281 Q110.873 433.75 109.9512 433.3594 L109.2793 433.0625 Q107.7793 432.4531 107.7793 431.2812 Q107.7793 430.4531 108.373 429.9766 Q108.9668 429.5 109.9824 429.5 Q110.5137 429.5 111.3105 429.6406 L111.5449 429.6875 L111.5449 430.6562 Q110.5762 430.3594 110.0137 430.3594 Q108.8887 430.3594 108.8887 431.1719 Q108.8887 431.6875 109.7324 432.0469 L110.2949 432.2812 Q111.2324 432.6875 111.6309 433.125 Q112.0293 433.5625 112.0293 434.2344 Q112.0293 435.0625 111.3652 435.6016 Q110.7012 436.1406 109.6699 436.1406 Z" clip-path="url(#clipPath1)" stroke="none"/>
    </g>
    <g fill="rgb(204,255,255)" transform="matrix(1,0,0,1,-111,-124)" stroke="rgb(204,255,255)">
      <path d="M126.5 185.8629 L193.8654 139 L289.1346 139 L356.5 185.8629 L356.5 252.1371 L289.1346 299 L193.8654 299 L126.5 252.1371 Z" clip-path="url(#clipPath2)" fill-rule="evenodd" stroke="none"/>
    </g>
    <g font-size="20" font-family="sans-serif" transform="matrix(1,0,0,1,-111,-124)">
      <text xml:space="preserve" x="238.5" y="164.0039" clip-path="url(#clipPath2)" stroke="none"> </text>
      <text xml:space="preserve" x="152" y="187.2754" clip-path="url(#clipPath2)" stroke="none">Sistema de Reparo</text>
    </g>
    <g stroke-miterlimit="1.45" transform="matrix(1,0,0,1,-111,-124)" stroke-linecap="butt">
      <path fill="none" d="M126.5 185.8629 L193.8654 139 L289.1346 139 L356.5 185.8629 L356.5 252.1371 L289.1346 299 L193.8654 299 L126.5 252.1371 Z" clip-path="url(#clipPath2)" fill-rule="evenodd"/>
    </g>
    <g fill="rgb(204,255,204)" transform="matrix(1,0,0,1,-111,-124)" stroke="rgb(204,255,204)">
      <ellipse clip-path="url(#clipPath2)" rx="38.5" cx="186.9375" ry="25" cy="228.8125" stroke="none"/>
      <text x="169.4375" y="233.2363" clip-path="url(#clipPath2)" fill="black" font-family="monospace" stroke="none" xml:space="preserve">VHPOP</text>
    </g>
    <g stroke-miterlimit="1.45" transform="matrix(1,0,0,1,-111,-124)" stroke-linecap="butt">
      <ellipse clip-path="url(#clipPath2)" fill="none" rx="38.5" cx="186.9375" ry="25" cy="228.8125"/>
    </g>
    <g fill="rgb(204,153,255)" transform="matrix(1,0,0,1,-111,-124)" stroke="rgb(204,153,255)">
      <rect x="465.5" y="268.5" clip-path="url(#clipPath2)" width="67" rx="4" ry="4" height="34" stroke="none"/>
      <text x="474.5" y="289.9238" clip-path="url(#clipPath2)" fill="black" font-family="monospace" stroke="none" xml:space="preserve">Domínio</text>
    </g>
    <g stroke-miterlimit="1.45" transform="matrix(1,0,0,1,-111,-124)" stroke-linecap="butt">
      <rect x="465.5" y="268.5" clip-path="url(#clipPath2)" fill="none" width="67" rx="4" ry="4" height="34"/>
    </g>
    <g fill="rgb(204,153,255)" transform="matrix(1,0,0,1,-111,-124)" stroke="rgb(204,153,255)">
      <rect x="398" y="335" clip-path="url(#clipPath2)" width="67" rx="4" ry="4" height="34" stroke="none"/>
      <text x="403.5" y="356.4238" clip-path="url(#clipPath2)" fill="black" font-family="monospace" stroke="none" xml:space="preserve">Problema</text>
    </g>
    <g stroke-miterlimit="1.45" transform="matrix(1,0,0,1,-111,-124)" stroke-linecap="butt">
      <rect x="398" y="335" clip-path="url(#clipPath2)" fill="none" width="67" rx="4" ry="4" height="34"/>
    </g>
    <g fill="rgb(204,255,204)" transform="matrix(1,0,0,1,-111,-124)" stroke="rgb(204,255,204)">
      <ellipse clip-path="url(#clipPath2)" rx="38.5" cx="293.5" ry="25" cy="228.5" stroke="none"/>
      <text x="258.5" y="232.9238" clip-path="url(#clipPath2)" fill="black" font-family="monospace" stroke="none" xml:space="preserve">Heuríticas</text>
    </g>
    <g stroke-miterlimit="1.45" transform="matrix(1,0,0,1,-111,-124)" stroke-linecap="butt">
      <ellipse clip-path="url(#clipPath2)" fill="none" rx="38.5" cx="293.5" ry="25" cy="228.5"/>
    </g>
    <g fill="rgb(153,204,255)" transform="matrix(1,0,0,1,-111,-124)" stroke="rgb(153,204,255)">
      <rect x="207.5" y="429" clip-path="url(#clipPath2)" width="67" rx="4" ry="4" height="34" stroke="none"/>
      <text x="223.5" y="450.4238" clip-path="url(#clipPath2)" fill="black" font-family="monospace" stroke="none" xml:space="preserve">Plano</text>
    </g>
    <g stroke-miterlimit="1.45" transform="matrix(1,0,0,1,-111,-124)" stroke-linecap="butt">
      <rect x="207.5" y="429" clip-path="url(#clipPath2)" fill="none" width="67" rx="4" ry="4" height="34"/>
    </g>
    <g fill="rgb(153,204,255)" transform="matrix(1,0,0,1,-111,-124)" stroke="rgb(153,204,255)">
      <rect x="637" y="193" clip-path="url(#clipPath2)" width="143" rx="4" ry="4" height="50" stroke="none"/>
      <text x="663" y="215.4395" clip-path="url(#clipPath2)" fill="black" font-family="monospace" stroke="none" xml:space="preserve">Estado Atual,</text>
      <text x="642" y="229.4082" clip-path="url(#clipPath2)" fill="black" font-family="monospace" stroke="none" xml:space="preserve">Ações já executadas</text>
    </g>
    <g stroke-miterlimit="1.45" transform="matrix(1,0,0,1,-111,-124)" stroke-linecap="butt">
      <rect x="637" y="193" clip-path="url(#clipPath2)" fill="none" width="143" rx="4" ry="4" height="50"/>
    </g>
    <g fill="rgb(204,255,255)" transform="matrix(1,0,0,1,-111,-124)" stroke="rgb(204,255,255)">
      <path d="M593.5 412.8629 L660.8655 366 L756.1345 366 L823.5 412.8629 L823.5 479.1371 L756.1345 526 L660.8655 526 L593.5 479.1371 Z" clip-path="url(#clipPath2)" fill-rule="evenodd" stroke="none"/>
    </g>
    <g font-size="20" font-family="sans-serif" transform="matrix(1,0,0,1,-111,-124)">
      <text xml:space="preserve" x="705.5" y="391.0039" clip-path="url(#clipPath2)" stroke="none"> </text>
      <text xml:space="preserve" x="659.5" y="414.2754" clip-path="url(#clipPath2)" stroke="none">Simulador</text>
    </g>
    <g stroke-miterlimit="1.45" transform="matrix(1,0,0,1,-111,-124)" stroke-linecap="butt">
      <path fill="none" d="M593.5 412.8629 L660.8655 366 L756.1345 366 L823.5 412.8629 L823.5 479.1371 L756.1345 526 L660.8655 526 L593.5 479.1371 Z" clip-path="url(#clipPath2)" fill-rule="evenodd"/>
    </g>
    <g fill="rgb(204,255,255)" transform="matrix(1,0,0,1,-111,-124)" stroke="rgb(204,255,255)">
      <path d="M681.8125 484.3126 L740.3911 454.4375 L823.2339 454.4375 L881.8125 484.3126 L881.8125 526.5624 L823.2339 556.4375 L740.3911 556.4375 L681.8125 526.5624 Z" clip-path="url(#clipPath2)" fill-rule="evenodd" stroke="none"/>
    </g>
    <g font-size="18" font-family="sans-serif" transform="matrix(1,0,0,1,-111,-124)">
      <text xml:space="preserve" x="722.8125" y="512.0688" clip-path="url(#clipPath2)" stroke="none">Interface Web</text>
    </g>
    <g stroke-miterlimit="1.45" transform="matrix(1,0,0,1,-111,-124)" stroke-linecap="butt">
      <path fill="none" d="M681.8125 484.3126 L740.3911 454.4375 L823.2339 454.4375 L881.8125 484.3126 L881.8125 526.5624 L823.2339 556.4375 L740.3911 556.4375 L681.8125 526.5624 Z" clip-path="url(#clipPath2)" fill-rule="evenodd"/>
    </g>
    <g fill="rgb(204,153,255)" transform="matrix(1,0,0,1,-111,-124)" stroke="rgb(204,153,255)">
      <rect x="813.8125" y="275.125" clip-path="url(#clipPath2)" width="67" rx="4" ry="4" height="34" stroke="none"/>
      <text x="829.8125" y="296.5488" clip-path="url(#clipPath2)" fill="black" font-family="monospace" stroke="none" xml:space="preserve">Falha</text>
    </g>
    <g stroke-miterlimit="1.45" transform="matrix(1,0,0,1,-111,-124)" stroke-linecap="butt">
      <rect x="813.8125" y="275.125" clip-path="url(#clipPath2)" fill="none" width="67" rx="4" ry="4" height="34"/>
      <path fill="none" stroke-width="3" d="M465.5237 276.8547 L366.175 251.1976" clip-path="url(#clipPath2)"/>
      <path stroke-width="3" d="M356.4926 248.6971 L369.4533 258.4993 L367.3853 251.5102 L372.5789 246.3964 Z" clip-path="url(#clipPath2)" stroke="none"/>
      <path fill="none" stroke-width="3" d="M407.2166 335.0016 L330.73 281.461" clip-path="url(#clipPath2)"/>
      <path stroke-width="3" d="M322.5377 275.7264 L331.242 289.4485 L331.754 282.1778 L338.4103 279.2081 Z" clip-path="url(#clipPath2)" stroke="none"/>
      <path fill="none" stroke-width="3" d="M241.3238 298.9987 L241.0594 419.0245" clip-path="url(#clipPath2)"/>
      <path stroke-width="3" d="M241.0374 429.0245 L247.3204 414.0383 L241.0622 417.7745 L234.8204 414.0108 Z" clip-path="url(#clipPath2)" stroke="none"/>
      <path fill="none" stroke-width="3" d="M708.5 365.9829 L708.5 252.9649" clip-path="url(#clipPath2)"/>
      <path stroke-width="3" d="M708.5 242.9649 L702.25 257.9649 L708.5 254.2149 L714.75 257.9649 Z" clip-path="url(#clipPath2)" stroke="none"/>
      <path fill="none" stroke-width="3" d="M636.9849 218.1531 L366.544 218.7322" clip-path="url(#clipPath2)"/>
      <path stroke-width="3" d="M356.544 218.7536 L371.5574 224.9715 L367.794 218.7296 L371.5306 212.4715 Z" clip-path="url(#clipPath2)" stroke="none"/>
      <path fill="none" stroke-width="3" d="M274.5274 446 L583.5174 446" clip-path="url(#clipPath2)"/>
      <path stroke-width="3" d="M593.5174 446 L578.5174 439.75 L582.2674 446 L578.5174 452.25 Z" clip-path="url(#clipPath2)" stroke="none"/>
      <path fill="none" stroke-width="3" d="M521.1724 302.4865 L623.1566 380.6176" clip-path="url(#clipPath2)"/>
      <path stroke-width="3" d="M631.0947 386.6991 L622.9884 372.6154 L622.1642 379.8574 L615.3865 382.5382 Z" clip-path="url(#clipPath2)" stroke="none"/>
      <path fill="none" stroke-width="3" d="M465.0092 363.3713 L589.7389 405.6984" clip-path="url(#clipPath2)"/>
      <path stroke-width="3" d="M599.2085 408.9119 L587.0125 398.1731 L588.5552 405.2967 L582.9957 410.0101 Z" clip-path="url(#clipPath2)" stroke="none"/>
      <path fill="none" stroke-width="3" d="M831.9774 309.1241 L777.9318 369.0342" clip-path="url(#clipPath2)"/>
      <path stroke-width="3" d="M771.2335 376.4593 L785.9217 369.5081 L778.7691 368.106 L776.6403 361.1352 Z" clip-path="url(#clipPath2)" stroke="none"/>
    </g>
  </g>
</svg>
