<?xml version="1.0" encoding="UTF-8" standalone="no"?>
<svg
   xmlns:dc="http://purl.org/dc/elements/1.1/"
   xmlns:cc="http://web.resource.org/cc/"
   xmlns:rdf="http://www.w3.org/1999/02/22-rdf-syntax-ns#"
   xmlns:svg="http://www.w3.org/2000/svg"
   xmlns="http://www.w3.org/2000/svg"
   xmlns:sodipodi="http://sodipodi.sourceforge.net/DTD/sodipodi-0.dtd"
   xmlns:inkscape="http://www.inkscape.org/namespaces/inkscape"
   fill-opacity="1"
   color-rendering="auto"
   color-interpolation="auto"
   stroke="black"
   text-rendering="auto"
   stroke-linecap="square"
   width="956"
   stroke-miterlimit="10"
   stroke-opacity="1"
   shape-rendering="auto"
   fill="black"
   stroke-dasharray="none"
   font-weight="normal"
   stroke-width="1"
   height="448"
   font-family="'Dialog'"
   font-style="normal"
   stroke-linejoin="miter"
   font-size="12"
   stroke-dashoffset="0"
   image-rendering="auto"
   id="svg2426"
   sodipodi:version="0.32"
   inkscape:version="0.45.1"
   sodipodi:docname="arquitetura2.svg"
   sodipodi:docbase="/home/david/Desktop/monografia/img"
   inkscape:output_extension="org.inkscape.output.svg.inkscape">
  <metadata
     id="metadata2639">
    <rdf:RDF>
      <cc:Work
         rdf:about="">
        <dc:format>image/svg+xml</dc:format>
        <dc:type
           rdf:resource="http://purl.org/dc/dcmitype/StillImage" />
      </cc:Work>
    </rdf:RDF>
  </metadata>
  <sodipodi:namedview
     inkscape:window-height="627"
     inkscape:window-width="910"
     inkscape:pageshadow="2"
     inkscape:pageopacity="0.0"
     guidetolerance="10.0"
     gridtolerance="10.0"
     objecttolerance="10.0"
     borderopacity="1.0"
     bordercolor="#666666"
     pagecolor="#ffffff"
     id="base"
     inkscape:zoom="0.85355649"
     inkscape:cx="478"
     inkscape:cy="224"
     inkscape:window-x="179"
     inkscape:window-y="138"
     inkscape:current-layer="svg2426" />
<!--Generated by ySVG-->  <defs
     id="genericDefs" />
  <g
     id="g2429">
    <defs
       id="defs1">
      <clipPath
         clipPathUnits="userSpaceOnUse"
         id="clipPath1">
        <path
           d="M0 0 L956 0 L956 448 L0 448 L0 0 Z"
           id="path2433" />
      </clipPath>
      <clipPath
         clipPathUnits="userSpaceOnUse"
         id="clipPath2">
        <path
           d="M111 124 L1067 124 L1067 572 L111 572 L111 124 Z"
           id="path2436" />
      </clipPath>
    </defs>
    <g
       fill="white"
       transform="translate(-111,-124)"
       stroke="white"
       id="g2438">
      <rect
         x="111"
         y="124"
         clip-path="url(#clipPath2)"
         width="956"
         height="448"
         stroke="none"
         id="rect2440" />
    </g>
    <g
       fill="white"
       stroke="white"
       id="g2442">
      <rect
         x="9.125"
         y="424.75"
         clip-path="url(#clipPath1)"
         width="104.9043"
         height="15.5625"
         stroke="none"
         id="rect2444" />
    </g>
    <g
       fill="rgb(204,255,255)"
       transform="matrix(1,0,0,1,-111,-124)"
       stroke="rgb(204,255,255)"
       id="g2448">
      <path
         d="M126.5 185.8629 L193.8654 139 L289.1346 139 L356.5 185.8629 L356.5 252.1371 L289.1346 299 L193.8654 299 L126.5 252.1371 Z"
         clip-path="url(#clipPath2)"
         fill-rule="evenodd"
         stroke="none"
         id="path2450" />
    </g>
    <g
       font-size="20"
       font-family="sans-serif"
       transform="matrix(1,0,0,1,-111,-124)"
       id="g2452">
      <text
         xml:space="preserve"
         x="238.5"
         y="164.375"
         clip-path="url(#clipPath2)"
         stroke="none"
         id="text2454"> </text>
      <text
         xml:space="preserve"
         x="152"
         y="188.7473"
         clip-path="url(#clipPath2)"
         stroke="none"
         id="text2456">Sistema de Reparo</text>
    </g>
    <g
       stroke-miterlimit="1.45"
       transform="matrix(1,0,0,1,-111,-124)"
       stroke-linecap="butt"
       id="g2458">
      <path
         fill="none"
         d="M126.5 185.8629 L193.8654 139 L289.1346 139 L356.5 185.8629 L356.5 252.1371 L289.1346 299 L193.8654 299 L126.5 252.1371 Z"
         clip-path="url(#clipPath2)"
         fill-rule="evenodd"
         id="path2460" />
    </g>
    <g
       fill="rgb(204,255,204)"
       transform="matrix(1,0,0,1,-111,-124)"
       stroke="rgb(204,255,204)"
       id="g2462">
      <ellipse
         clip-path="url(#clipPath2)"
         rx="38.5"
         cx="186.9375"
         ry="25"
         cy="228.8125"
         stroke="none"
         id="ellipse2464" />
      <text
         x="169.4375"
         y="233.1301"
         clip-path="url(#clipPath2)"
         fill="black"
         font-family="monospace"
         stroke="none"
         xml:space="preserve"
         id="text2466">VHPOP</text>
    </g>
    <g
       stroke-miterlimit="1.45"
       transform="matrix(1,0,0,1,-111,-124)"
       stroke-linecap="butt"
       id="g2468">
      <ellipse
         clip-path="url(#clipPath2)"
         fill="none"
         rx="38.5"
         cx="186.9375"
         ry="25"
         cy="228.8125"
         id="ellipse2470" />
    </g>
    <g
       fill="rgb(204,153,255)"
       transform="matrix(1,0,0,1,-111,-124)"
       stroke="rgb(204,153,255)"
       id="g2472">
      <rect
         x="465.5"
         y="268.5"
         clip-path="url(#clipPath2)"
         width="67"
         rx="4"
         ry="4"
         height="34"
         stroke="none"
         id="rect2474" />
      <text
         x="474.5"
         y="289.8176"
         clip-path="url(#clipPath2)"
         fill="black"
         font-family="monospace"
         stroke="none"
         xml:space="preserve"
         id="text2476">Domínio</text>
    </g>
    <g
       stroke-miterlimit="1.45"
       transform="matrix(1,0,0,1,-111,-124)"
       stroke-linecap="butt"
       id="g2478">
      <rect
         x="465.5"
         y="268.5"
         clip-path="url(#clipPath2)"
         fill="none"
         width="67"
         rx="4"
         ry="4"
         height="34"
         id="rect2480" />
    </g>
    <g
       fill="rgb(204,153,255)"
       transform="matrix(1,0,0,1,-111,-124)"
       stroke="rgb(204,153,255)"
       id="g2482">
      <rect
         x="398"
         y="335"
         clip-path="url(#clipPath2)"
         width="67"
         rx="4"
         ry="4"
         height="34"
         stroke="none"
         id="rect2484" />
      <text
         x="403.5"
         y="356.3176"
         clip-path="url(#clipPath2)"
         fill="black"
         font-family="monospace"
         stroke="none"
         xml:space="preserve"
         id="text2486">Problema</text>
    </g>
    <g
       stroke-miterlimit="1.45"
       transform="matrix(1,0,0,1,-111,-124)"
       stroke-linecap="butt"
       id="g2488">
      <rect
         x="398"
         y="335"
         clip-path="url(#clipPath2)"
         fill="none"
         width="67"
         rx="4"
         ry="4"
         height="34"
         id="rect2490" />
    </g>
    <g
       fill="rgb(204,255,204)"
       transform="matrix(1,0,0,1,-111,-124)"
       stroke="rgb(204,255,204)"
       id="g2492">
      <ellipse
         clip-path="url(#clipPath2)"
         rx="38.5"
         cx="293.5"
         ry="25"
         cy="228.5"
         stroke="none"
         id="ellipse2494" />
      <text
         x="258.5"
         y="232.8176"
         clip-path="url(#clipPath2)"
         fill="black"
         font-family="monospace"
         stroke="none"
         xml:space="preserve"
         id="text2496">Heuríticas</text>
    </g>
    <g
       stroke-miterlimit="1.45"
       transform="matrix(1,0,0,1,-111,-124)"
       stroke-linecap="butt"
       id="g2498">
      <ellipse
         clip-path="url(#clipPath2)"
         fill="none"
         rx="38.5"
         cx="293.5"
         ry="25"
         cy="228.5"
         id="ellipse2500" />
    </g>
    <g
       fill="rgb(153,204,255)"
       transform="matrix(1,0,0,1,-111,-124)"
       stroke="rgb(153,204,255)"
       id="g2502">
      <rect
         x="207.5"
         y="429"
         clip-path="url(#clipPath2)"
         width="67"
         rx="4"
         ry="4"
         height="34"
         stroke="none"
         id="rect2504" />
      <text
         x="223.5"
         y="450.3176"
         clip-path="url(#clipPath2)"
         fill="black"
         font-family="monospace"
         stroke="none"
         xml:space="preserve"
         id="text2506">Plano</text>
    </g>
    <g
       stroke-miterlimit="1.45"
       transform="matrix(1,0,0,1,-111,-124)"
       stroke-linecap="butt"
       id="g2508">
      <rect
         x="207.5"
         y="429"
         clip-path="url(#clipPath2)"
         fill="none"
         width="67"
         rx="4"
         ry="4"
         height="34"
         id="rect2510" />
    </g>
    <g
       fill="rgb(153,204,255)"
       transform="matrix(1,0,0,1,-111,-124)"
       stroke="rgb(153,204,255)"
       id="g2512">
      <rect
         x="626"
         y="193"
         clip-path="url(#clipPath2)"
         width="165"
         rx="4"
         ry="4"
         height="50"
         stroke="none"
         id="rect2514" />
      <text
         x="663"
         y="215.0016"
         clip-path="url(#clipPath2)"
         fill="black"
         font-family="monospace"
         stroke="none"
         xml:space="preserve"
         id="text2516">Estado Atual,</text>
      <text
         x="642"
         y="229.6336"
         clip-path="url(#clipPath2)"
         fill="black"
         font-family="monospace"
         stroke="none"
         xml:space="preserve"
         id="text2518">Ações já executadas</text>
    </g>
    <g
       stroke-miterlimit="1.45"
       transform="matrix(1,0,0,1,-111,-124)"
       stroke-linecap="butt"
       id="g2520">
      <rect
         x="626"
         y="193"
         clip-path="url(#clipPath2)"
         fill="none"
         width="165"
         rx="4"
         ry="4"
         height="50"
         id="rect2522" />
    </g>
    <g
       fill="rgb(204,255,255)"
       transform="matrix(1,0,0,1,-111,-124)"
       stroke="rgb(204,255,255)"
       id="g2524">
      <path
         d="M593.5 412.8629 L660.8654 366 L756.1346 366 L823.5 412.8629 L823.5 479.1371 L756.1346 526 L660.8654 526 L593.5 479.1371 Z"
         clip-path="url(#clipPath2)"
         fill-rule="evenodd"
         stroke="none"
         id="path2526" />
    </g>
    <g
       font-size="20"
       font-family="sans-serif"
       transform="matrix(1,0,0,1,-111,-124)"
       id="g2528">
      <text
         xml:space="preserve"
         x="705.5"
         y="391.375"
         clip-path="url(#clipPath2)"
         stroke="none"
         id="text2530"> </text>
      <text
         xml:space="preserve"
         x="659.5"
         y="415.7473"
         clip-path="url(#clipPath2)"
         stroke="none"
         id="text2532">Simulador</text>
    </g>
    <g
       stroke-miterlimit="1.45"
       transform="matrix(1,0,0,1,-111,-124)"
       stroke-linecap="butt"
       id="g2534">
      <path
         fill="none"
         d="M593.5 412.8629 L660.8654 366 L756.1346 366 L823.5 412.8629 L823.5 479.1371 L756.1346 526 L660.8654 526 L593.5 479.1371 Z"
         clip-path="url(#clipPath2)"
         fill-rule="evenodd"
         id="path2536" />
    </g>
    <g
       fill="rgb(204,255,255)"
       transform="matrix(1,0,0,1,-111,-124)"
       stroke="rgb(204,255,255)"
       id="g2538">
      <path
         d="M681.8125 484.3126 L740.3911 454.4375 L823.2339 454.4375 L881.8125 484.3126 L881.8125 526.5624 L823.2339 556.4375 L740.3911 556.4375 L681.8125 526.5624 Z"
         clip-path="url(#clipPath2)"
         fill-rule="evenodd"
         stroke="none"
         id="path2540" />
    </g>
    <g
       font-size="18"
       font-family="sans-serif"
       transform="matrix(1,0,0,1,-111,-124)"
       id="g2542">
      <text
         xml:space="preserve"
         x="722.8125"
         y="511.9075"
         clip-path="url(#clipPath2)"
         stroke="none"
         id="text2544">Interface Web</text>
    </g>
    <g
       stroke-miterlimit="1.45"
       transform="matrix(1,0,0,1,-111,-124)"
       stroke-linecap="butt"
       id="g2546">
      <path
         fill="none"
         d="M681.8125 484.3126 L740.3911 454.4375 L823.2339 454.4375 L881.8125 484.3126 L881.8125 526.5624 L823.2339 556.4375 L740.3911 556.4375 L681.8125 526.5624 Z"
         clip-path="url(#clipPath2)"
         fill-rule="evenodd"
         id="path2548" />
    </g>
    <g
       fill="rgb(204,153,255)"
       transform="matrix(1,0,0,1,-111,-124)"
       stroke="rgb(204,153,255)"
       id="g2550">
      <rect
         x="812.5"
         y="303"
         clip-path="url(#clipPath2)"
         width="67"
         rx="4"
         ry="4"
         height="34"
         stroke="none"
         id="rect2552" />
      <text
         x="828.5"
         y="324.3176"
         clip-path="url(#clipPath2)"
         fill="black"
         font-family="monospace"
         stroke="none"
         xml:space="preserve"
         id="text2554">Falha</text>
    </g>
    <g
       stroke-miterlimit="1.45"
       transform="matrix(1,0,0,1,-111,-124)"
       stroke-linecap="butt"
       id="g2556">
      <rect
         x="812.5"
         y="303"
         clip-path="url(#clipPath2)"
         fill="none"
         width="67"
         rx="4"
         ry="4"
         height="34"
         id="rect2558" />
    </g>
    <g
       fill="rgb(204,255,255)"
       transform="matrix(1,0,0,1,-111,-124)"
       stroke="rgb(204,255,255)"
       id="g2560">
      <path
         d="M852 196.8751 L910.5786 167 L993.4214 167 L1052 196.8751 L1052 239.1249 L993.4214 269 L910.5786 269 L852 239.1249 Z"
         clip-path="url(#clipPath2)"
         fill-rule="evenodd"
         stroke="none"
         id="path2562" />
    </g>
    <g
       font-size="20"
       font-family="sans-serif"
       transform="matrix(1,0,0,1,-111,-124)"
       id="g2564">
      <text
         xml:space="preserve"
         x="896.5"
         y="200.8166"
         clip-path="url(#clipPath2)"
         stroke="none"
         id="text2566">Sistema de </text>
      <text
         xml:space="preserve"
         x="910.5"
         y="225.1889"
         clip-path="url(#clipPath2)"
         stroke="none"
         id="text2568">Geração </text>
      <text
         xml:space="preserve"
         x="906.5"
         y="249.5611"
         clip-path="url(#clipPath2)"
         stroke="none"
         id="text2570">de Falhas</text>
    </g>
    <g
       stroke-miterlimit="1.45"
       transform="matrix(1,0,0,1,-111,-124)"
       stroke-linecap="butt"
       id="g2572">
      <path
         fill="none"
         d="M852 196.8751 L910.5786 167 L993.4214 167 L1052 196.8751 L1052 239.1249 L993.4214 269 L910.5786 269 L852 239.1249 Z"
         clip-path="url(#clipPath2)"
         fill-rule="evenodd"
         id="path2574" />
    </g>
    <g
       fill="rgb(255,255,153)"
       transform="matrix(1,0,0,1,-111,-124)"
       stroke="rgb(255,255,153)"
       id="g2576">
      <rect
         x="918.5"
         y="429"
         clip-path="url(#clipPath2)"
         width="67"
         rx="4"
         ry="4"
         height="34"
         stroke="none"
         id="rect2578" />
      <text
         x="927.5"
         y="450.3176"
         clip-path="url(#clipPath2)"
         fill="black"
         font-family="monospace"
         stroke="none"
         xml:space="preserve"
         id="text2580">Usuário</text>
    </g>
    <g
       stroke-miterlimit="1.45"
       transform="matrix(1,0,0,1,-111,-124)"
       stroke-linecap="butt"
       id="g2582">
      <rect
         x="918.5"
         y="429"
         clip-path="url(#clipPath2)"
         fill="none"
         width="67"
         rx="4"
         ry="4"
         height="34"
         id="rect2584" />
      <path
         fill="none"
         stroke-width="3"
         d="M465.5237 276.8547 L366.175 251.1976"
         clip-path="url(#clipPath2)"
         id="path2586" />
      <path
         stroke-width="3"
         d="M356.4926 248.6971 L369.4533 258.4993 L367.3853 251.5102 L372.5789 246.3964 Z"
         clip-path="url(#clipPath2)"
         stroke="none"
         id="path2588" />
      <path
         fill="none"
         stroke-width="3"
         d="M407.2166 335.0016 L330.73 281.461"
         clip-path="url(#clipPath2)"
         id="path2590" />
      <path
         stroke-width="3"
         d="M322.5377 275.7264 L331.242 289.4485 L331.754 282.1778 L338.4103 279.2081 Z"
         clip-path="url(#clipPath2)"
         stroke="none"
         id="path2592" />
      <path
         fill="none"
         stroke-width="3"
         d="M241.3238 298.9987 L241.0594 419.0245"
         clip-path="url(#clipPath2)"
         id="path2594" />
      <path
         stroke-width="3"
         d="M241.0374 429.0245 L247.3204 414.0383 L241.0622 417.7745 L234.8204 414.0108 Z"
         clip-path="url(#clipPath2)"
         stroke="none"
         id="path2596" />
      <path
         fill="none"
         stroke-width="3"
         d="M708.5 365.9829 L708.5 252.9649"
         clip-path="url(#clipPath2)"
         id="path2598" />
      <path
         stroke-width="3"
         d="M708.5 242.9649 L702.25 257.9649 L708.5 254.2149 L714.75 257.9649 Z"
         clip-path="url(#clipPath2)"
         stroke="none"
         id="path2600" />
      <path
         fill="none"
         stroke-width="3"
         d="M625.9826 218.1767 L366.535 218.7323"
         clip-path="url(#clipPath2)"
         id="path2602" />
      <path
         stroke-width="3"
         d="M356.535 218.7537 L371.5484 224.9715 L367.785 218.7296 L371.5216 212.4716 Z"
         clip-path="url(#clipPath2)"
         stroke="none"
         id="path2604" />
      <path
         fill="none"
         stroke-width="3"
         d="M274.5274 446 L583.5174 446"
         clip-path="url(#clipPath2)"
         id="path2606" />
      <path
         stroke-width="3"
         d="M593.5174 446 L578.5174 439.75 L582.2674 446 L578.5174 452.25 Z"
         clip-path="url(#clipPath2)"
         stroke="none"
         id="path2608" />
      <path
         fill="none"
         stroke-width="3"
         d="M521.1724 302.4865 L623.1566 380.6176"
         clip-path="url(#clipPath2)"
         id="path2610" />
      <path
         stroke-width="3"
         d="M631.0947 386.6991 L622.9884 372.6154 L622.1642 379.8574 L615.3865 382.5382 Z"
         clip-path="url(#clipPath2)"
         stroke="none"
         id="path2612" />
      <path
         fill="none"
         stroke-width="3"
         d="M465.0092 363.3713 L589.7389 405.6984"
         clip-path="url(#clipPath2)"
         id="path2614" />
      <path
         stroke-width="3"
         d="M599.2085 408.9119 L587.0125 398.1731 L588.5552 405.2967 L582.9957 410.0101 Z"
         clip-path="url(#clipPath2)"
         stroke="none"
         id="path2616" />
      <path
         fill="none"
         stroke-width="3"
         d="M827.4362 337.0112 L786.0554 374.931"
         clip-path="url(#clipPath2)"
         id="path2618" />
      <path
         stroke-width="3"
         d="M778.6827 381.687 L793.9642 376.1609 L786.977 374.0865 L785.5192 366.9451 Z"
         clip-path="url(#clipPath2)"
         stroke="none"
         id="path2620" />
      <path
         fill="none"
         stroke-width="3"
         d="M903.0112 265.1401 L870.8826 296.0564"
         clip-path="url(#clipPath2)"
         id="path2622" />
      <path
         stroke-width="3"
         d="M863.6769 302.9902 L878.8191 297.0931 L871.7833 295.1897 L870.1518 288.0859 Z"
         clip-path="url(#clipPath2)"
         stroke="none"
         id="path2624" />
      <path
         fill="none"
         stroke-width="3"
         d="M952 428.9946 L952 279.023"
         clip-path="url(#clipPath2)"
         id="path2626" />
      <path
         stroke-width="3"
         d="M952 269.023 L945.75 284.023 L952 280.273 L958.25 284.023 Z"
         clip-path="url(#clipPath2)"
         stroke="none"
         id="path2628" />
      <path
         fill="none"
         stroke-width="3"
         d="M937.689 428.9888 L866.7416 344.6552"
         clip-path="url(#clipPath2)"
         id="path2630" />
      <path
         stroke-width="3"
         d="M860.304 337.0029 L865.1778 352.5048 L867.5463 345.6117 L874.7431 344.4578 Z"
         clip-path="url(#clipPath2)"
         stroke="none"
         id="path2632" />
      <path
         fill="none"
         stroke-width="3"
         d="M790.9844 218 L842.0336 218"
         clip-path="url(#clipPath2)"
         id="path2634" />
      <path
         stroke-width="3"
         d="M852.0336 218 L837.0336 211.75 L840.7836 218 L837.0336 224.25 Z"
         clip-path="url(#clipPath2)"
         stroke="none"
         id="path2636" />
    </g>
  </g>
</svg>
