<?xml version="1.0" encoding="UTF-8" standalone="no"?>
<svg
   xmlns:dc="http://purl.org/dc/elements/1.1/"
   xmlns:cc="http://web.resource.org/cc/"
   xmlns:rdf="http://www.w3.org/1999/02/22-rdf-syntax-ns#"
   xmlns:svg="http://www.w3.org/2000/svg"
   xmlns="http://www.w3.org/2000/svg"
   xmlns:sodipodi="http://sodipodi.sourceforge.net/DTD/sodipodi-0.dtd"
   xmlns:inkscape="http://www.inkscape.org/namespaces/inkscape"
   fill-opacity="1"
   color-rendering="auto"
   color-interpolation="auto"
   stroke="black"
   text-rendering="auto"
   stroke-linecap="square"
   width="872"
   stroke-miterlimit="10"
   stroke-opacity="1"
   shape-rendering="auto"
   fill="black"
   stroke-dasharray="none"
   font-weight="normal"
   stroke-width="1"
   height="636"
   font-family="'Dialog'"
   font-style="normal"
   stroke-linejoin="miter"
   font-size="12"
   stroke-dashoffset="0"
   image-rendering="auto"
   id="svg4239"
   sodipodi:version="0.32"
   inkscape:version="0.45.1"
   sodipodi:docname="diagrama_classe_sistema.svg"
   sodipodi:docbase="/home/david/Desktop/monografia/img"
   inkscape:output_extension="org.inkscape.output.svg.inkscape">
  <metadata
     id="metadata4589">
    <rdf:RDF>
      <cc:Work
         rdf:about="">
        <dc:format>image/svg+xml</dc:format>
        <dc:type
           rdf:resource="http://purl.org/dc/dcmitype/StillImage" />
      </cc:Work>
    </rdf:RDF>
  </metadata>
  <sodipodi:namedview
     inkscape:window-height="627"
     inkscape:window-width="910"
     inkscape:pageshadow="2"
     inkscape:pageopacity="0.0"
     guidetolerance="10.0"
     gridtolerance="10.0"
     objecttolerance="10.0"
     borderopacity="1.0"
     bordercolor="#666666"
     pagecolor="#ffffff"
     id="base"
     inkscape:zoom="0.63993711"
     inkscape:cx="436"
     inkscape:cy="318"
     inkscape:window-x="0"
     inkscape:window-y="24"
     inkscape:current-layer="svg4239" />
<!--Generated by ySVG-->  <defs
     id="genericDefs" />
  <g
     id="g4242">
    <defs
       id="defs1">
      <clipPath
         clipPathUnits="userSpaceOnUse"
         id="clipPath1">
        <path
           d="M0 0 L872 0 L872 636 L0 636 L0 0 Z"
           id="path4246" />
      </clipPath>
      <clipPath
         clipPathUnits="userSpaceOnUse"
         id="clipPath2">
        <path
           d="M-25 -18 L847 -18 L847 618 L-25 618 L-25 -18 Z"
           id="path4249" />
      </clipPath>
      <clipPath
         clipPathUnits="userSpaceOnUse"
         id="clipPath3">
        <path
           d="M434 357 L434 403 L526 403 L526 357 Z"
           id="path4252" />
      </clipPath>
      <clipPath
         clipPathUnits="userSpaceOnUse"
         id="clipPath4">
        <path
           d="M574 197 L574 243 L666 243 L666 197 Z"
           id="path4255" />
      </clipPath>
      <clipPath
         clipPathUnits="userSpaceOnUse"
         id="clipPath5">
        <path
           d="M294 417 L294 463 L386 463 L386 417 Z"
           id="path4258" />
      </clipPath>
      <clipPath
         clipPathUnits="userSpaceOnUse"
         id="clipPath6">
        <path
           d="M434 257 L434 303 L526 303 L526 257 Z"
           id="path4261" />
      </clipPath>
      <clipPath
         clipPathUnits="userSpaceOnUse"
         id="clipPath7">
        <path
           d="M434 537 L434 583 L526 583 L526 537 Z"
           id="path4264" />
      </clipPath>
      <clipPath
         clipPathUnits="userSpaceOnUse"
         id="clipPath8">
        <path
           d="M674 357 L674 403 L766 403 L766 357 Z"
           id="path4267" />
      </clipPath>
      <clipPath
         clipPathUnits="userSpaceOnUse"
         id="clipPath9">
        <path
           d="M294 57 L294 103 L386 103 L386 57 Z"
           id="path4270" />
      </clipPath>
      <clipPath
         clipPathUnits="userSpaceOnUse"
         id="clipPath10">
        <path
           d="M574 -3 L574 43 L666 43 L666 -3 Z"
           id="path4273" />
      </clipPath>
      <clipPath
         clipPathUnits="userSpaceOnUse"
         id="clipPath11">
        <path
           d="M294 257 L294 303 L386 303 L386 257 Z"
           id="path4276" />
      </clipPath>
      <clipPath
         clipPathUnits="userSpaceOnUse"
         id="clipPath12">
        <path
           d="M134 417 L134 463 L226 463 L226 417 Z"
           id="path4279" />
      </clipPath>
      <clipPath
         clipPathUnits="userSpaceOnUse"
         id="clipPath13">
        <path
           d="M-10 417 L-10 463 L90 463 L90 417 Z"
           id="path4282" />
      </clipPath>
    </defs>
    <g
       fill="white"
       transform="translate(25,18)"
       stroke="white"
       id="g4284">
      <rect
         x="-25"
         y="-18"
         clip-path="url(#clipPath2)"
         width="872"
         height="636"
         stroke="none"
         id="rect4286" />
    </g>
    <g
       fill="white"
       stroke="white"
       id="g4288">
      <rect
         x="9.125"
         y="612.75"
         clip-path="url(#clipPath1)"
         width="104.9043"
         height="15.5625"
         stroke="none"
         id="rect4290" />
    </g>
    <g
       stroke-miterlimit="1.45"
       transform="matrix(1,0,0,1,25,18)"
       stroke-linecap="butt"
       id="g4294">
      <rect
         x="434"
         y="357"
         clip-path="url(#clipPath2)"
         fill="none"
         width="92"
         height="46"
         id="rect4296" />
    </g>
    <g
       font-size="13"
       font-weight="bold"
       font-family="sans-serif"
       transform="matrix(1,0,0,1,25,18)"
       id="g4298">
      <text
         xml:space="preserve"
         x="463.5"
         y="374.5938"
         clip-path="url(#clipPath3)"
         stroke="none"
         id="text4300">Ação</text>
      <line
         clip-path="url(#clipPath3)"
         fill="none"
         x1="435"
         x2="525"
         y1="382"
         y2="382"
         id="line4302" />
      <text
         font-size="12"
         x="439"
         y="399.4651"
         clip-path="url(#clipPath3)"
         stroke="none"
         font-weight="normal"
         xml:space="preserve"
         id="text4304"> </text>
      <line
         clip-path="url(#clipPath3)"
         fill="none"
         x1="435"
         x2="525"
         y1="407"
         y2="407"
         id="line4306" />
      <text
         font-size="12"
         x="439"
         y="424.0884"
         clip-path="url(#clipPath3)"
         stroke="none"
         font-weight="normal"
         xml:space="preserve"
         id="text4308"> </text>
    </g>
    <g
       stroke-miterlimit="1.45"
       transform="matrix(1,0,0,1,25,18)"
       stroke-linecap="butt"
       id="g4310">
      <rect
         x="574"
         y="197"
         clip-path="url(#clipPath2)"
         fill="none"
         width="92"
         height="46"
         id="rect4312" />
    </g>
    <g
       font-size="13"
       font-weight="bold"
       font-family="sans-serif"
       transform="matrix(1,0,0,1,25,18)"
       id="g4314">
      <text
         xml:space="preserve"
         x="585"
         y="214.5938"
         clip-path="url(#clipPath4)"
         stroke="none"
         id="text4316">Parâmetro</text>
      <line
         clip-path="url(#clipPath4)"
         fill="none"
         x1="575"
         x2="665"
         y1="222"
         y2="222"
         id="line4318" />
      <text
         font-size="12"
         x="579"
         y="239.4651"
         clip-path="url(#clipPath4)"
         stroke="none"
         font-weight="normal"
         xml:space="preserve"
         id="text4320"> </text>
      <line
         clip-path="url(#clipPath4)"
         fill="none"
         x1="575"
         x2="665"
         y1="247"
         y2="247"
         id="line4322" />
      <text
         font-size="12"
         x="579"
         y="264.0884"
         clip-path="url(#clipPath4)"
         stroke="none"
         font-weight="normal"
         xml:space="preserve"
         id="text4324"> </text>
    </g>
    <g
       stroke-miterlimit="1.45"
       transform="matrix(1,0,0,1,25,18)"
       stroke-linecap="butt"
       id="g4326">
      <rect
         x="294"
         y="417"
         clip-path="url(#clipPath2)"
         fill="none"
         width="92"
         height="46"
         id="rect4328" />
    </g>
    <g
       font-size="13"
       font-weight="bold"
       font-family="sans-serif"
       transform="matrix(1,0,0,1,25,18)"
       id="g4330">
      <text
         xml:space="preserve"
         x="321.5"
         y="434.5938"
         clip-path="url(#clipPath5)"
         stroke="none"
         id="text4332">Plano</text>
      <line
         clip-path="url(#clipPath5)"
         fill="none"
         x1="295"
         x2="385"
         y1="442"
         y2="442"
         id="line4334" />
      <text
         font-size="12"
         x="299"
         y="459.4651"
         clip-path="url(#clipPath5)"
         stroke="none"
         font-weight="normal"
         xml:space="preserve"
         id="text4336"> </text>
      <line
         clip-path="url(#clipPath5)"
         fill="none"
         x1="295"
         x2="385"
         y1="467"
         y2="467"
         id="line4338" />
      <text
         font-size="12"
         x="299"
         y="484.0884"
         clip-path="url(#clipPath5)"
         stroke="none"
         font-weight="normal"
         xml:space="preserve"
         id="text4340"> </text>
    </g>
    <g
       stroke-miterlimit="1.45"
       transform="matrix(1,0,0,1,25,18)"
       stroke-linecap="butt"
       id="g4342">
      <rect
         x="434"
         y="257"
         clip-path="url(#clipPath2)"
         fill="none"
         width="92"
         height="46"
         id="rect4344" />
    </g>
    <g
       font-size="13"
       font-weight="bold"
       font-family="sans-serif"
       transform="matrix(1,0,0,1,25,18)"
       id="g4346">
      <text
         xml:space="preserve"
         x="446.5"
         y="274.5938"
         clip-path="url(#clipPath6)"
         stroke="none"
         id="text4348">Predicado</text>
      <line
         clip-path="url(#clipPath6)"
         fill="none"
         x1="435"
         x2="525"
         y1="282"
         y2="282"
         id="line4350" />
      <text
         font-size="12"
         x="439"
         y="299.4651"
         clip-path="url(#clipPath6)"
         stroke="none"
         font-weight="normal"
         xml:space="preserve"
         id="text4352"> </text>
      <line
         clip-path="url(#clipPath6)"
         fill="none"
         x1="435"
         x2="525"
         y1="307"
         y2="307"
         id="line4354" />
      <text
         font-size="12"
         x="439"
         y="324.0884"
         clip-path="url(#clipPath6)"
         stroke="none"
         font-weight="normal"
         xml:space="preserve"
         id="text4356"> </text>
    </g>
    <g
       stroke-miterlimit="1.45"
       transform="matrix(1,0,0,1,25,18)"
       stroke-linecap="butt"
       id="g4358">
      <rect
         x="434"
         y="537"
         clip-path="url(#clipPath2)"
         fill="none"
         width="92"
         height="46"
         id="rect4360" />
    </g>
    <g
       font-size="13"
       font-weight="bold"
       font-family="sans-serif"
       transform="matrix(1,0,0,1,25,18)"
       id="g4362">
      <text
         xml:space="preserve"
         x="447"
         y="554.5938"
         clip-path="url(#clipPath7)"
         stroke="none"
         id="text4364">Ambiente</text>
      <line
         clip-path="url(#clipPath7)"
         fill="none"
         x1="435"
         x2="525"
         y1="562"
         y2="562"
         id="line4366" />
      <text
         font-size="12"
         x="439"
         y="579.4651"
         clip-path="url(#clipPath7)"
         stroke="none"
         font-weight="normal"
         xml:space="preserve"
         id="text4368"> </text>
      <line
         clip-path="url(#clipPath7)"
         fill="none"
         x1="435"
         x2="525"
         y1="587"
         y2="587"
         id="line4370" />
      <text
         font-size="12"
         x="439"
         y="604.0884"
         clip-path="url(#clipPath7)"
         stroke="none"
         font-weight="normal"
         xml:space="preserve"
         id="text4372"> </text>
    </g>
    <g
       stroke-miterlimit="1.45"
       transform="matrix(1,0,0,1,25,18)"
       stroke-linecap="butt"
       id="g4374">
      <rect
         x="674"
         y="357"
         clip-path="url(#clipPath2)"
         fill="none"
         width="92"
         height="46"
         id="rect4376" />
    </g>
    <g
       font-size="13"
       font-weight="bold"
       font-family="sans-serif"
       transform="matrix(1,0,0,1,25,18)"
       id="g4378">
      <text
         xml:space="preserve"
         x="697.5"
         y="374.5938"
         clip-path="url(#clipPath8)"
         stroke="none"
         id="text4380">Estado</text>
      <line
         clip-path="url(#clipPath8)"
         fill="none"
         x1="675"
         x2="765"
         y1="382"
         y2="382"
         id="line4382" />
      <text
         font-size="12"
         x="679"
         y="399.4651"
         clip-path="url(#clipPath8)"
         stroke="none"
         font-weight="normal"
         xml:space="preserve"
         id="text4384"> </text>
      <line
         clip-path="url(#clipPath8)"
         fill="none"
         x1="675"
         x2="765"
         y1="407"
         y2="407"
         id="line4386" />
      <text
         font-size="12"
         x="679"
         y="424.0884"
         clip-path="url(#clipPath8)"
         stroke="none"
         font-weight="normal"
         xml:space="preserve"
         id="text4388"> </text>
    </g>
    <g
       stroke-miterlimit="1.45"
       transform="matrix(1,0,0,1,25,18)"
       stroke-linecap="butt"
       id="g4390">
      <rect
         x="294"
         y="57"
         clip-path="url(#clipPath2)"
         fill="none"
         width="92"
         height="46"
         id="rect4392" />
    </g>
    <g
       font-size="13"
       font-weight="bold"
       font-family="sans-serif"
       transform="matrix(1,0,0,1,25,18)"
       id="g4394">
      <text
         xml:space="preserve"
         x="306"
         y="74.5938"
         clip-path="url(#clipPath9)"
         stroke="none"
         id="text4396">Heurística</text>
      <line
         clip-path="url(#clipPath9)"
         fill="none"
         x1="295"
         x2="385"
         y1="82"
         y2="82"
         id="line4398" />
      <text
         font-size="12"
         x="299"
         y="99.4651"
         clip-path="url(#clipPath9)"
         stroke="none"
         font-weight="normal"
         xml:space="preserve"
         id="text4400"> </text>
      <line
         clip-path="url(#clipPath9)"
         fill="none"
         x1="295"
         x2="385"
         y1="107"
         y2="107"
         id="line4402" />
      <text
         font-size="12"
         x="299"
         y="124.0884"
         clip-path="url(#clipPath9)"
         stroke="none"
         font-weight="normal"
         xml:space="preserve"
         id="text4404"> </text>
    </g>
    <g
       stroke-miterlimit="1.45"
       transform="matrix(1,0,0,1,25,18)"
       stroke-linecap="butt"
       id="g4406">
      <rect
         x="574"
         y="-3"
         clip-path="url(#clipPath2)"
         fill="none"
         width="92"
         height="46"
         id="rect4408" />
    </g>
    <g
       font-size="13"
       font-weight="bold"
       font-family="sans-serif"
       transform="matrix(1,0,0,1,25,18)"
       id="g4410">
      <text
         xml:space="preserve"
         x="588"
         y="14.5938"
         clip-path="url(#clipPath10)"
         stroke="none"
         id="text4412">Problema</text>
      <line
         clip-path="url(#clipPath10)"
         fill="none"
         x1="575"
         x2="665"
         y1="22"
         y2="22"
         id="line4414" />
      <text
         font-size="12"
         x="579"
         y="39.4651"
         clip-path="url(#clipPath10)"
         stroke="none"
         font-weight="normal"
         xml:space="preserve"
         id="text4416"> </text>
      <line
         clip-path="url(#clipPath10)"
         fill="none"
         x1="575"
         x2="665"
         y1="47"
         y2="47"
         id="line4418" />
      <text
         font-size="12"
         x="579"
         y="64.0884"
         clip-path="url(#clipPath10)"
         stroke="none"
         font-weight="normal"
         xml:space="preserve"
         id="text4420"> </text>
    </g>
    <g
       stroke-miterlimit="1.45"
       transform="matrix(1,0,0,1,25,18)"
       stroke-linecap="butt"
       id="g4422">
      <rect
         x="294"
         y="257"
         clip-path="url(#clipPath2)"
         fill="none"
         width="92"
         height="46"
         id="rect4424" />
    </g>
    <g
       font-size="13"
       font-weight="bold"
       font-family="sans-serif"
       transform="matrix(1,0,0,1,25,18)"
       id="g4426">
      <text
         xml:space="preserve"
         x="312"
         y="274.5938"
         clip-path="url(#clipPath11)"
         stroke="none"
         id="text4428">Domínio</text>
      <line
         clip-path="url(#clipPath11)"
         fill="none"
         x1="295"
         x2="385"
         y1="282"
         y2="282"
         id="line4430" />
      <text
         font-size="12"
         x="299"
         y="299.4651"
         clip-path="url(#clipPath11)"
         stroke="none"
         font-weight="normal"
         xml:space="preserve"
         id="text4432"> </text>
      <line
         clip-path="url(#clipPath11)"
         fill="none"
         x1="295"
         x2="385"
         y1="307"
         y2="307"
         id="line4434" />
      <text
         font-size="12"
         x="299"
         y="324.0884"
         clip-path="url(#clipPath11)"
         stroke="none"
         font-weight="normal"
         xml:space="preserve"
         id="text4436"> </text>
    </g>
    <g
       stroke-miterlimit="1.45"
       transform="matrix(1,0,0,1,25,18)"
       stroke-linecap="butt"
       id="g4438">
      <rect
         x="134"
         y="417"
         clip-path="url(#clipPath2)"
         fill="none"
         width="92"
         height="46"
         id="rect4440" />
    </g>
    <g
       font-size="13"
       font-weight="bold"
       font-family="sans-serif"
       transform="matrix(1,0,0,1,25,18)"
       id="g4442">
      <text
         xml:space="preserve"
         x="135"
         y="434.5938"
         clip-path="url(#clipPath12)"
         stroke="none"
         id="text4444">Replanejador</text>
      <line
         clip-path="url(#clipPath12)"
         fill="none"
         x1="135"
         x2="225"
         y1="442"
         y2="442"
         id="line4446" />
      <text
         font-size="12"
         x="139"
         y="459.4651"
         clip-path="url(#clipPath12)"
         stroke="none"
         font-weight="normal"
         xml:space="preserve"
         id="text4448"> </text>
      <line
         clip-path="url(#clipPath12)"
         fill="none"
         x1="135"
         x2="225"
         y1="467"
         y2="467"
         id="line4450" />
      <text
         font-size="12"
         x="139"
         y="484.0884"
         clip-path="url(#clipPath12)"
         stroke="none"
         font-weight="normal"
         xml:space="preserve"
         id="text4452"> </text>
    </g>
    <g
       stroke-miterlimit="1.45"
       transform="matrix(1,0,0,1,25,18)"
       stroke-linecap="butt"
       id="g4454">
      <rect
         x="-10"
         y="417"
         clip-path="url(#clipPath2)"
         fill="none"
         width="100"
         height="46"
         id="rect4456" />
    </g>
    <g
       font-size="13"
       font-weight="bold"
       font-family="sans-serif"
       transform="matrix(1,0,0,1,25,18)"
       id="g4458">
      <text
         xml:space="preserve"
         x="-4.5"
         y="434.5938"
         clip-path="url(#clipPath13)"
         stroke="none"
         id="text4460">Desempenho</text>
      <line
         clip-path="url(#clipPath13)"
         fill="none"
         x1="-9"
         x2="89"
         y1="442"
         y2="442"
         id="line4462" />
      <text
         font-size="12"
         x="-5"
         y="459.4651"
         clip-path="url(#clipPath13)"
         stroke="none"
         font-weight="normal"
         xml:space="preserve"
         id="text4464"> </text>
      <line
         clip-path="url(#clipPath13)"
         fill="none"
         x1="-9"
         x2="89"
         y1="467"
         y2="467"
         id="line4466" />
      <text
         font-size="12"
         x="-5"
         y="484.0884"
         clip-path="url(#clipPath13)"
         stroke="none"
         font-weight="normal"
         xml:space="preserve"
         id="text4468"> </text>
    </g>
    <g
       stroke-miterlimit="1.45"
       transform="matrix(1,0,0,1,25,18)"
       stroke-linecap="butt"
       id="g4470">
      <path
         fill="none"
         d="M526.0459 375 L620 375 L620 251.0322"
         clip-path="url(#clipPath2)"
         id="path4472" />
      <path
         d="M620 243.0322 L615 255.0322 L620 252.0322 L625 255.0322 Z"
         clip-path="url(#clipPath2)"
         stroke="none"
         id="path4474" />
      <path
         fill="none"
         d="M480 356.9736 L480 311.0264"
         clip-path="url(#clipPath2)"
         id="path4476" />
      <path
         d="M480 303.0264 L475 315.0264 L480 312.0264 L485 315.0264 Z"
         clip-path="url(#clipPath2)"
         stroke="none"
         id="path4478" />
      <path
         fill="none"
         d="M625 43.0376 L625 188.9624"
         clip-path="url(#clipPath2)"
         id="path4480" />
      <path
         d="M625 196.9624 L630 184.9624 L625 187.9624 L620 184.9624 Z"
         clip-path="url(#clipPath2)"
         stroke="none"
         id="path4482" />
      <path
         fill="none"
         d="M666.0405 20 L832 20 L832 380 L774.0322 380"
         clip-path="url(#clipPath2)"
         id="path4484" />
      <path
         d="M766.0322 380 L778.0322 385 L775.0322 380 L778.0322 375 Z"
         clip-path="url(#clipPath2)"
         stroke="none"
         id="path4486" />
      <path
         fill="none"
         d="M526.0449 560 L710 560 L710 411.0383"
         clip-path="url(#clipPath2)"
         id="path4488" />
      <path
         d="M710 403.0383 L705 415.0383 L710 412.0383 L715 415.0383 Z"
         clip-path="url(#clipPath2)"
         stroke="none"
         id="path4490" />
      <path
         fill="none"
         d="M490 536.9673 L490 411.0327"
         clip-path="url(#clipPath2)"
         id="path4492" />
      <path
         d="M490 403.0327 L485 415.0327 L490 412.0327 L495 415.0327 Z"
         clip-path="url(#clipPath2)"
         stroke="none"
         id="path4494" />
      <path
         fill="none"
         d="M345 303.0376 L345 380 L425.9565 380"
         clip-path="url(#clipPath2)"
         id="path4496" />
      <path
         d="M433.9565 380 L421.9565 375 L424.9565 380 L421.9565 385 Z"
         clip-path="url(#clipPath2)"
         stroke="none"
         id="path4498" />
      <path
         fill="none"
         d="M386.0469 280 L425.9532 280"
         clip-path="url(#clipPath2)"
         id="path4500" />
      <path
         d="M433.9532 280 L421.9532 275 L424.9532 280 L421.9532 285 Z"
         clip-path="url(#clipPath2)"
         stroke="none"
         id="path4502" />
      <path
         fill="none"
         d="M485 256.9639 L485 220 L565.9565 220"
         clip-path="url(#clipPath2)"
         id="path4504" />
      <path
         d="M573.9565 220 L561.9565 215 L564.9565 220 L561.9565 225 Z"
         clip-path="url(#clipPath2)"
         stroke="none"
         id="path4506" />
      <path
         fill="none"
         d="M710 356.9624 L710 280 L534.0449 280"
         clip-path="url(#clipPath2)"
         id="path4508" />
      <path
         d="M526.0449 280 L538.0449 285 L535.0449 280 L538.0449 275 Z"
         clip-path="url(#clipPath2)"
         stroke="none"
         id="path4510" />
      <path
         fill="none"
         d="M386.041 440 L470 440 L470 411.0361"
         clip-path="url(#clipPath2)"
         id="path4512" />
      <path
         d="M470 403.0361 L465 415.0361 L470 412.0361 L475 415.0361 Z"
         clip-path="url(#clipPath2)"
         stroke="none"
         id="path4514" />
      <path
         fill="none"
         stroke-dasharray="6,2"
         d="M335 416.9722 L335 311.0278"
         clip-path="url(#clipPath2)"
         id="path4516" />
      <path
         stroke-dasharray="6,2"
         d="M335 303.0278 L330 315.0278 L335 312.0278 L340 315.0278 Z"
         clip-path="url(#clipPath2)"
         stroke="none"
         id="path4518" />
      <path
         fill="none"
         stroke-dasharray="6,2"
         d="M673.9639 385 L534.0361 385"
         clip-path="url(#clipPath2)"
         id="path4520" />
      <path
         stroke-dasharray="6,2"
         d="M526.0361 385 L538.0361 390 L535.0361 385 L538.0361 380 Z"
         clip-path="url(#clipPath2)"
         stroke="none"
         id="path4522" />
      <path
         fill="none"
         stroke-dasharray="6,2"
         d="M720 403.0464 L720 593 L340 593 L340 471.0317"
         clip-path="url(#clipPath2)"
         id="path4524" />
      <path
         stroke-dasharray="6,2"
         d="M340 463.0317 L335 475.0317 L340 472.0317 L345 475.0317 Z"
         clip-path="url(#clipPath2)"
         stroke="none"
         id="path4526" />
      <path
         fill="none"
         stroke-dasharray="6,2"
         d="M720 356.9561 L720 177 L340 177 L340 248.9609"
         clip-path="url(#clipPath2)"
         id="path4528" />
      <path
         stroke-dasharray="6,2"
         d="M340 256.9609 L345 244.9609 L340 247.9609 L335 244.9609 Z"
         clip-path="url(#clipPath2)"
         stroke="none"
         id="path4530" />
      <path
         fill="none"
         stroke-dasharray="6,2"
         d="M350 256.9658 L350 187 L615 187 L615 188.9609"
         clip-path="url(#clipPath2)"
         id="path4532" />
      <path
         stroke-dasharray="6,2"
         d="M615 196.9609 L620 184.9609 L615 187.9609 L610 184.9609 Z"
         clip-path="url(#clipPath2)"
         stroke="none"
         id="path4534" />
      <path
         fill="none"
         stroke-dasharray="6,2"
         d="M386.042 75 L730 75 L730 348.9656"
         clip-path="url(#clipPath2)"
         id="path4536" />
      <path
         stroke-dasharray="6,2"
         d="M730 356.9656 L735 344.9656 L730 347.9656 L725 344.9656 Z"
         clip-path="url(#clipPath2)"
         stroke="none"
         id="path4538" />
      <path
         fill="none"
         stroke-dasharray="6,2"
         d="M293.9668 85 L260 85 L260 435 L285.9668 435"
         clip-path="url(#clipPath2)"
         id="path4540" />
      <path
         stroke-dasharray="6,2"
         d="M293.9668 435 L281.9668 430 L284.9668 435 L281.9668 440 Z"
         clip-path="url(#clipPath2)"
         stroke="none"
         id="path4542" />
      <path
         fill="none"
         stroke-dasharray="6,2"
         d="M386.0435 85 L475 85 L475 248.958"
         clip-path="url(#clipPath2)"
         id="path4544" />
      <path
         stroke-dasharray="6,2"
         d="M475 256.958 L480 244.958 L475 247.958 L470 244.958 Z"
         clip-path="url(#clipPath2)"
         stroke="none"
         id="path4546" />
      <path
         fill="none"
         stroke-dasharray="6,2"
         d="M340 56.9688 L340 25 L565.9714 25"
         clip-path="url(#clipPath2)"
         id="path4548" />
      <path
         stroke-dasharray="6,2"
         d="M573.9714 25 L561.9714 20 L564.9714 25 L561.9714 30 Z"
         clip-path="url(#clipPath2)"
         stroke="none"
         id="path4550" />
      <path
         fill="none"
         stroke-dasharray="6,2"
         d="M330 103.0376 L330 248.9624"
         clip-path="url(#clipPath2)"
         id="path4552" />
      <path
         stroke-dasharray="6,2"
         d="M330 256.9624 L335 244.9624 L330 247.9624 L325 244.9624 Z"
         clip-path="url(#clipPath2)"
         stroke="none"
         id="path4554" />
      <path
         fill="none"
         d="M226.0332 445 L285.9668 445"
         clip-path="url(#clipPath2)"
         id="path4556" />
      <path
         d="M293.9668 445 L281.9668 440 L284.9668 445 L281.9668 450 Z"
         clip-path="url(#clipPath2)"
         stroke="none"
         id="path4558" />
      <path
         fill="none"
         d="M170 416.9509 L170 15 L565.9507 15"
         clip-path="url(#clipPath2)"
         id="path4560" />
      <path
         d="M573.9507 15 L561.9507 10 L564.9507 15 L561.9507 20 Z"
         clip-path="url(#clipPath2)"
         stroke="none"
         id="path4562" />
      <path
         fill="none"
         d="M190 416.9666 L190 280 L285.9746 280"
         clip-path="url(#clipPath2)"
         id="path4564" />
      <path
         d="M293.9746 280 L281.9746 275 L284.9746 280 L281.9746 285 Z"
         clip-path="url(#clipPath2)"
         stroke="none"
         id="path4566" />
      <path
         fill="none"
         stroke-dasharray="6,2"
         d="M180 416.9583 L180 75 L285.9722 75"
         clip-path="url(#clipPath2)"
         id="path4568" />
      <path
         stroke-dasharray="6,2"
         d="M293.9722 75 L281.9722 70 L284.9722 75 L281.9722 80 Z"
         clip-path="url(#clipPath2)"
         stroke="none"
         id="path4570" />
      <path
         fill="none"
         stroke-dasharray="6,2"
         d="M170 463.0342 L170 603 L730 603 L730 411.0488"
         clip-path="url(#clipPath2)"
         id="path4572" />
      <path
         stroke-dasharray="6,2"
         d="M730 403.0488 L725 415.0488 L730 412.0488 L735 415.0488 Z"
         clip-path="url(#clipPath2)"
         stroke="none"
         id="path4574" />
      <path
         fill="none"
         stroke-dasharray="6,2"
         d="M180 463.0474 L180 560 L425.969 560"
         clip-path="url(#clipPath2)"
         id="path4576" />
      <path
         stroke-dasharray="6,2"
         d="M433.969 560 L421.969 555 L424.969 560 L421.969 565 Z"
         clip-path="url(#clipPath2)"
         stroke="none"
         id="path4578" />
      <path
         fill="none"
         stroke-dasharray="6,2"
         d="M190 463.0371 L190 501 L480 501 L480 411.0479"
         clip-path="url(#clipPath2)"
         id="path4580" />
      <path
         stroke-dasharray="6,2"
         d="M480 403.0479 L475 415.0479 L480 412.0479 L485 415.0479 Z"
         clip-path="url(#clipPath2)"
         stroke="none"
         id="path4582" />
      <path
         fill="none"
         stroke-dasharray="6,2"
         d="M133.9531 440 L97.9805 440"
         clip-path="url(#clipPath2)"
         id="path4584" />
      <path
         stroke-dasharray="6,2"
         d="M89.9805 440 L101.9805 445 L98.9805 440 L101.9805 435 Z"
         clip-path="url(#clipPath2)"
         stroke="none"
         id="path4586" />
    </g>
  </g>
</svg>
