<?xml version="1.0" encoding="UTF-8" standalone="no"?>
<svg width="10cm" height="15cm" viewBox="6 4 10 15">
  <polygon style="fill: #ffffff" points="6.95,11.4 7.95,10.4 8.95,11.4 7.95,12.4 "/>
  <polygon style="fill: none; fill-opacity:0; stroke-width: 0.1; stroke: #000000" points="6.95,11.4 7.95,10.4 8.95,11.4 7.95,12.4 "/>
  <ellipse style="fill: #000000" cx="8" cy="5.4" rx="0.5" ry="0.5"/>
  <line style="fill: none; fill-opacity:0; stroke-width: 0.1; stroke: #000000" x1="7.95944" y1="9.55005" x2="8" y2="5.9"/>
  <polygon style="fill: #000000" points="7.70946,9.54727 7.95056,10.35 8.20943,9.55283 "/>
  <rect style="fill: #ffffff" x="12.25" y="10.45" width="4" height="1.8" rx="0.5" ry="0.5"/>
  <rect style="fill: none; fill-opacity:0; stroke-width: 0.1; stroke: #000000" x="12.25" y="10.45" width="4" height="1.8" rx="0.5" ry="0.5"/>
  <text style="fill: #000000; text-anchor:middle; font-size: 1" x="14.25" y="11.7"></text>
  <line style="fill: none; fill-opacity:0; stroke-width: 0.1; stroke: #000000" x1="11.4001" y1="11.3629" x2="8.95" y2="11.4"/>
  <polygon style="fill: #000000" points="11.4039,11.6128 12.2,11.3508 11.3963,11.1129 "/>
  <ellipse style="fill: #ffffff" cx="8" cy="18.3" rx="0.75" ry="0.75"/>
  <ellipse style="fill: none; fill-opacity:0; stroke-width: 0.1; stroke: #000000" cx="8" cy="18.3" rx="0.75" ry="0.75"/>
  <ellipse style="fill: #000000" cx="8" cy="18.3" rx="0.5" ry="0.5"/>
  <line style="fill: none; fill-opacity:0; stroke-width: 0.1; stroke: #000000" x1="7.99175" y1="16.7" x2="7.95" y2="12.4"/>
  <polygon style="fill: #000000" points="7.74176,16.7025 7.99951,17.5 8.24174,16.6976 "/>
</svg>
