<?xml version="1.0" encoding="UTF-8" standalone="no"?>
<svg
   xmlns:dc="http://purl.org/dc/elements/1.1/"
   xmlns:cc="http://web.resource.org/cc/"
   xmlns:rdf="http://www.w3.org/1999/02/22-rdf-syntax-ns#"
   xmlns:svg="http://www.w3.org/2000/svg"
   xmlns="http://www.w3.org/2000/svg"
   xmlns:sodipodi="http://sodipodi.sourceforge.net/DTD/sodipodi-0.dtd"
   xmlns:inkscape="http://www.inkscape.org/namespaces/inkscape"
   fill-opacity="1"
   color-rendering="auto"
   color-interpolation="auto"
   stroke="black"
   text-rendering="auto"
   stroke-linecap="square"
   width="721"
   stroke-miterlimit="10"
   stroke-opacity="1"
   shape-rendering="auto"
   fill="black"
   stroke-dasharray="none"
   font-weight="normal"
   stroke-width="1"
   height="311"
   font-family="'Dialog'"
   font-style="normal"
   stroke-linejoin="miter"
   font-size="12"
   stroke-dashoffset="0"
   image-rendering="auto"
   id="svg2"
   sodipodi:version="0.32"
   inkscape:version="0.45.1"
   sodipodi:docname="exemplo_reparo_plano.svg"
   inkscape:output_extension="org.inkscape.output.svg.inkscape"
   sodipodi:docbase="C:\Users\david\Desktop\monografia\img">
  <metadata
     id="metadata173">
    <rdf:RDF>
      <cc:Work
         rdf:about="">
        <dc:format>image/svg+xml</dc:format>
        <dc:type
           rdf:resource="http://purl.org/dc/dcmitype/StillImage" />
      </cc:Work>
    </rdf:RDF>
  </metadata>
  <sodipodi:namedview
     inkscape:window-height="575"
     inkscape:window-width="802"
     inkscape:pageshadow="2"
     inkscape:pageopacity="0.0"
     guidetolerance="10.0"
     gridtolerance="10.0"
     objecttolerance="10.0"
     borderopacity="1.0"
     bordercolor="#666666"
     pagecolor="#ffffff"
     id="base"
     inkscape:zoom="3.9778086"
     inkscape:cx="151.77061"
     inkscape:cy="53.245091"
     inkscape:window-x="207"
     inkscape:window-y="207"
     inkscape:current-layer="svg2" />
<!--Generated by ySVG-->  <defs
     id="genericDefs" />
  <g
     id="g5">
    <defs
       id="defs1">
      <clipPath
         clipPathUnits="userSpaceOnUse"
         id="clipPath1">
        <path
           d="M0 0 L721 0 L721 311 L0 311 L0 0 Z"
           id="path9" />
      </clipPath>
      <clipPath
         clipPathUnits="userSpaceOnUse"
         id="clipPath2">
        <path
           d="M-1605 115 L-884 115 L-884 426 L-1605 426 L-1605 115 Z"
           id="path12" />
      </clipPath>
    </defs>
    <g
       fill="white"
       transform="translate(1605,-115)"
       stroke="white"
       id="g14">
      <rect
         x="-1605"
         y="115"
         clip-path="url(#clipPath2)"
         width="721"
         height="311"
         stroke="none"
         id="rect16" />
    </g>
    <g
       fill="white"
       stroke="white"
       id="g18">
      <rect
         x="8.9219"
         y="288.4062"
         clip-path="url(#clipPath1)"
         width="100.6484"
         height="15.125"
         stroke="none"
         id="rect20" />
    </g>
    <g
       stroke-width="3"
       stroke-miterlimit="1.45"
       transform="matrix(1,0,0,1,1605,-115)"
       stroke-linecap="butt"
       id="g24">
      <rect
         x="-1589.5665"
         y="130.478"
         clip-path="url(#clipPath2)"
         fill="none"
         width="690"
         rx="4"
         ry="4"
         height="279.5391"
         id="rect26" />
    </g>
    <g
       fill="rgb(255,204,0)"
       transform="matrix(1,0,0,1,1605,-115)"
       stroke="rgb(255,204,0)"
       id="g28">
      <rect
         x="-1359.8794"
         y="209.8875"
         clip-path="url(#clipPath2)"
         width="30"
         rx="4"
         ry="4"
         height="30"
         stroke="none"
         id="rect30" />
    </g>
    <g
       font-size="13"
       font-family="sans-serif"
       transform="matrix(1,0,0,1,1605,-115)"
       id="g32">
      <text
         xml:space="preserve"
         x="-1349.3794"
         y="229.9942"
         clip-path="url(#clipPath2)"
         stroke="none"
         id="text34">E</text>
    </g>
    <g
       stroke-miterlimit="1.45"
       transform="matrix(1,0,0,1,1605,-115)"
       stroke-linecap="butt"
       id="g36">
      <rect
         x="-1359.8794"
         y="209.8875"
         clip-path="url(#clipPath2)"
         fill="none"
         width="30"
         rx="4"
         ry="4"
         height="30"
         id="rect38" />
    </g>
    <g
       fill="rgb(255,204,0)"
       transform="matrix(1,0,0,1,1605,-115)"
       stroke="rgb(255,204,0)"
       id="g40">
      <rect
         x="-1259.8794"
         y="209.8875"
         clip-path="url(#clipPath2)"
         width="30"
         rx="4"
         ry="4"
         height="30"
         stroke="none"
         id="rect42" />
    </g>
    <g
       stroke-miterlimit="1.45"
       transform="matrix(1,0,0,1,1605,-115)"
       stroke-linecap="butt"
       id="g44">
      <rect
         x="-1259.8794"
         y="209.8875"
         clip-path="url(#clipPath2)"
         fill="none"
         width="30"
         rx="4"
         ry="4"
         height="30"
         id="rect46" />
    </g>
    <g
       fill="rgb(255,204,0)"
       transform="matrix(1,0,0,1,1605,-115)"
       stroke="rgb(255,204,0)"
       id="g48">
      <rect
         x="-1459.8794"
         y="209.8875"
         clip-path="url(#clipPath2)"
         width="30"
         rx="4"
         ry="4"
         height="30"
         stroke="none"
         id="rect50" />
    </g>
    <g
       stroke-miterlimit="1.45"
       transform="matrix(1,0,0,1,1605,-115)"
       stroke-linecap="butt"
       id="g52">
      <rect
         x="-1459.8794"
         y="209.8875"
         clip-path="url(#clipPath2)"
         fill="none"
         width="30"
         rx="4"
         ry="4"
         height="30"
         id="rect54" />
    </g>
    <g
       fill="rgb(255,204,0)"
       transform="matrix(1,0,0,1,1605,-115)"
       stroke="rgb(255,204,0)"
       id="g56">
      <rect
         x="-1059.8794"
         y="209.8875"
         clip-path="url(#clipPath2)"
         width="30"
         rx="4"
         ry="4"
         height="30"
         stroke="none"
         id="rect58" />
    </g>
    <g
       stroke-miterlimit="1.45"
       transform="matrix(1,0,0,1,1605,-115)"
       stroke-linecap="butt"
       id="g60">
      <rect
         x="-1059.8794"
         y="209.8875"
         clip-path="url(#clipPath2)"
         fill="none"
         width="30"
         rx="4"
         ry="4"
         height="30"
         id="rect62" />
    </g>
    <g
       fill="rgb(255,204,0)"
       transform="matrix(1,0,0,1,1605,-115)"
       stroke="rgb(255,204,0)"
       id="g64">
      <rect
         x="-959.8794"
         y="209.8875"
         clip-path="url(#clipPath2)"
         width="30"
         rx="4"
         ry="4"
         height="30"
         stroke="none"
         id="rect66" />
    </g>
    <g
       font-size="13"
       font-family="sans-serif"
       transform="matrix(1,0,0,1,1605,-115)"
       id="g68">
      <text
         xml:space="preserve"
         x="-949.8795"
         y="229.9942"
         clip-path="url(#clipPath2)"
         stroke="none"
         id="text70">G</text>
    </g>
    <g
       stroke-miterlimit="1.45"
       transform="matrix(1,0,0,1,1605,-115)"
       stroke-linecap="butt"
       id="g72">
      <rect
         x="-959.8794"
         y="209.8875"
         clip-path="url(#clipPath2)"
         fill="none"
         width="30"
         rx="4"
         ry="4"
         height="30"
         id="rect74" />
    </g>
    <g
       fill="rgb(255,204,0)"
       transform="matrix(1,0,0,1,1605,-115)"
       stroke="rgb(255,204,0)"
       id="g76">
      <rect
         x="-1159.8794"
         y="209.8875"
         clip-path="url(#clipPath2)"
         width="30"
         rx="4"
         ry="4"
         height="30"
         stroke="none"
         id="rect78" />
    </g>
    <g
       stroke-miterlimit="1.45"
       transform="matrix(1,0,0,1,1605,-115)"
       stroke-linecap="butt"
       id="g80">
      <rect
         x="-1159.8794"
         y="209.8875"
         clip-path="url(#clipPath2)"
         fill="none"
         width="30"
         rx="4"
         ry="4"
         height="30"
         id="rect82" />
    </g>
    <g
       fill="rgb(255,204,0)"
       transform="matrix(1,0,0,1,1605,-115)"
       stroke="rgb(255,204,0)"
       id="g84">
      <rect
         x="-1459.8794"
         y="359.8875"
         clip-path="url(#clipPath2)"
         width="30"
         rx="4"
         ry="4"
         height="30"
         stroke="none"
         id="rect86" />
    </g>
    <g
       font-size="13"
       font-family="sans-serif"
       transform="matrix(1,0,0,1,1605,-115)"
       id="g88">
      <text
         xml:space="preserve"
         x="-1449.8794"
         y="379.9942"
         clip-path="url(#clipPath2)"
         stroke="none"
         id="text90">O</text>
    </g>
    <g
       stroke-miterlimit="1.45"
       transform="matrix(1,0,0,1,1605,-115)"
       stroke-linecap="butt"
       id="g92">
      <rect
         x="-1459.8794"
         y="359.8875"
         clip-path="url(#clipPath2)"
         fill="none"
         width="30"
         rx="4"
         ry="4"
         height="30"
         id="rect94" />
    </g>
    <g
       fill="rgb(255,204,0)"
       transform="matrix(1,0,0,1,1605,-115)"
       stroke="rgb(255,204,0)"
       id="g96">
      <rect
         x="-1559.8794"
         y="209.8875"
         clip-path="url(#clipPath2)"
         width="30"
         rx="4"
         ry="4"
         height="30"
         stroke="none"
         id="rect98" />
    </g>
    <g
       font-size="13"
       font-family="sans-serif"
       transform="matrix(1,0,0,1,1605,-115)"
       id="g100">
      <text
         xml:space="preserve"
         x="-1549.3794"
         y="229.9942"
         clip-path="url(#clipPath2)"
         stroke="none"
         id="text102">S</text>
    </g>
    <g
       stroke-miterlimit="1.45"
       transform="matrix(1,0,0,1,1605,-115)"
       stroke-linecap="butt"
       id="g104">
      <rect
         x="-1559.8794"
         y="209.8875"
         clip-path="url(#clipPath2)"
         fill="none"
         width="30"
         rx="4"
         ry="4"
         height="30"
         id="rect106" />
    </g>
    <g
       fill="rgb(255,204,0)"
       transform="matrix(1,0,0,1,1605,-115)"
       stroke="rgb(255,204,0)"
       id="g108">
      <rect
         x="-1409.8794"
         y="284.8875"
         clip-path="url(#clipPath2)"
         width="30"
         rx="4"
         ry="4"
         height="30"
         stroke="none"
         id="rect110" />
    </g>
    <g
       stroke-miterlimit="1.45"
       transform="matrix(1,0,0,1,1605,-115)"
       stroke-linecap="butt"
       id="g112">
      <rect
         x="-1409.8794"
         y="284.8875"
         clip-path="url(#clipPath2)"
         fill="none"
         width="30"
         rx="4"
         ry="4"
         height="30"
         id="rect114" />
      <text
         stroke-linecap="square"
         x="-1282"
         y="187.7139"
         clip-path="url(#clipPath2)"
         font-family="sans-serif"
         stroke="none"
         xml:space="preserve"
         stroke-miterlimit="10"
         id="text116">plano original</text>
      <text
         stroke-linecap="square"
         x="-1362.5"
         y="335.7139"
         clip-path="url(#clipPath2)"
         font-family="sans-serif"
         stroke="none"
         xml:space="preserve"
         stroke-miterlimit="10"
         id="text118">reparo</text>
      <text
         stroke-linecap="square"
         x="-1160"
         y="155.7139"
         clip-path="url(#clipPath2)"
         font-family="sans-serif"
         stroke="none"
         xml:space="preserve"
         stroke-miterlimit="10"
         id="text120">plano</text>
      <path
         fill="none"
         stroke-width="3"
         d="M-1429.8892 224.8875 L-1369.8641 224.8875"
         clip-path="url(#clipPath2)"
         id="path122" />
      <path
         stroke-width="3"
         d="M-1359.8641 224.8875 L-1374.8641 218.6375 L-1371.1141 224.8875 L-1374.8641 231.1375 Z"
         clip-path="url(#clipPath2)"
         stroke="none"
         id="path124" />
      <path
         fill="none"
         stroke-width="3"
         d="M-1329.8892 224.8875 L-1269.8641 224.8875"
         clip-path="url(#clipPath2)"
         id="path126" />
      <path
         stroke-width="3"
         d="M-1259.8641 224.8875 L-1274.8641 218.6375 L-1271.1141 224.8875 L-1274.8641 231.1375 Z"
         clip-path="url(#clipPath2)"
         stroke="none"
         id="path128" />
      <path
         fill="none"
         stroke-width="3"
         d="M-1229.8892 224.8875 L-1169.8641 224.8875"
         clip-path="url(#clipPath2)"
         id="path130" />
      <path
         stroke-width="3"
         d="M-1159.8641 224.8875 L-1174.8641 218.6375 L-1171.1141 224.8875 L-1174.8641 231.1375 Z"
         clip-path="url(#clipPath2)"
         stroke="none"
         id="path132" />
      <path
         fill="none"
         stroke-width="3"
         d="M-1129.8892 224.8875 L-1069.8641 224.8875"
         clip-path="url(#clipPath2)"
         id="path134" />
      <path
         stroke-width="3"
         d="M-1059.8641 224.8875 L-1074.8641 218.6375 L-1071.1141 224.8875 L-1074.8641 231.1375 Z"
         clip-path="url(#clipPath2)"
         stroke="none"
         id="path136" />
      <path
         fill="none"
         stroke-width="3"
         d="M-1029.8892 224.8875 L-969.8641 224.8875"
         clip-path="url(#clipPath2)"
         id="path138" />
      <path
         stroke-width="3"
         d="M-959.8641 224.8875 L-974.8641 218.6375 L-971.1141 224.8875 L-974.8641 231.1375 Z"
         clip-path="url(#clipPath2)"
         stroke="none"
         id="path140" />
      <path
         fill="none"
         stroke-width="3"
         d="M-1529.8892 224.8875 L-1469.8641 224.8875"
         clip-path="url(#clipPath2)"
         id="path142" />
      <path
         stroke-width="3"
         d="M-1459.8641 224.8875 L-1474.8641 218.6375 L-1471.1141 224.8875 L-1474.8641 231.1375 Z"
         clip-path="url(#clipPath2)"
         stroke="none"
         id="path144" />
      <path
         fill="none"
         stroke-width="3"
         d="M-1434.894 359.9095 L-1410.4105 323.1842"
         clip-path="url(#clipPath2)"
         id="path146" />
      <path
         stroke-width="3"
         d="M-1404.8635 314.8637 L-1418.3844 323.8776 L-1411.1039 324.2243 L-1407.9838 330.8114 Z"
         clip-path="url(#clipPath2)"
         stroke="none"
         id="path148" />
      <path
         fill="none"
         stroke-width="3"
         d="M-1384.894 284.9095 L-1360.4105 248.1842"
         clip-path="url(#clipPath2)"
         id="path150" />
      <path
         stroke-width="3"
         d="M-1354.8635 239.8637 L-1368.3844 248.8776 L-1361.1039 249.2243 L-1357.9838 255.8114 Z"
         clip-path="url(#clipPath2)"
         stroke="none"
         id="path152" />
      <path
         fill="none"
         stroke-width="2"
         stroke-dasharray="12,4"
         d="M-1342.488 159.8716 L-947.7779 159.4023"
         clip-path="url(#clipPath2)"
         id="path154" />
      <path
         stroke-width="2"
         stroke-dasharray="12,4"
         d="M-1354.863 159.8864 L-1341.355 166.6203 L-1341.3711 153.1203 Z"
         clip-path="url(#clipPath2)"
         stroke="none"
         id="path156" />
      <path
         stroke-width="2"
         stroke-dasharray="12,4"
         d="M-935.4029 159.3876 L-948.9109 152.6536 L-948.8948 166.1536 Z"
         clip-path="url(#clipPath2)"
         stroke="none"
         id="path158" />
      <path
         fill="none"
         stroke-width="2"
         stroke-dasharray="12,4"
         d="M-1542.5315 191.8875 L-948.2779 191.8875"
         clip-path="url(#clipPath2)"
         id="path160" />
      <path
         stroke-width="2"
         stroke-dasharray="12,4"
         d="M-1554.9065 191.8875 L-1541.4065 198.6375 L-1541.4065 185.1375 Z"
         clip-path="url(#clipPath2)"
         stroke="none"
         id="path162" />
      <path
         stroke-width="2"
         stroke-dasharray="12,4"
         d="M-935.9029 191.8875 L-949.4029 185.1375 L-949.4029 198.6375 Z"
         clip-path="url(#clipPath2)"
         stroke="none"
         id="path164" />
      <path
         fill="none"
         stroke-width="2"
         stroke-dasharray="12,4"
         d="M-1411.1965 390.9565 L-1324.1809 255.3412"
         clip-path="url(#clipPath2)"
         id="path166" />
      <path
         stroke-width="2"
         stroke-dasharray="12,4"
         d="M-1417.8794 401.3719 L-1404.9078 393.6549 L-1416.2701 386.3645 Z"
         clip-path="url(#clipPath2)"
         stroke="none"
         id="path168" />
      <path
         stroke-width="2"
         stroke-dasharray="12,4"
         d="M-1317.498 244.9259 L-1330.4696 252.6429 L-1319.1073 259.9333 Z"
         clip-path="url(#clipPath2)"
         stroke="none"
         id="path170" />
    </g>
  </g>
</svg>
