<?xml version="1.0" encoding="UTF-8" standalone="no"?>
<svg
   xmlns:dc="http://purl.org/dc/elements/1.1/"
   xmlns:cc="http://web.resource.org/cc/"
   xmlns:rdf="http://www.w3.org/1999/02/22-rdf-syntax-ns#"
   xmlns:svg="http://www.w3.org/2000/svg"
   xmlns="http://www.w3.org/2000/svg"
   xmlns:sodipodi="http://sodipodi.sourceforge.net/DTD/sodipodi-0.dtd"
   xmlns:inkscape="http://www.inkscape.org/namespaces/inkscape"
   fill-opacity="1"
   color-rendering="auto"
   color-interpolation="auto"
   stroke="black"
   text-rendering="auto"
   stroke-linecap="square"
   width="344"
   stroke-miterlimit="10"
   stroke-opacity="1"
   shape-rendering="auto"
   fill="black"
   stroke-dasharray="none"
   font-weight="normal"
   stroke-width="1"
   height="305"
   font-family="'Dialog'"
   font-style="normal"
   stroke-linejoin="miter"
   font-size="12"
   stroke-dashoffset="0"
   image-rendering="auto"
   id="svg2861"
   sodipodi:version="0.32"
   inkscape:version="0.45.1"
   sodipodi:docname="grafo_transicao_estado.svg"
   sodipodi:docbase="/home/david/Desktop/monografia/img"
   inkscape:output_extension="org.inkscape.output.svg.inkscape">
  <metadata
     id="metadata3002">
    <rdf:RDF>
      <cc:Work
         rdf:about="">
        <dc:format>image/svg+xml</dc:format>
        <dc:type
           rdf:resource="http://purl.org/dc/dcmitype/StillImage" />
      </cc:Work>
    </rdf:RDF>
  </metadata>
  <sodipodi:namedview
     inkscape:window-height="627"
     inkscape:window-width="910"
     inkscape:pageshadow="2"
     inkscape:pageopacity="0.0"
     guidetolerance="10.0"
     gridtolerance="10.0"
     objecttolerance="10.0"
     borderopacity="1.0"
     bordercolor="#666666"
     pagecolor="#ffffff"
     id="base"
     inkscape:zoom="1.3344262"
     inkscape:cx="172"
     inkscape:cy="152.5"
     inkscape:window-x="351"
     inkscape:window-y="367"
     inkscape:current-layer="svg2861" />
<!--Generated by ySVG-->  <defs
     id="genericDefs" />
  <g
     id="g2864">
    <defs
       id="defs1">
      <clipPath
         clipPathUnits="userSpaceOnUse"
         id="clipPath1">
        <path
           d="M0 0 L344 0 L344 305 L0 305 L0 0 Z"
           id="path2868" />
      </clipPath>
      <clipPath
         clipPathUnits="userSpaceOnUse"
         id="clipPath2">
        <path
           d="M-15 -15 L329 -15 L329 290 L-15 290 L-15 -15 Z"
           id="path2871" />
      </clipPath>
    </defs>
    <g
       fill="white"
       transform="translate(15,15)"
       stroke="white"
       id="g2873">
      <rect
         x="-15"
         y="-15"
         clip-path="url(#clipPath2)"
         width="344"
         height="305"
         stroke="none"
         id="rect2875" />
    </g>
    <g
       fill="white"
       stroke="white"
       id="g2877">
      <rect
         x="9.125"
         y="281.75"
         clip-path="url(#clipPath1)"
         width="104.9043"
         height="15.5625"
         stroke="none"
         id="rect2879" />
    </g>
    <g
       font-size="15"
       font-family="sans-serif"
       transform="matrix(1,0,0,1,15,15)"
       id="g2883">
      <text
         xml:space="preserve"
         x="51.5"
         y="105.5261"
         clip-path="url(#clipPath2)"
         stroke="none"
         id="text2885">s4</text>
    </g>
    <g
       stroke-width="3"
       stroke-miterlimit="1.45"
       transform="matrix(1,0,0,1,15,15)"
       stroke-linecap="butt"
       id="g2887">
      <rect
         x="45"
         y="85"
         clip-path="url(#clipPath2)"
         fill="none"
         width="30"
         rx="4"
         ry="4"
         height="30"
         id="rect2889" />
    </g>
    <g
       font-size="15"
       font-family="sans-serif"
       transform="matrix(1,0,0,1,15,15)"
       id="g2891">
      <text
         xml:space="preserve"
         x="276.5"
         y="105.5261"
         clip-path="url(#clipPath2)"
         stroke="none"
         id="text2893">s5</text>
    </g>
    <g
       stroke-width="3"
       stroke-miterlimit="1.45"
       transform="matrix(1,0,0,1,15,15)"
       stroke-linecap="butt"
       id="g2895">
      <rect
         x="270"
         y="85"
         clip-path="url(#clipPath2)"
         fill="none"
         width="30"
         rx="4"
         ry="4"
         height="30"
         id="rect2897" />
    </g>
    <g
       font-size="15"
       font-family="sans-serif"
       transform="matrix(1,0,0,1,15,15)"
       id="g2899">
      <text
         xml:space="preserve"
         x="51.5"
         y="200.5261"
         clip-path="url(#clipPath2)"
         stroke="none"
         id="text2901">s2</text>
    </g>
    <g
       stroke-width="3"
       stroke-miterlimit="1.45"
       transform="matrix(1,0,0,1,15,15)"
       stroke-linecap="butt"
       id="g2903">
      <rect
         x="45"
         y="180"
         clip-path="url(#clipPath2)"
         fill="none"
         width="30"
         rx="4"
         ry="4"
         height="30"
         id="rect2905" />
    </g>
    <g
       font-size="15"
       font-family="sans-serif"
       transform="matrix(1,0,0,1,15,15)"
       id="g2907">
      <text
         xml:space="preserve"
         x="156.5"
         y="265.5261"
         clip-path="url(#clipPath2)"
         stroke="none"
         id="text2909">s1</text>
    </g>
    <g
       stroke-width="3"
       stroke-miterlimit="1.45"
       transform="matrix(1,0,0,1,15,15)"
       stroke-linecap="butt"
       id="g2911">
      <rect
         x="150"
         y="245"
         clip-path="url(#clipPath2)"
         fill="none"
         width="30"
         rx="4"
         ry="4"
         height="30"
         id="rect2913" />
    </g>
    <g
       font-size="15"
       font-family="sans-serif"
       transform="matrix(1,0,0,1,15,15)"
       id="g2915">
      <text
         xml:space="preserve"
         x="276.5"
         y="200.5261"
         clip-path="url(#clipPath2)"
         stroke="none"
         id="text2917">s3</text>
    </g>
    <g
       stroke-width="3"
       stroke-miterlimit="1.45"
       transform="matrix(1,0,0,1,15,15)"
       stroke-linecap="butt"
       id="g2919">
      <rect
         x="270"
         y="180"
         clip-path="url(#clipPath2)"
         fill="none"
         width="30"
         rx="4"
         ry="4"
         height="30"
         id="rect2921" />
    </g>
    <g
       font-size="15"
       font-family="sans-serif"
       transform="matrix(1,0,0,1,15,15)"
       id="g2923">
      <text
         xml:space="preserve"
         x="111.5"
         y="20.5261"
         clip-path="url(#clipPath2)"
         stroke="none"
         id="text2925">s6</text>
    </g>
    <g
       stroke-width="3"
       stroke-miterlimit="1.45"
       transform="matrix(1,0,0,1,15,15)"
       stroke-linecap="butt"
       id="g2927">
      <rect
         x="105"
         y="0"
         clip-path="url(#clipPath2)"
         fill="none"
         width="30"
         rx="4"
         ry="4"
         height="30"
         id="rect2929" />
    </g>
    <g
       font-size="15"
       font-family="sans-serif"
       transform="matrix(1,0,0,1,15,15)"
       id="g2931">
      <text
         xml:space="preserve"
         x="216.5"
         y="20.5261"
         clip-path="url(#clipPath2)"
         stroke="none"
         id="text2933">s7</text>
    </g>
    <g
       stroke-width="3"
       stroke-miterlimit="1.45"
       transform="matrix(1,0,0,1,15,15)"
       stroke-linecap="butt"
       id="g2935">
      <rect
         x="210"
         y="0"
         clip-path="url(#clipPath2)"
         fill="none"
         width="30"
         rx="4"
         ry="4"
         height="30"
         id="rect2937" />
      <path
         fill="none"
         d="M60 114.9829 L60 170.0359"
         clip-path="url(#clipPath2)"
         id="path2939" />
      <path
         d="M60 180.0359 L66.25 165.0359 L60 168.7859 L53.75 165.0359 Z"
         clip-path="url(#clipPath2)"
         stroke="none"
         id="path2941" />
      <text
         x="64"
         y="151.9209"
         clip-path="url(#clipPath2)"
         font-family="sans-serif"
         stroke="none"
         xml:space="preserve"
         id="text2943">{a5}</text>
      <path
         fill="none"
         d="M69.8181 114.9609 L149.6839 236.6611"
         clip-path="url(#clipPath2)"
         id="path2945" />
      <path
         d="M155.1704 245.0216 L152.1659 229.0518 L148.9981 235.6161 L141.7153 235.91 Z"
         clip-path="url(#clipPath2)"
         stroke="none"
         id="path2947" />
      <text
         x="122.3941"
         y="184.4209"
         clip-path="url(#clipPath2)"
         font-family="sans-serif"
         stroke="none"
         xml:space="preserve"
         id="text2949">{e1}</text>
      <path
         fill="none"
         d="M74.9963 204.2834 L141.4894 245.4458"
         clip-path="url(#clipPath2)"
         id="path2951" />
      <path
         d="M149.9921 250.7094 L140.5278 237.4999 L140.4266 244.7879 L133.9484 248.1282 Z"
         clip-path="url(#clipPath2)"
         stroke="none"
         id="path2953" />
      <text
         x="101"
         y="251.2595"
         clip-path="url(#clipPath2)"
         font-family="sans-serif"
         stroke="none"
         xml:space="preserve"
         id="text2955">{a3}</text>
      <path
         fill="none"
         d="M269.9762 100 L84.9946 100"
         clip-path="url(#clipPath2)"
         id="path2957" />
      <path
         d="M74.9946 100 L89.9946 106.25 L86.2446 100 L89.9946 93.75 Z"
         clip-path="url(#clipPath2)"
         stroke="none"
         id="path2959" />
      <text
         x="161"
         y="115.4023"
         clip-path="url(#clipPath2)"
         font-family="sans-serif"
         stroke="none"
         xml:space="preserve"
         id="text2961">{a6}</text>
      <path
         fill="none"
         d="M179.9707 251.8909 L261.2065 207.8881"
         clip-path="url(#clipPath2)"
         id="path2963" />
      <path
         d="M269.9995 203.1253 L253.8333 204.774 L260.1074 208.4835 L259.7868 215.7651 Z"
         clip-path="url(#clipPath2)"
         stroke="none"
         id="path2965" />
      <text
         x="228.1334"
         y="241.3717"
         clip-path="url(#clipPath2)"
         font-family="sans-serif"
         stroke="none"
         xml:space="preserve"
         id="text2967">{a1, e4}</text>
      <path
         fill="none"
         d="M285 180.0171 L285 124.9641"
         clip-path="url(#clipPath2)"
         id="path2969" />
      <path
         d="M285 114.9641 L278.75 129.9641 L285 126.2141 L291.25 129.9641 Z"
         clip-path="url(#clipPath2)"
         stroke="none"
         id="path2971" />
      <text
         x="289"
         y="151.9209"
         clip-path="url(#clipPath2)"
         font-family="sans-serif"
         stroke="none"
         xml:space="preserve"
         id="text2973">{a4}</text>
      <path
         fill="none"
         d="M176.2207 245.0391 L267.7662 122.9784"
         clip-path="url(#clipPath2)"
         id="path2975" />
      <path
         d="M273.7662 114.9784 L259.7662 123.2284 L267.0162 123.9784 L269.7662 130.7284 Z"
         clip-path="url(#clipPath2)"
         stroke="none"
         id="path2977" />
      <text
         x="235.7361"
         y="184.4209"
         clip-path="url(#clipPath2)"
         font-family="sans-serif"
         stroke="none"
         xml:space="preserve"
         id="text2979">{a2}</text>
      <path
         fill="none"
         d="M134.9963 15 L200.014 15"
         clip-path="url(#clipPath2)"
         id="path2981" />
      <path
         d="M210.014 15 L195.014 8.75 L198.764 15 L195.014 21.25 Z"
         clip-path="url(#clipPath2)"
         stroke="none"
         id="path2983" />
      <text
         x="161"
         y="30.4023"
         clip-path="url(#clipPath2)"
         font-family="sans-serif"
         stroke="none"
         xml:space="preserve"
         id="text2985">{e2}</text>
      <path
         fill="none"
         d="M109.4092 30.0037 L76.358 76.8262"
         clip-path="url(#clipPath2)"
         id="path2987" />
      <path
         d="M70.5911 84.9959 L84.3474 76.3457 L77.0788 75.805 L74.1353 69.1371 Z"
         clip-path="url(#clipPath2)"
         stroke="none"
         id="path2989" />
      <text
         x="100.3398"
         y="61.9209"
         clip-path="url(#clipPath2)"
         font-family="sans-serif"
         stroke="none"
         xml:space="preserve"
         id="text2991">{a7, e3}</text>
      <path
         fill="none"
         d="M270.0344 101.5016 L249.7 104.775 L234.225 108.7937 L220.2 113.9 L207.625 120.0937 L196.5 127.375 L186.825 135.7437 L178.6 145.2 L171.825 155.7437 L166.5 167.375 L162.625 180.0937 L160.2 193.9 L159.225 208.7937 L159.7 224.775 L160.8634 235.0911 L160.8817 235.1894"
         clip-path="url(#clipPath2)"
         id="path2993" />
      <path
         d="M162.7098 245.0209 L166.1124 229.1312 L160.6532 233.9605 L153.823 231.4162 Z"
         clip-path="url(#clipPath2)"
         stroke="none"
         id="path2995" />
      <text
         x="159.729"
         y="194.9584"
         clip-path="url(#clipPath2)"
         font-family="sans-serif"
         stroke="none"
         xml:space="preserve"
         id="text2997"> {a6}</text>
      <path
         fill="none"
         stroke-width="1"
         d="M198.5 101.4483 L201.9531 105.7812 L203.75 110 L204.4531 114.5312 L204.0625 119.375 L202.6765 123"
         clip-path="url(#clipPath2)"
         id="path2999" />
    </g>
  </g>
</svg>
