<?xml version="1.0" encoding="UTF-8" standalone="no"?>
<svg
   xmlns:dc="http://purl.org/dc/elements/1.1/"
   xmlns:cc="http://web.resource.org/cc/"
   xmlns:rdf="http://www.w3.org/1999/02/22-rdf-syntax-ns#"
   xmlns:svg="http://www.w3.org/2000/svg"
   xmlns="http://www.w3.org/2000/svg"
   xmlns:sodipodi="http://sodipodi.sourceforge.net/DTD/sodipodi-0.dtd"
   xmlns:inkscape="http://www.inkscape.org/namespaces/inkscape"
   fill-opacity="1"
   color-rendering="auto"
   color-interpolation="auto"
   stroke="black"
   text-rendering="auto"
   stroke-linecap="square"
   width="1890"
   stroke-miterlimit="10"
   stroke-opacity="1"
   shape-rendering="auto"
   fill="black"
   stroke-dasharray="none"
   font-weight="normal"
   stroke-width="1"
   height="1134"
   font-family="'Dialog'"
   font-style="normal"
   stroke-linejoin="miter"
   font-size="12"
   stroke-dashoffset="0"
   image-rendering="auto"
   id="svg3824"
   sodipodi:version="0.32"
   inkscape:version="0.45.1"
   sodipodi:docname="heuristica.ps.svg"
   sodipodi:docbase="/home/david/Desktop/monografia/img"
   inkscape:output_extension="org.inkscape.output.svg.inkscape">
  <metadata
     id="metadata4347">
    <rdf:RDF>
      <cc:Work
         rdf:about="">
        <dc:format>image/svg+xml</dc:format>
        <dc:type
           rdf:resource="http://purl.org/dc/dcmitype/StillImage" />
      </cc:Work>
    </rdf:RDF>
  </metadata>
  <sodipodi:namedview
     inkscape:window-height="627"
     inkscape:window-width="910"
     inkscape:pageshadow="2"
     inkscape:pageopacity="0.0"
     guidetolerance="10.0"
     gridtolerance="10.0"
     objecttolerance="10.0"
     borderopacity="1.0"
     bordercolor="#666666"
     pagecolor="#ffffff"
     id="base"
     inkscape:zoom="0.35890653"
     inkscape:cx="945"
     inkscape:cy="567"
     inkscape:window-x="5"
     inkscape:window-y="143"
     inkscape:current-layer="svg3824" />
<!--Generated by ySVG-->  <defs
     id="genericDefs" />
  <g
     id="g3827">
    <defs
       id="defs1">
      <clipPath
         clipPathUnits="userSpaceOnUse"
         id="clipPath1">
        <path
           d="M0 0 L1890 0 L1890 1134 L0 1134 L0 0 Z"
           id="path3831" />
      </clipPath>
      <clipPath
         clipPathUnits="userSpaceOnUse"
         id="clipPath2">
        <path
           d="M-1645 -302 L245 -302 L245 832 L-1645 832 L-1645 -302 Z"
           id="path3834" />
      </clipPath>
      <clipPath
         clipPathUnits="userSpaceOnUse"
         id="clipPath3">
        <path
           d="M-2080.8691 535.2059 L-744.4374 -801.226 L57.4217 0.6331 L-1279.0101 1337.0649 L-2080.8691 535.2059 Z"
           id="path3837" />
      </clipPath>
      <clipPath
         clipPathUnits="userSpaceOnUse"
         id="clipPath4">
        <path
           d="M-1275.9512 -840.684 L60.4806 495.7478 L-741.3785 1297.6069 L-2077.8103 -38.8249 L-1275.9512 -840.684 Z"
           id="path3840" />
      </clipPath>
      <clipPath
         clipPathUnits="userSpaceOnUse"
         id="clipPath5">
        <path
           d="M-1755.0343 -147.8044 L106.2524 -475.9994 L303.1694 640.7726 L-1558.1172 968.9677 L-1755.0343 -147.8044 Z"
           id="path3843" />
      </clipPath>
      <clipPath
         clipPathUnits="userSpaceOnUse"
         id="clipPath6">
        <path
           d="M-1559.7103 -439.4566 L301.5764 -111.2615 L104.6593 1005.5105 L-1756.6273 677.3154 L-1559.7103 -439.4566 Z"
           id="path3846" />
      </clipPath>
    </defs>
    <g
       fill="white"
       transform="translate(1645,302)"
       stroke="white"
       id="g3848">
      <rect
         x="-1645"
         y="-302"
         clip-path="url(#clipPath2)"
         width="1890"
         height="1134"
         stroke="none"
         id="rect3850" />
    </g>
    <g
       fill="white"
       stroke="white"
       id="g3852">
      <rect
         x="9.125"
         y="1110.75"
         clip-path="url(#clipPath1)"
         width="104.9043"
         height="15.5625"
         stroke="none"
         id="rect3854" />
    </g>
    <g
       stroke-width="3"
       stroke-miterlimit="1.45"
       transform="matrix(1,0,0,1,1645,302)"
       stroke-linecap="butt"
       id="g3858">
      <rect
         x="-739.8836"
         y="584.1945"
         clip-path="url(#clipPath2)"
         fill="none"
         width="690"
         rx="4"
         ry="4"
         height="232.5391"
         id="rect3860" />
      <rect
         x="-739.2586"
         y="-286.743"
         clip-path="url(#clipPath2)"
         fill="none"
         width="690"
         rx="4"
         ry="4"
         height="232.5391"
         id="rect3862" />
      <rect
         x="-739.5086"
         y="292.007"
         clip-path="url(#clipPath2)"
         fill="none"
         width="690"
         rx="4"
         ry="4"
         height="232.5391"
         id="rect3864" />
      <rect
         x="-737.0867"
         y="5.0109"
         clip-path="url(#clipPath2)"
         fill="none"
         width="690"
         rx="4"
         ry="4"
         height="232.5391"
         id="rect3866" />
    </g>
    <g
       fill="rgb(255,204,0)"
       transform="matrix(1,0,0,1,1645,302)"
       stroke="rgb(255,204,0)"
       id="g3868">
      <rect
         x="-1399.8794"
         y="169.8875"
         clip-path="url(#clipPath2)"
         width="30"
         rx="4"
         ry="4"
         height="30"
         stroke="none"
         id="rect3870" />
    </g>
    <g
       font-size="13"
       font-family="sans-serif"
       transform="matrix(1,0,0,1,1645,302)"
       id="g3872">
      <text
         xml:space="preserve"
         x="-1388.8794"
         y="189.6768"
         clip-path="url(#clipPath2)"
         stroke="none"
         id="text3874">2</text>
    </g>
    <g
       stroke-miterlimit="1.45"
       transform="matrix(1,0,0,1,1645,302)"
       stroke-linecap="butt"
       id="g3876">
      <rect
         x="-1399.8794"
         y="169.8875"
         clip-path="url(#clipPath2)"
         fill="none"
         width="30"
         rx="4"
         ry="4"
         height="30"
         id="rect3878" />
    </g>
    <g
       fill="rgb(255,204,0)"
       transform="matrix(1,0,0,1,1645,302)"
       stroke="rgb(255,204,0)"
       id="g3880">
      <rect
         x="-1299.8794"
         y="169.8875"
         clip-path="url(#clipPath2)"
         width="30"
         rx="4"
         ry="4"
         height="30"
         stroke="none"
         id="rect3882" />
    </g>
    <g
       font-size="13"
       font-family="sans-serif"
       transform="matrix(1,0,0,1,1645,302)"
       id="g3884">
      <text
         xml:space="preserve"
         x="-1288.8794"
         y="189.6768"
         clip-path="url(#clipPath2)"
         stroke="none"
         id="text3886">3</text>
    </g>
    <g
       stroke-miterlimit="1.45"
       transform="matrix(1,0,0,1,1645,302)"
       stroke-linecap="butt"
       id="g3888">
      <rect
         x="-1299.8794"
         y="169.8875"
         clip-path="url(#clipPath2)"
         fill="none"
         width="30"
         rx="4"
         ry="4"
         height="30"
         id="rect3890" />
    </g>
    <g
       fill="rgb(255,204,0)"
       transform="matrix(1,0,0,1,1645,302)"
       stroke="rgb(255,204,0)"
       id="g3892">
      <rect
         x="-1499.8794"
         y="169.8875"
         clip-path="url(#clipPath2)"
         width="30"
         rx="4"
         ry="4"
         height="30"
         stroke="none"
         id="rect3894" />
    </g>
    <g
       font-size="13"
       font-family="sans-serif"
       transform="matrix(1,0,0,1,1645,302)"
       id="g3896">
      <text
         xml:space="preserve"
         x="-1488.8794"
         y="189.6768"
         clip-path="url(#clipPath2)"
         stroke="none"
         id="text3898">1</text>
    </g>
    <g
       stroke-miterlimit="1.45"
       transform="matrix(1,0,0,1,1645,302)"
       stroke-linecap="butt"
       id="g3900">
      <rect
         x="-1499.8794"
         y="169.8875"
         clip-path="url(#clipPath2)"
         fill="none"
         width="30"
         rx="4"
         ry="4"
         height="30"
         id="rect3902" />
    </g>
    <g
       fill="rgb(255,204,0)"
       transform="matrix(1,0,0,1,1645,302)"
       stroke="rgb(255,204,0)"
       id="g3904">
      <rect
         x="-1099.8794"
         y="169.8875"
         clip-path="url(#clipPath2)"
         width="30"
         rx="4"
         ry="4"
         height="30"
         stroke="none"
         id="rect3906" />
    </g>
    <g
       font-size="13"
       font-family="sans-serif"
       transform="matrix(1,0,0,1,1645,302)"
       id="g3908">
      <text
         xml:space="preserve"
         x="-1088.8794"
         y="189.6768"
         clip-path="url(#clipPath2)"
         stroke="none"
         id="text3910">5</text>
    </g>
    <g
       stroke-miterlimit="1.45"
       transform="matrix(1,0,0,1,1645,302)"
       stroke-linecap="butt"
       id="g3912">
      <rect
         x="-1099.8794"
         y="169.8875"
         clip-path="url(#clipPath2)"
         fill="none"
         width="30"
         rx="4"
         ry="4"
         height="30"
         id="rect3914" />
    </g>
    <g
       fill="rgb(255,204,0)"
       transform="matrix(1,0,0,1,1645,302)"
       stroke="rgb(255,204,0)"
       id="g3916">
      <rect
         x="-999.8794"
         y="169.8875"
         clip-path="url(#clipPath2)"
         width="30"
         rx="4"
         ry="4"
         height="30"
         stroke="none"
         id="rect3918" />
    </g>
    <g
       font-size="13"
       font-family="sans-serif"
       transform="matrix(1,0,0,1,1645,302)"
       id="g3920">
      <text
         xml:space="preserve"
         x="-988.8795"
         y="189.6768"
         clip-path="url(#clipPath2)"
         stroke="none"
         id="text3922">g</text>
    </g>
    <g
       stroke-miterlimit="1.45"
       transform="matrix(1,0,0,1,1645,302)"
       stroke-linecap="butt"
       id="g3924">
      <rect
         x="-999.8794"
         y="169.8875"
         clip-path="url(#clipPath2)"
         fill="none"
         width="30"
         rx="4"
         ry="4"
         height="30"
         id="rect3926" />
    </g>
    <g
       fill="rgb(255,204,0)"
       transform="matrix(1,0,0,1,1645,302)"
       stroke="rgb(255,204,0)"
       id="g3928">
      <rect
         x="-1199.8794"
         y="169.8875"
         clip-path="url(#clipPath2)"
         width="30"
         rx="4"
         ry="4"
         height="30"
         stroke="none"
         id="rect3930" />
    </g>
    <g
       font-size="13"
       font-family="sans-serif"
       transform="matrix(1,0,0,1,1645,302)"
       id="g3932">
      <text
         xml:space="preserve"
         x="-1188.8794"
         y="189.6768"
         clip-path="url(#clipPath2)"
         stroke="none"
         id="text3934">4</text>
    </g>
    <g
       stroke-miterlimit="1.45"
       transform="matrix(1,0,0,1,1645,302)"
       stroke-linecap="butt"
       id="g3936">
      <rect
         x="-1199.8794"
         y="169.8875"
         clip-path="url(#clipPath2)"
         fill="none"
         width="30"
         rx="4"
         ry="4"
         height="30"
         id="rect3938" />
    </g>
    <g
       fill="rgb(255,204,0)"
       transform="matrix(1,0,0,1,1645,302)"
       stroke="rgb(255,204,0)"
       id="g3940">
      <rect
         x="-1399.8794"
         y="319.8875"
         clip-path="url(#clipPath2)"
         width="30"
         rx="4"
         ry="4"
         height="30"
         stroke="none"
         id="rect3942" />
    </g>
    <g
       font-size="13"
       font-family="sans-serif"
       transform="matrix(1,0,0,1,1645,302)"
       id="g3944">
      <text
         xml:space="preserve"
         x="-1388.3794"
         y="339.6768"
         clip-path="url(#clipPath2)"
         stroke="none"
         id="text3946">F</text>
    </g>
    <g
       stroke-miterlimit="1.45"
       transform="matrix(1,0,0,1,1645,302)"
       stroke-linecap="butt"
       id="g3948">
      <rect
         x="-1399.8794"
         y="319.8875"
         clip-path="url(#clipPath2)"
         fill="none"
         width="30"
         rx="4"
         ry="4"
         height="30"
         id="rect3950" />
    </g>
    <g
       fill="rgb(255,204,0)"
       transform="matrix(1,0,0,1,1645,302)"
       stroke="rgb(255,204,0)"
       id="g3952">
      <rect
         x="-1599.8794"
         y="169.8875"
         clip-path="url(#clipPath2)"
         width="30"
         rx="4"
         ry="4"
         height="30"
         stroke="none"
         id="rect3954" />
    </g>
    <g
       font-size="13"
       font-family="sans-serif"
       transform="matrix(1,0,0,1,1645,302)"
       id="g3956">
      <text
         xml:space="preserve"
         x="-1592.3794"
         y="189.6768"
         clip-path="url(#clipPath2)"
         stroke="none"
         id="text3958">S0</text>
    </g>
    <g
       stroke-miterlimit="1.45"
       transform="matrix(1,0,0,1,1645,302)"
       stroke-linecap="butt"
       id="g3960">
      <rect
         x="-1599.8794"
         y="169.8875"
         clip-path="url(#clipPath2)"
         fill="none"
         width="30"
         rx="4"
         ry="4"
         height="30"
         id="rect3962" />
      <rect
         x="-1629.5665"
         y="137.478"
         clip-path="url(#clipPath2)"
         fill="none"
         width="690"
         rx="4"
         ry="4"
         height="232.5391"
         stroke-width="3"
         id="rect3964" />
    </g>
    <g
       fill="rgb(255,204,0)"
       transform="matrix(1,0,0,1,1645,302)"
       stroke="rgb(255,204,0)"
       id="g3966">
      <rect
         x="-607.3997"
         y="37.4204"
         clip-path="url(#clipPath2)"
         width="30"
         rx="4"
         ry="4"
         height="30"
         stroke="none"
         id="rect3968" />
    </g>
    <g
       font-size="13"
       font-family="sans-serif"
       transform="matrix(1,0,0,1,1645,302)"
       id="g3970">
      <text
         xml:space="preserve"
         x="-596.3997"
         y="57.2097"
         clip-path="url(#clipPath2)"
         stroke="none"
         id="text3972">1</text>
    </g>
    <g
       stroke-miterlimit="1.45"
       transform="matrix(1,0,0,1,1645,302)"
       stroke-linecap="butt"
       id="g3974">
      <rect
         x="-607.3997"
         y="37.4204"
         clip-path="url(#clipPath2)"
         fill="none"
         width="30"
         rx="4"
         ry="4"
         height="30"
         id="rect3976" />
    </g>
    <g
       fill="rgb(255,204,0)"
       transform="matrix(1,0,0,1,1645,302)"
       stroke="rgb(255,204,0)"
       id="g3978">
      <rect
         x="-207.3997"
         y="37.4204"
         clip-path="url(#clipPath2)"
         width="30"
         rx="4"
         ry="4"
         height="30"
         stroke="none"
         id="rect3980" />
    </g>
    <g
       font-size="13"
       font-family="sans-serif"
       transform="matrix(1,0,0,1,1645,302)"
       id="g3982">
      <text
         xml:space="preserve"
         x="-196.3997"
         y="57.2097"
         clip-path="url(#clipPath2)"
         stroke="none"
         id="text3984">5</text>
    </g>
    <g
       stroke-miterlimit="1.45"
       transform="matrix(1,0,0,1,1645,302)"
       stroke-linecap="butt"
       id="g3986">
      <rect
         x="-207.3997"
         y="37.4204"
         clip-path="url(#clipPath2)"
         fill="none"
         width="30"
         rx="4"
         ry="4"
         height="30"
         id="rect3988" />
    </g>
    <g
       fill="rgb(255,204,0)"
       transform="matrix(1,0,0,1,1645,302)"
       stroke="rgb(255,204,0)"
       id="g3990">
      <rect
         x="-107.3997"
         y="37.4204"
         clip-path="url(#clipPath2)"
         width="30"
         rx="4"
         ry="4"
         height="30"
         stroke="none"
         id="rect3992" />
    </g>
    <g
       font-size="13"
       font-family="sans-serif"
       transform="matrix(1,0,0,1,1645,302)"
       id="g3994">
      <text
         xml:space="preserve"
         x="-96.3997"
         y="57.2097"
         clip-path="url(#clipPath2)"
         stroke="none"
         id="text3996">g</text>
    </g>
    <g
       stroke-miterlimit="1.45"
       transform="matrix(1,0,0,1,1645,302)"
       stroke-linecap="butt"
       id="g3998">
      <rect
         x="-107.3997"
         y="37.4204"
         clip-path="url(#clipPath2)"
         fill="none"
         width="30"
         rx="4"
         ry="4"
         height="30"
         id="rect4000" />
    </g>
    <g
       fill="rgb(255,204,0)"
       transform="matrix(1,0,0,1,1645,302)"
       stroke="rgb(255,204,0)"
       id="g4002">
      <rect
         x="-307.3997"
         y="37.4204"
         clip-path="url(#clipPath2)"
         width="30"
         rx="4"
         ry="4"
         height="30"
         stroke="none"
         id="rect4004" />
    </g>
    <g
       font-size="13"
       font-family="sans-serif"
       transform="matrix(1,0,0,1,1645,302)"
       id="g4006">
      <text
         xml:space="preserve"
         x="-296.3997"
         y="57.2097"
         clip-path="url(#clipPath2)"
         stroke="none"
         id="text4008">4</text>
    </g>
    <g
       stroke-miterlimit="1.45"
       transform="matrix(1,0,0,1,1645,302)"
       stroke-linecap="butt"
       id="g4010">
      <rect
         x="-307.3997"
         y="37.4204"
         clip-path="url(#clipPath2)"
         fill="none"
         width="30"
         rx="4"
         ry="4"
         height="30"
         id="rect4012" />
    </g>
    <g
       fill="rgb(255,204,0)"
       transform="matrix(1,0,0,1,1645,302)"
       stroke="rgb(255,204,0)"
       id="g4014">
      <rect
         x="-507.3997"
         y="187.4204"
         clip-path="url(#clipPath2)"
         width="30"
         rx="4"
         ry="4"
         height="30"
         stroke="none"
         id="rect4016" />
    </g>
    <g
       font-size="13"
       font-family="sans-serif"
       transform="matrix(1,0,0,1,1645,302)"
       id="g4018">
      <text
         xml:space="preserve"
         x="-495.8997"
         y="207.2097"
         clip-path="url(#clipPath2)"
         stroke="none"
         id="text4020">F</text>
    </g>
    <g
       stroke-miterlimit="1.45"
       transform="matrix(1,0,0,1,1645,302)"
       stroke-linecap="butt"
       id="g4022">
      <rect
         x="-507.3997"
         y="187.4204"
         clip-path="url(#clipPath2)"
         fill="none"
         width="30"
         rx="4"
         ry="4"
         height="30"
         id="rect4024" />
    </g>
    <g
       fill="rgb(255,204,0)"
       transform="matrix(1,0,0,1,1645,302)"
       stroke="rgb(255,204,0)"
       id="g4026">
      <rect
         x="-707.3997"
         y="37.4204"
         clip-path="url(#clipPath2)"
         width="30"
         rx="4"
         ry="4"
         height="30"
         stroke="none"
         id="rect4028" />
    </g>
    <g
       font-size="13"
       font-family="sans-serif"
       transform="matrix(1,0,0,1,1645,302)"
       id="g4030">
      <text
         xml:space="preserve"
         x="-699.8997"
         y="57.2097"
         clip-path="url(#clipPath2)"
         stroke="none"
         id="text4032">S0</text>
    </g>
    <g
       stroke-miterlimit="1.45"
       transform="matrix(1,0,0,1,1645,302)"
       stroke-linecap="butt"
       id="g4034">
      <rect
         x="-707.3997"
         y="37.4204"
         clip-path="url(#clipPath2)"
         fill="none"
         width="30"
         rx="4"
         ry="4"
         height="30"
         id="rect4036" />
    </g>
    <g
       fill="rgb(255,204,0)"
       transform="matrix(1,0,0,1,1645,302)"
       stroke="rgb(255,204,0)"
       id="g4038">
      <rect
         x="-609.8215"
         y="324.4165"
         clip-path="url(#clipPath2)"
         width="30"
         rx="4"
         ry="4"
         height="30"
         stroke="none"
         id="rect4040" />
    </g>
    <g
       font-size="13"
       font-family="sans-serif"
       transform="matrix(1,0,0,1,1645,302)"
       id="g4042">
      <text
         xml:space="preserve"
         x="-598.8215"
         y="344.2058"
         clip-path="url(#clipPath2)"
         stroke="none"
         id="text4044">1</text>
    </g>
    <g
       stroke-miterlimit="1.45"
       transform="matrix(1,0,0,1,1645,302)"
       stroke-linecap="butt"
       id="g4046">
      <rect
         x="-609.8215"
         y="324.4165"
         clip-path="url(#clipPath2)"
         fill="none"
         width="30"
         rx="4"
         ry="4"
         height="30"
         id="rect4048" />
    </g>
    <g
       fill="rgb(255,204,0)"
       transform="matrix(1,0,0,1,1645,302)"
       stroke="rgb(255,204,0)"
       id="g4050">
      <rect
         x="-209.8215"
         y="324.4165"
         clip-path="url(#clipPath2)"
         width="30"
         rx="4"
         ry="4"
         height="30"
         stroke="none"
         id="rect4052" />
    </g>
    <g
       font-size="13"
       font-family="sans-serif"
       transform="matrix(1,0,0,1,1645,302)"
       id="g4054">
      <text
         xml:space="preserve"
         x="-198.8215"
         y="344.2058"
         clip-path="url(#clipPath2)"
         stroke="none"
         id="text4056">5</text>
    </g>
    <g
       stroke-miterlimit="1.45"
       transform="matrix(1,0,0,1,1645,302)"
       stroke-linecap="butt"
       id="g4058">
      <rect
         x="-209.8215"
         y="324.4165"
         clip-path="url(#clipPath2)"
         fill="none"
         width="30"
         rx="4"
         ry="4"
         height="30"
         id="rect4060" />
    </g>
    <g
       fill="rgb(255,204,0)"
       transform="matrix(1,0,0,1,1645,302)"
       stroke="rgb(255,204,0)"
       id="g4062">
      <rect
         x="-109.8215"
         y="324.4165"
         clip-path="url(#clipPath2)"
         width="30"
         rx="4"
         ry="4"
         height="30"
         stroke="none"
         id="rect4064" />
    </g>
    <g
       font-size="13"
       font-family="sans-serif"
       transform="matrix(1,0,0,1,1645,302)"
       id="g4066">
      <text
         xml:space="preserve"
         x="-98.8215"
         y="344.2058"
         clip-path="url(#clipPath2)"
         stroke="none"
         id="text4068">g</text>
    </g>
    <g
       stroke-miterlimit="1.45"
       transform="matrix(1,0,0,1,1645,302)"
       stroke-linecap="butt"
       id="g4070">
      <rect
         x="-109.8215"
         y="324.4165"
         clip-path="url(#clipPath2)"
         fill="none"
         width="30"
         rx="4"
         ry="4"
         height="30"
         id="rect4072" />
    </g>
    <g
       fill="rgb(255,204,0)"
       transform="matrix(1,0,0,1,1645,302)"
       stroke="rgb(255,204,0)"
       id="g4074">
      <rect
         x="-509.8215"
         y="474.4165"
         clip-path="url(#clipPath2)"
         width="30"
         rx="4"
         ry="4"
         height="30"
         stroke="none"
         id="rect4076" />
    </g>
    <g
       font-size="13"
       font-family="sans-serif"
       transform="matrix(1,0,0,1,1645,302)"
       id="g4078">
      <text
         xml:space="preserve"
         x="-498.3215"
         y="494.2058"
         clip-path="url(#clipPath2)"
         stroke="none"
         id="text4080">F</text>
    </g>
    <g
       stroke-miterlimit="1.45"
       transform="matrix(1,0,0,1,1645,302)"
       stroke-linecap="butt"
       id="g4082">
      <rect
         x="-509.8215"
         y="474.4165"
         clip-path="url(#clipPath2)"
         fill="none"
         width="30"
         rx="4"
         ry="4"
         height="30"
         id="rect4084" />
    </g>
    <g
       fill="rgb(255,204,0)"
       transform="matrix(1,0,0,1,1645,302)"
       stroke="rgb(255,204,0)"
       id="g4086">
      <rect
         x="-709.8215"
         y="324.4165"
         clip-path="url(#clipPath2)"
         width="30"
         rx="4"
         ry="4"
         height="30"
         stroke="none"
         id="rect4088" />
    </g>
    <g
       font-size="13"
       font-family="sans-serif"
       transform="matrix(1,0,0,1,1645,302)"
       id="g4090">
      <text
         xml:space="preserve"
         x="-702.3215"
         y="344.2058"
         clip-path="url(#clipPath2)"
         stroke="none"
         id="text4092">S0</text>
    </g>
    <g
       stroke-miterlimit="1.45"
       transform="matrix(1,0,0,1,1645,302)"
       stroke-linecap="butt"
       id="g4094">
      <rect
         x="-709.8215"
         y="324.4165"
         clip-path="url(#clipPath2)"
         fill="none"
         width="30"
         rx="4"
         ry="4"
         height="30"
         id="rect4096" />
    </g>
    <g
       fill="rgb(255,204,0)"
       transform="matrix(1,0,0,1,1645,302)"
       stroke="rgb(255,204,0)"
       id="g4098">
      <rect
         x="-409.5715"
         y="-254.3335"
         clip-path="url(#clipPath2)"
         width="30"
         rx="4"
         ry="4"
         height="30"
         stroke="none"
         id="rect4100" />
    </g>
    <g
       font-size="13"
       font-family="sans-serif"
       transform="matrix(1,0,0,1,1645,302)"
       id="g4102">
      <text
         xml:space="preserve"
         x="-398.5715"
         y="-234.5442"
         clip-path="url(#clipPath2)"
         stroke="none"
         id="text4104">3</text>
    </g>
    <g
       stroke-miterlimit="1.45"
       transform="matrix(1,0,0,1,1645,302)"
       stroke-linecap="butt"
       id="g4106">
      <rect
         x="-409.5715"
         y="-254.3335"
         clip-path="url(#clipPath2)"
         fill="none"
         width="30"
         rx="4"
         ry="4"
         height="30"
         id="rect4108" />
    </g>
    <g
       fill="rgb(255,204,0)"
       transform="matrix(1,0,0,1,1645,302)"
       stroke="rgb(255,204,0)"
       id="g4110">
      <rect
         x="-609.5715"
         y="-254.3335"
         clip-path="url(#clipPath2)"
         width="30"
         rx="4"
         ry="4"
         height="30"
         stroke="none"
         id="rect4112" />
    </g>
    <g
       font-size="13"
       font-family="sans-serif"
       transform="matrix(1,0,0,1,1645,302)"
       id="g4114">
      <text
         xml:space="preserve"
         x="-598.5715"
         y="-234.5442"
         clip-path="url(#clipPath2)"
         stroke="none"
         id="text4116">1</text>
    </g>
    <g
       stroke-miterlimit="1.45"
       transform="matrix(1,0,0,1,1645,302)"
       stroke-linecap="butt"
       id="g4118">
      <rect
         x="-609.5715"
         y="-254.3335"
         clip-path="url(#clipPath2)"
         fill="none"
         width="30"
         rx="4"
         ry="4"
         height="30"
         id="rect4120" />
    </g>
    <g
       fill="rgb(255,204,0)"
       transform="matrix(1,0,0,1,1645,302)"
       stroke="rgb(255,204,0)"
       id="g4122">
      <rect
         x="-209.5715"
         y="-254.3335"
         clip-path="url(#clipPath2)"
         width="30"
         rx="4"
         ry="4"
         height="30"
         stroke="none"
         id="rect4124" />
    </g>
    <g
       font-size="13"
       font-family="sans-serif"
       transform="matrix(1,0,0,1,1645,302)"
       id="g4126">
      <text
         xml:space="preserve"
         x="-198.5715"
         y="-234.5442"
         clip-path="url(#clipPath2)"
         stroke="none"
         id="text4128">5</text>
    </g>
    <g
       stroke-miterlimit="1.45"
       transform="matrix(1,0,0,1,1645,302)"
       stroke-linecap="butt"
       id="g4130">
      <rect
         x="-209.5715"
         y="-254.3335"
         clip-path="url(#clipPath2)"
         fill="none"
         width="30"
         rx="4"
         ry="4"
         height="30"
         id="rect4132" />
    </g>
    <g
       fill="rgb(255,204,0)"
       transform="matrix(1,0,0,1,1645,302)"
       stroke="rgb(255,204,0)"
       id="g4134">
      <rect
         x="-109.5715"
         y="-254.3335"
         clip-path="url(#clipPath2)"
         width="30"
         rx="4"
         ry="4"
         height="30"
         stroke="none"
         id="rect4136" />
    </g>
    <g
       font-size="13"
       font-family="sans-serif"
       transform="matrix(1,0,0,1,1645,302)"
       id="g4138">
      <text
         xml:space="preserve"
         x="-98.5715"
         y="-234.5442"
         clip-path="url(#clipPath2)"
         stroke="none"
         id="text4140">g</text>
    </g>
    <g
       stroke-miterlimit="1.45"
       transform="matrix(1,0,0,1,1645,302)"
       stroke-linecap="butt"
       id="g4142">
      <rect
         x="-109.5715"
         y="-254.3335"
         clip-path="url(#clipPath2)"
         fill="none"
         width="30"
         rx="4"
         ry="4"
         height="30"
         id="rect4144" />
    </g>
    <g
       fill="rgb(255,204,0)"
       transform="matrix(1,0,0,1,1645,302)"
       stroke="rgb(255,204,0)"
       id="g4146">
      <rect
         x="-309.5715"
         y="-254.3335"
         clip-path="url(#clipPath2)"
         width="30"
         rx="4"
         ry="4"
         height="30"
         stroke="none"
         id="rect4148" />
    </g>
    <g
       font-size="13"
       font-family="sans-serif"
       transform="matrix(1,0,0,1,1645,302)"
       id="g4150">
      <text
         xml:space="preserve"
         x="-298.5715"
         y="-234.5442"
         clip-path="url(#clipPath2)"
         stroke="none"
         id="text4152">4</text>
    </g>
    <g
       stroke-miterlimit="1.45"
       transform="matrix(1,0,0,1,1645,302)"
       stroke-linecap="butt"
       id="g4154">
      <rect
         x="-309.5715"
         y="-254.3335"
         clip-path="url(#clipPath2)"
         fill="none"
         width="30"
         rx="4"
         ry="4"
         height="30"
         id="rect4156" />
    </g>
    <g
       fill="rgb(255,204,0)"
       transform="matrix(1,0,0,1,1645,302)"
       stroke="rgb(255,204,0)"
       id="g4158">
      <rect
         x="-509.5715"
         y="-104.3335"
         clip-path="url(#clipPath2)"
         width="30"
         rx="4"
         ry="4"
         height="30"
         stroke="none"
         id="rect4160" />
    </g>
    <g
       font-size="13"
       font-family="sans-serif"
       transform="matrix(1,0,0,1,1645,302)"
       id="g4162">
      <text
         xml:space="preserve"
         x="-498.0715"
         y="-84.5442"
         clip-path="url(#clipPath2)"
         stroke="none"
         id="text4164">F</text>
    </g>
    <g
       stroke-miterlimit="1.45"
       transform="matrix(1,0,0,1,1645,302)"
       stroke-linecap="butt"
       id="g4166">
      <rect
         x="-509.5715"
         y="-104.3335"
         clip-path="url(#clipPath2)"
         fill="none"
         width="30"
         rx="4"
         ry="4"
         height="30"
         id="rect4168" />
    </g>
    <g
       fill="rgb(255,204,0)"
       transform="matrix(1,0,0,1,1645,302)"
       stroke="rgb(255,204,0)"
       id="g4170">
      <rect
         x="-709.5715"
         y="-254.3335"
         clip-path="url(#clipPath2)"
         width="30"
         rx="4"
         ry="4"
         height="30"
         stroke="none"
         id="rect4172" />
    </g>
    <g
       font-size="13"
       font-family="sans-serif"
       transform="matrix(1,0,0,1,1645,302)"
       id="g4174">
      <text
         xml:space="preserve"
         x="-702.0715"
         y="-234.5442"
         clip-path="url(#clipPath2)"
         stroke="none"
         id="text4176">S0</text>
    </g>
    <g
       stroke-miterlimit="1.45"
       transform="matrix(1,0,0,1,1645,302)"
       stroke-linecap="butt"
       id="g4178">
      <rect
         x="-709.5715"
         y="-254.3335"
         clip-path="url(#clipPath2)"
         fill="none"
         width="30"
         rx="4"
         ry="4"
         height="30"
         id="rect4180" />
    </g>
    <g
       fill="rgb(255,204,0)"
       transform="matrix(1,0,0,1,1645,302)"
       stroke="rgb(255,204,0)"
       id="g4182">
      <rect
         x="-610.1965"
         y="616.604"
         clip-path="url(#clipPath2)"
         width="30"
         rx="4"
         ry="4"
         height="30"
         stroke="none"
         id="rect4184" />
    </g>
    <g
       font-size="13"
       font-family="sans-serif"
       transform="matrix(1,0,0,1,1645,302)"
       id="g4186">
      <text
         xml:space="preserve"
         x="-599.1965"
         y="636.3933"
         clip-path="url(#clipPath2)"
         stroke="none"
         id="text4188">1</text>
    </g>
    <g
       stroke-miterlimit="1.45"
       transform="matrix(1,0,0,1,1645,302)"
       stroke-linecap="butt"
       id="g4190">
      <rect
         x="-610.1965"
         y="616.604"
         clip-path="url(#clipPath2)"
         fill="none"
         width="30"
         rx="4"
         ry="4"
         height="30"
         id="rect4192" />
    </g>
    <g
       fill="rgb(255,204,0)"
       transform="matrix(1,0,0,1,1645,302)"
       stroke="rgb(255,204,0)"
       id="g4194">
      <rect
         x="-110.1965"
         y="616.604"
         clip-path="url(#clipPath2)"
         width="30"
         rx="4"
         ry="4"
         height="30"
         stroke="none"
         id="rect4196" />
    </g>
    <g
       font-size="13"
       font-family="sans-serif"
       transform="matrix(1,0,0,1,1645,302)"
       id="g4198">
      <text
         xml:space="preserve"
         x="-99.1965"
         y="636.3933"
         clip-path="url(#clipPath2)"
         stroke="none"
         id="text4200">g</text>
    </g>
    <g
       stroke-miterlimit="1.45"
       transform="matrix(1,0,0,1,1645,302)"
       stroke-linecap="butt"
       id="g4202">
      <rect
         x="-110.1965"
         y="616.604"
         clip-path="url(#clipPath2)"
         fill="none"
         width="30"
         rx="4"
         ry="4"
         height="30"
         id="rect4204" />
    </g>
    <g
       fill="rgb(255,204,0)"
       transform="matrix(1,0,0,1,1645,302)"
       stroke="rgb(255,204,0)"
       id="g4206">
      <rect
         x="-510.1965"
         y="766.604"
         clip-path="url(#clipPath2)"
         width="30"
         rx="4"
         ry="4"
         height="30"
         stroke="none"
         id="rect4208" />
    </g>
    <g
       font-size="13"
       font-family="sans-serif"
       transform="matrix(1,0,0,1,1645,302)"
       id="g4210">
      <text
         xml:space="preserve"
         x="-498.6965"
         y="786.3933"
         clip-path="url(#clipPath2)"
         stroke="none"
         id="text4212">F</text>
    </g>
    <g
       stroke-miterlimit="1.45"
       transform="matrix(1,0,0,1,1645,302)"
       stroke-linecap="butt"
       id="g4214">
      <rect
         x="-510.1965"
         y="766.604"
         clip-path="url(#clipPath2)"
         fill="none"
         width="30"
         rx="4"
         ry="4"
         height="30"
         id="rect4216" />
    </g>
    <g
       fill="rgb(255,204,0)"
       transform="matrix(1,0,0,1,1645,302)"
       stroke="rgb(255,204,0)"
       id="g4218">
      <rect
         x="-710.1965"
         y="616.604"
         clip-path="url(#clipPath2)"
         width="30"
         rx="4"
         ry="4"
         height="30"
         stroke="none"
         id="rect4220" />
    </g>
    <g
       font-size="13"
       font-family="sans-serif"
       transform="matrix(1,0,0,1,1645,302)"
       id="g4222">
      <text
         xml:space="preserve"
         x="-702.6965"
         y="636.3933"
         clip-path="url(#clipPath2)"
         stroke="none"
         id="text4224">S0</text>
    </g>
    <g
       stroke-miterlimit="1.45"
       transform="matrix(1,0,0,1,1645,302)"
       stroke-linecap="butt"
       id="g4226">
      <rect
         x="-710.1965"
         y="616.604"
         clip-path="url(#clipPath2)"
         fill="none"
         width="30"
         rx="4"
         ry="4"
         height="30"
         id="rect4228" />
    </g>
    <g
       font-size="45"
       font-family="sans-serif"
       transform="matrix(1,0,0,1,1645,302)"
       id="g4230">
      <text
         xml:space="preserve"
         x="43.8354"
         y="-157.6138"
         clip-path="url(#clipPath2)"
         stroke="none"
         id="text4232">=&gt;    h1</text>
      <text
         xml:space="preserve"
         x="43.8354"
         y="129.3908"
         clip-path="url(#clipPath2)"
         stroke="none"
         id="text4234">=&gt;    h2</text>
      <text
         xml:space="preserve"
         x="43.8354"
         y="420.3793"
         clip-path="url(#clipPath2)"
         stroke="none"
         id="text4236">=&gt;    h3</text>
      <text
         xml:space="preserve"
         x="43.8354"
         y="696.9261"
         clip-path="url(#clipPath2)"
         stroke="none"
         id="text4238">=&gt;    h4</text>
    </g>
    <g
       font-size="45"
       font-family="sans-serif"
       transform="matrix(1,0,0,1,1645,302) translate(-852.3377,642.7436) rotate(45) translate(852.3377,-642.7436)"
       id="g4240">
      <text
         xml:space="preserve"
         x="-895.3377"
         y="659.322"
         clip-path="url(#clipPath3)"
         stroke="none"
         id="text4242">=&gt; </text>
    </g>
    <g
       font-size="45"
       font-family="sans-serif"
       transform="matrix(1,0,0,1,1645,302) translate(-810.2265,-125.8607) rotate(315) translate(810.2265,125.8607)"
       id="g4244">
      <text
         xml:space="preserve"
         x="-853.2265"
         y="-109.2824"
         clip-path="url(#clipPath4)"
         stroke="none"
         id="text4246">=&gt; </text>
    </g>
    <g
       font-size="45"
       font-family="sans-serif"
       transform="matrix(1,0,0,1,1645,302) translate(-818.785,403.9466) rotate(10) translate(818.785,-403.9466)"
       id="g4248">
      <text
         xml:space="preserve"
         x="-861.785"
         y="420.525"
         clip-path="url(#clipPath5)"
         stroke="none"
         id="text4250">=&gt; </text>
    </g>
    <g
       font-size="45"
       font-family="sans-serif"
       transform="matrix(1,0,0,1,1645,302) translate(-816.7873,116.7046) rotate(350) translate(816.7873,-116.7046)"
       id="g4252">
      <text
         xml:space="preserve"
         x="-859.7873"
         y="133.283"
         clip-path="url(#clipPath6)"
         stroke="none"
         id="text4254">=&gt; </text>
    </g>
    <g
       font-size="45"
       font-family="sans-serif"
       transform="matrix(1,0,0,1,1645,302)"
       id="g4256">
      <text
         xml:space="preserve"
         x="-990.6072"
         y="346.7433"
         clip-path="url(#clipPath2)"
         stroke="none"
         id="text4258">P</text>
    </g>
    <g
       stroke-width="3"
       stroke-miterlimit="1.45"
       transform="matrix(1,0,0,1,1645,302)"
       stroke-linecap="butt"
       id="g4260">
      <path
         fill="none"
         d="M-1469.8892 184.8875 L-1409.8641 184.8875"
         clip-path="url(#clipPath2)"
         id="path4262" />
      <path
         d="M-1399.8641 184.8875 L-1414.8641 178.6375 L-1411.1141 184.8875 L-1414.8641 191.1375 Z"
         clip-path="url(#clipPath2)"
         stroke="none"
         id="path4264" />
      <path
         fill="none"
         d="M-1369.8892 184.8875 L-1309.8641 184.8875"
         clip-path="url(#clipPath2)"
         id="path4266" />
      <path
         d="M-1299.8641 184.8875 L-1314.8641 178.6375 L-1311.1141 184.8875 L-1314.8641 191.1375 Z"
         clip-path="url(#clipPath2)"
         stroke="none"
         id="path4268" />
      <path
         fill="none"
         d="M-1269.8892 184.8875 L-1209.8641 184.8875"
         clip-path="url(#clipPath2)"
         id="path4270" />
      <path
         d="M-1199.8641 184.8875 L-1214.8641 178.6375 L-1211.1141 184.8875 L-1214.8641 191.1375 Z"
         clip-path="url(#clipPath2)"
         stroke="none"
         id="path4272" />
      <path
         fill="none"
         d="M-1169.8892 184.8875 L-1109.8641 184.8875"
         clip-path="url(#clipPath2)"
         id="path4274" />
      <path
         d="M-1099.8641 184.8875 L-1114.8641 178.6375 L-1111.1141 184.8875 L-1114.8641 191.1375 Z"
         clip-path="url(#clipPath2)"
         stroke="none"
         id="path4276" />
      <path
         fill="none"
         d="M-1069.8892 184.8875 L-1009.8641 184.8875"
         clip-path="url(#clipPath2)"
         id="path4278" />
      <path
         d="M-999.8641 184.8875 L-1014.8641 178.6375 L-1011.1141 184.8875 L-1014.8641 191.1375 Z"
         clip-path="url(#clipPath2)"
         stroke="none"
         id="path4280" />
      <path
         fill="none"
         stroke-dasharray="18,6"
         d="M-1474.894 199.8656 L-1400.4257 311.5683"
         clip-path="url(#clipPath2)"
         id="path4282" />
      <path
         stroke-dasharray="18,6"
         d="M-1394.8787 319.8888 L-1397.9989 303.9411 L-1401.119 310.5282 L-1408.3994 310.8749 Z"
         clip-path="url(#clipPath2)"
         stroke="none"
         id="path4284" />
      <path
         fill="none"
         d="M-1569.8892 184.8875 L-1509.8641 184.8875"
         clip-path="url(#clipPath2)"
         id="path4286" />
      <path
         d="M-1499.8641 184.8875 L-1514.8641 178.6375 L-1511.1141 184.8875 L-1514.8641 191.1375 Z"
         clip-path="url(#clipPath2)"
         stroke="none"
         id="path4288" />
      <path
         fill="none"
         d="M-277.4094 52.4204 L-217.3843 52.4204"
         clip-path="url(#clipPath2)"
         id="path4290" />
      <path
         d="M-207.3843 52.4204 L-222.3843 46.1704 L-218.6343 52.4204 L-222.3843 58.6704 Z"
         clip-path="url(#clipPath2)"
         stroke="none"
         id="path4292" />
      <path
         fill="none"
         d="M-177.4094 52.4204 L-117.3843 52.4204"
         clip-path="url(#clipPath2)"
         id="path4294" />
      <path
         d="M-107.3843 52.4204 L-122.3843 46.1704 L-118.6343 52.4204 L-122.3843 58.6704 Z"
         clip-path="url(#clipPath2)"
         stroke="none"
         id="path4296" />
      <path
         fill="none"
         stroke-dasharray="18,6"
         d="M-582.4143 67.3984 L-507.9458 179.1011"
         clip-path="url(#clipPath2)"
         id="path4298" />
      <path
         stroke-dasharray="18,6"
         d="M-502.3988 187.4216 L-505.519 171.474 L-508.6392 178.0611 L-515.9197 178.4078 Z"
         clip-path="url(#clipPath2)"
         stroke="none"
         id="path4300" />
      <path
         fill="none"
         d="M-677.4094 52.4204 L-617.3843 52.4204"
         clip-path="url(#clipPath2)"
         id="path4302" />
      <path
         d="M-607.3843 52.4204 L-622.3843 46.1704 L-618.6343 52.4204 L-622.3843 58.6704 Z"
         clip-path="url(#clipPath2)"
         stroke="none"
         id="path4304" />
      <path
         fill="none"
         d="M-179.8313 339.4165 L-119.8062 339.4165"
         clip-path="url(#clipPath2)"
         id="path4306" />
      <path
         d="M-109.8062 339.4165 L-124.8062 333.1665 L-121.0562 339.4165 L-124.8062 345.6665 Z"
         clip-path="url(#clipPath2)"
         stroke="none"
         id="path4308" />
      <path
         fill="none"
         stroke-dasharray="18,6"
         d="M-584.8362 354.3945 L-510.3677 466.0972"
         clip-path="url(#clipPath2)"
         id="path4310" />
      <path
         stroke-dasharray="18,6"
         d="M-504.8207 474.4177 L-507.9409 458.4701 L-511.0611 465.0572 L-518.3416 465.4038 Z"
         clip-path="url(#clipPath2)"
         stroke="none"
         id="path4312" />
      <path
         fill="none"
         d="M-679.8313 339.4165 L-619.8062 339.4165"
         clip-path="url(#clipPath2)"
         id="path4314" />
      <path
         d="M-609.8062 339.4165 L-624.8062 333.1665 L-621.0562 339.4165 L-624.8062 345.6665 Z"
         clip-path="url(#clipPath2)"
         stroke="none"
         id="path4316" />
      <path
         fill="none"
         d="M-379.5813 -239.3335 L-319.5562 -239.3335"
         clip-path="url(#clipPath2)"
         id="path4318" />
      <path
         d="M-309.5562 -239.3335 L-324.5562 -245.5835 L-320.8062 -239.3335 L-324.5562 -233.0835 Z"
         clip-path="url(#clipPath2)"
         stroke="none"
         id="path4320" />
      <path
         fill="none"
         d="M-279.5813 -239.3335 L-219.5562 -239.3335"
         clip-path="url(#clipPath2)"
         id="path4322" />
      <path
         d="M-209.5562 -239.3335 L-224.5562 -245.5835 L-220.8062 -239.3335 L-224.5562 -233.0835 Z"
         clip-path="url(#clipPath2)"
         stroke="none"
         id="path4324" />
      <path
         fill="none"
         d="M-179.5813 -239.3335 L-119.5562 -239.3335"
         clip-path="url(#clipPath2)"
         id="path4326" />
      <path
         d="M-109.5562 -239.3335 L-124.5562 -245.5835 L-120.8062 -239.3335 L-124.5562 -233.0835 Z"
         clip-path="url(#clipPath2)"
         stroke="none"
         id="path4328" />
      <path
         fill="none"
         stroke-dasharray="18,6"
         d="M-584.5862 -224.3555 L-510.1177 -112.6528"
         clip-path="url(#clipPath2)"
         id="path4330" />
      <path
         stroke-dasharray="18,6"
         d="M-504.5707 -104.3323 L-507.6909 -120.2799 L-510.8111 -113.6928 L-518.0916 -113.3462 Z"
         clip-path="url(#clipPath2)"
         stroke="none"
         id="path4332" />
      <path
         fill="none"
         d="M-679.5813 -239.3335 L-619.5562 -239.3335"
         clip-path="url(#clipPath2)"
         id="path4334" />
      <path
         d="M-609.5562 -239.3335 L-624.5562 -245.5835 L-620.8062 -239.3335 L-624.5562 -233.0835 Z"
         clip-path="url(#clipPath2)"
         stroke="none"
         id="path4336" />
      <path
         fill="none"
         stroke-dasharray="18,6"
         d="M-585.2112 646.582 L-510.7427 758.2847"
         clip-path="url(#clipPath2)"
         id="path4338" />
      <path
         stroke-dasharray="18,6"
         d="M-505.1957 766.6052 L-508.3159 750.6576 L-511.4361 757.2446 L-518.7166 757.5914 Z"
         clip-path="url(#clipPath2)"
         stroke="none"
         id="path4340" />
      <path
         fill="none"
         d="M-680.2063 631.604 L-620.1812 631.604"
         clip-path="url(#clipPath2)"
         id="path4342" />
      <path
         d="M-610.1812 631.604 L-625.1812 625.354 L-621.4312 631.604 L-625.1812 637.854 Z"
         clip-path="url(#clipPath2)"
         stroke="none"
         id="path4344" />
    </g>
  </g>
</svg>
