<?xml version="1.0" encoding="UTF-8" standalone="no"?>
<svg
   xmlns:dc="http://purl.org/dc/elements/1.1/"
   xmlns:cc="http://web.resource.org/cc/"
   xmlns:rdf="http://www.w3.org/1999/02/22-rdf-syntax-ns#"
   xmlns:svg="http://www.w3.org/2000/svg"
   xmlns="http://www.w3.org/2000/svg"
   xmlns:sodipodi="http://sodipodi.sourceforge.net/DTD/sodipodi-0.dtd"
   xmlns:inkscape="http://www.inkscape.org/namespaces/inkscape"
   fill-opacity="1"
   color-rendering="auto"
   color-interpolation="auto"
   stroke="black"
   text-rendering="auto"
   stroke-linecap="square"
   width="1890"
   stroke-miterlimit="10"
   stroke-opacity="1"
   shape-rendering="auto"
   fill="black"
   stroke-dasharray="none"
   font-weight="normal"
   stroke-width="1"
   height="1135"
   font-family="'Dialog'"
   font-style="normal"
   stroke-linejoin="miter"
   font-size="12"
   stroke-dashoffset="0"
   image-rendering="auto"
   id="svg2772"
   sodipodi:version="0.32"
   inkscape:version="0.45.1"
   sodipodi:docname="heuristica.svg"
   sodipodi:docbase="/home/david/Desktop/monografia/img"
   inkscape:output_extension="org.inkscape.output.svg.inkscape">
  <metadata
     id="metadata3331">
    <rdf:RDF>
      <cc:Work
         rdf:about="">
        <dc:format>image/svg+xml</dc:format>
        <dc:type
           rdf:resource="http://purl.org/dc/dcmitype/StillImage" />
      </cc:Work>
    </rdf:RDF>
  </metadata>
  <sodipodi:namedview
     inkscape:window-height="627"
     inkscape:window-width="910"
     inkscape:pageshadow="2"
     inkscape:pageopacity="0.0"
     guidetolerance="10.0"
     gridtolerance="10.0"
     objecttolerance="10.0"
     borderopacity="1.0"
     bordercolor="#666666"
     pagecolor="#ffffff"
     id="base"
     inkscape:zoom="0.35859031"
     inkscape:cx="945"
     inkscape:cy="567.5"
     inkscape:window-x="179"
     inkscape:window-y="138"
     inkscape:current-layer="svg2772" />
<!--Generated by ySVG-->  <defs
     id="genericDefs" />
  <g
     id="g2775">
    <defs
       id="defs1">
      <clipPath
         clipPathUnits="userSpaceOnUse"
         id="clipPath1">
        <path
           d="M0 0 L1890 0 L1890 1135 L0 1135 L0 0 Z"
           id="path2779" />
      </clipPath>
      <clipPath
         clipPathUnits="userSpaceOnUse"
         id="clipPath2">
        <path
           d="M-1645 -302 L245 -302 L245 833 L-1645 833 L-1645 -302 Z"
           id="path2782" />
      </clipPath>
      <clipPath
         clipPathUnits="userSpaceOnUse"
         id="clipPath3">
        <path
           d="M-2071.1531 558.6628 L-734.7212 -777.769 L67.845 24.7972 L-1268.5868 1361.229 L-2071.1531 558.6628 Z"
           id="path2785" />
      </clipPath>
      <clipPath
         clipPathUnits="userSpaceOnUse"
         id="clipPath4">
        <path
           d="M-1278.5691 -834.3638 L57.8627 502.068 L-744.7035 1304.6342 L-2081.1353 -31.7976 L-1278.5691 -834.3638 Z"
           id="path2788" />
      </clipPath>
    </defs>
    <g
       fill="white"
       transform="translate(1645,302)"
       stroke="white"
       id="g2790">
      <rect
         x="-1645"
         y="-302"
         clip-path="url(#clipPath2)"
         width="1890"
         height="1135"
         stroke="none"
         id="rect2792" />
    </g>
    <g
       fill="white"
       stroke="white"
       id="g2794">
      <rect
         x="9.125"
         y="1111.75"
         clip-path="url(#clipPath1)"
         width="104.9043"
         height="15.5625"
         stroke="none"
         id="rect2796" />
    </g>
    <g
       fill="silver"
       transform="matrix(1,0,0,1,1645,302)"
       stroke="silver"
       id="g2800">
      <rect
         x="-1629.5311"
         y="137.1418"
         clip-path="url(#clipPath2)"
         width="145.4089"
         rx="4"
         ry="4"
         height="232.5391"
         stroke="none"
         id="rect2802" />
    </g>
    <g
       stroke-dasharray="6,2"
       stroke-miterlimit="1.45"
       transform="matrix(1,0,0,1,1645,302)"
       stroke-linecap="butt"
       id="g2804">
      <rect
         x="-1629.5311"
         y="137.1418"
         clip-path="url(#clipPath2)"
         fill="none"
         width="145.4089"
         rx="4"
         ry="4"
         height="232.5391"
         id="rect2806" />
    </g>
    <g
       fill="silver"
       transform="matrix(1,0,0,1,1645,302)"
       stroke="silver"
       id="g2808">
      <rect
         x="-738.9807"
         y="584.6456"
         clip-path="url(#clipPath2)"
         width="145.4089"
         rx="4"
         ry="4"
         height="232.5391"
         stroke="none"
         id="rect2810" />
    </g>
    <g
       stroke-dasharray="6,2"
       stroke-miterlimit="1.45"
       transform="matrix(1,0,0,1,1645,302)"
       stroke-linecap="butt"
       id="g2812">
      <rect
         x="-738.9807"
         y="584.6456"
         clip-path="url(#clipPath2)"
         fill="none"
         width="145.4089"
         rx="4"
         ry="4"
         height="232.5391"
         id="rect2814" />
    </g>
    <g
       fill="silver"
       transform="matrix(1,0,0,1,1645,302)"
       stroke="silver"
       id="g2816">
      <rect
         x="-739.717"
         y="292.6194"
         clip-path="url(#clipPath2)"
         width="145.4089"
         rx="4"
         ry="4"
         height="232.5391"
         stroke="none"
         id="rect2818" />
    </g>
    <g
       stroke-dasharray="6,2"
       stroke-miterlimit="1.45"
       transform="matrix(1,0,0,1,1645,302)"
       stroke-linecap="butt"
       id="g2820">
      <rect
         x="-739.717"
         y="292.6194"
         clip-path="url(#clipPath2)"
         fill="none"
         width="145.4089"
         rx="4"
         ry="4"
         height="232.5391"
         id="rect2822" />
    </g>
    <g
       fill="silver"
       transform="matrix(1,0,0,1,1645,302)"
       stroke="silver"
       id="g2824">
      <rect
         x="-736.7084"
         y="5.0024"
         clip-path="url(#clipPath2)"
         width="145.4089"
         rx="4"
         ry="4"
         height="232.5391"
         stroke="none"
         id="rect2826" />
    </g>
    <g
       stroke-dasharray="6,2"
       stroke-miterlimit="1.45"
       transform="matrix(1,0,0,1,1645,302)"
       stroke-linecap="butt"
       id="g2828">
      <rect
         x="-736.7084"
         y="5.0024"
         clip-path="url(#clipPath2)"
         fill="none"
         width="145.4089"
         rx="4"
         ry="4"
         height="232.5391"
         id="rect2830" />
    </g>
    <g
       fill="silver"
       transform="matrix(1,0,0,1,1645,302)"
       stroke="silver"
       id="g2832">
      <rect
         x="-739.2586"
         y="-285.9114"
         clip-path="url(#clipPath2)"
         width="145.4089"
         rx="4"
         ry="4"
         height="232.5391"
         stroke="none"
         id="rect2834" />
    </g>
    <g
       stroke-dasharray="6,2"
       stroke-miterlimit="1.45"
       transform="matrix(1,0,0,1,1645,302)"
       stroke-linecap="butt"
       id="g2836">
      <rect
         x="-739.2586"
         y="-285.9114"
         clip-path="url(#clipPath2)"
         fill="none"
         width="145.4089"
         rx="4"
         ry="4"
         height="232.5391"
         id="rect2838" />
      <rect
         x="-739.2586"
         y="-286.743"
         clip-path="url(#clipPath2)"
         fill="none"
         width="690"
         stroke-dasharray="none"
         rx="4"
         ry="4"
         height="232.5391"
         stroke-width="3"
         id="rect2840" />
      <rect
         x="-737.0867"
         y="5.0109"
         clip-path="url(#clipPath2)"
         fill="none"
         width="690"
         stroke-dasharray="none"
         rx="4"
         ry="4"
         height="232.5391"
         stroke-width="3"
         id="rect2842" />
    </g>
    <g
       fill="rgb(255,204,0)"
       transform="matrix(1,0,0,1,1645,302)"
       stroke="rgb(255,204,0)"
       id="g2844">
      <rect
         x="-1399.8794"
         y="169.8875"
         clip-path="url(#clipPath2)"
         width="30"
         rx="4"
         ry="4"
         height="30"
         stroke="none"
         id="rect2846" />
    </g>
    <g
       font-size="13"
       font-family="sans-serif"
       transform="matrix(1,0,0,1,1645,302)"
       id="g2848">
      <text
         xml:space="preserve"
         x="-1388.8794"
         y="189.5613"
         clip-path="url(#clipPath2)"
         stroke="none"
         id="text2850">2</text>
    </g>
    <g
       stroke-miterlimit="1.45"
       transform="matrix(1,0,0,1,1645,302)"
       stroke-linecap="butt"
       id="g2852">
      <rect
         x="-1399.8794"
         y="169.8875"
         clip-path="url(#clipPath2)"
         fill="none"
         width="30"
         rx="4"
         ry="4"
         height="30"
         id="rect2854" />
    </g>
    <g
       fill="rgb(255,204,0)"
       transform="matrix(1,0,0,1,1645,302)"
       stroke="rgb(255,204,0)"
       id="g2856">
      <rect
         x="-1299.8794"
         y="169.8875"
         clip-path="url(#clipPath2)"
         width="30"
         rx="4"
         ry="4"
         height="30"
         stroke="none"
         id="rect2858" />
    </g>
    <g
       font-size="13"
       font-family="sans-serif"
       transform="matrix(1,0,0,1,1645,302)"
       id="g2860">
      <text
         xml:space="preserve"
         x="-1288.8794"
         y="189.5613"
         clip-path="url(#clipPath2)"
         stroke="none"
         id="text2862">3</text>
    </g>
    <g
       stroke-miterlimit="1.45"
       transform="matrix(1,0,0,1,1645,302)"
       stroke-linecap="butt"
       id="g2864">
      <rect
         x="-1299.8794"
         y="169.8875"
         clip-path="url(#clipPath2)"
         fill="none"
         width="30"
         rx="4"
         ry="4"
         height="30"
         id="rect2866" />
    </g>
    <g
       fill="rgb(255,204,0)"
       transform="matrix(1,0,0,1,1645,302)"
       stroke="rgb(255,204,0)"
       id="g2868">
      <rect
         x="-1499.8794"
         y="169.8875"
         clip-path="url(#clipPath2)"
         width="30"
         rx="4"
         ry="4"
         height="30"
         stroke="none"
         id="rect2870" />
    </g>
    <g
       font-size="13"
       font-family="sans-serif"
       transform="matrix(1,0,0,1,1645,302)"
       id="g2872">
      <text
         xml:space="preserve"
         x="-1488.8794"
         y="189.5613"
         clip-path="url(#clipPath2)"
         stroke="none"
         id="text2874">1</text>
    </g>
    <g
       stroke-miterlimit="1.45"
       transform="matrix(1,0,0,1,1645,302)"
       stroke-linecap="butt"
       id="g2876">
      <rect
         x="-1499.8794"
         y="169.8875"
         clip-path="url(#clipPath2)"
         fill="none"
         width="30"
         rx="4"
         ry="4"
         height="30"
         id="rect2878" />
    </g>
    <g
       fill="rgb(255,204,0)"
       transform="matrix(1,0,0,1,1645,302)"
       stroke="rgb(255,204,0)"
       id="g2880">
      <rect
         x="-1099.8794"
         y="169.8875"
         clip-path="url(#clipPath2)"
         width="30"
         rx="4"
         ry="4"
         height="30"
         stroke="none"
         id="rect2882" />
    </g>
    <g
       font-size="13"
       font-family="sans-serif"
       transform="matrix(1,0,0,1,1645,302)"
       id="g2884">
      <text
         xml:space="preserve"
         x="-1088.8794"
         y="189.5613"
         clip-path="url(#clipPath2)"
         stroke="none"
         id="text2886">5</text>
    </g>
    <g
       stroke-miterlimit="1.45"
       transform="matrix(1,0,0,1,1645,302)"
       stroke-linecap="butt"
       id="g2888">
      <rect
         x="-1099.8794"
         y="169.8875"
         clip-path="url(#clipPath2)"
         fill="none"
         width="30"
         rx="4"
         ry="4"
         height="30"
         id="rect2890" />
    </g>
    <g
       fill="rgb(255,204,0)"
       transform="matrix(1,0,0,1,1645,302)"
       stroke="rgb(255,204,0)"
       id="g2892">
      <rect
         x="-999.8794"
         y="169.8875"
         clip-path="url(#clipPath2)"
         width="30"
         rx="4"
         ry="4"
         height="30"
         stroke="none"
         id="rect2894" />
    </g>
    <g
       font-size="13"
       font-family="sans-serif"
       transform="matrix(1,0,0,1,1645,302)"
       id="g2896">
      <text
         xml:space="preserve"
         x="-988.8795"
         y="189.5613"
         clip-path="url(#clipPath2)"
         stroke="none"
         id="text2898">g</text>
    </g>
    <g
       stroke-miterlimit="1.45"
       transform="matrix(1,0,0,1,1645,302)"
       stroke-linecap="butt"
       id="g2900">
      <rect
         x="-999.8794"
         y="169.8875"
         clip-path="url(#clipPath2)"
         fill="none"
         width="30"
         rx="4"
         ry="4"
         height="30"
         id="rect2902" />
    </g>
    <g
       fill="rgb(255,204,0)"
       transform="matrix(1,0,0,1,1645,302)"
       stroke="rgb(255,204,0)"
       id="g2904">
      <rect
         x="-1199.8794"
         y="169.8875"
         clip-path="url(#clipPath2)"
         width="30"
         rx="4"
         ry="4"
         height="30"
         stroke="none"
         id="rect2906" />
    </g>
    <g
       font-size="13"
       font-family="sans-serif"
       transform="matrix(1,0,0,1,1645,302)"
       id="g2908">
      <text
         xml:space="preserve"
         x="-1188.8794"
         y="189.5613"
         clip-path="url(#clipPath2)"
         stroke="none"
         id="text2910">4</text>
    </g>
    <g
       stroke-miterlimit="1.45"
       transform="matrix(1,0,0,1,1645,302)"
       stroke-linecap="butt"
       id="g2912">
      <rect
         x="-1199.8794"
         y="169.8875"
         clip-path="url(#clipPath2)"
         fill="none"
         width="30"
         rx="4"
         ry="4"
         height="30"
         id="rect2914" />
    </g>
    <g
       fill="rgb(255,204,0)"
       transform="matrix(1,0,0,1,1645,302)"
       stroke="rgb(255,204,0)"
       id="g2916">
      <rect
         x="-1399.8794"
         y="319.8875"
         clip-path="url(#clipPath2)"
         width="30"
         rx="4"
         ry="4"
         height="30"
         stroke="none"
         id="rect2918" />
    </g>
    <g
       font-size="13"
       font-family="sans-serif"
       transform="matrix(1,0,0,1,1645,302)"
       id="g2920">
      <text
         xml:space="preserve"
         x="-1388.3794"
         y="339.5613"
         clip-path="url(#clipPath2)"
         stroke="none"
         id="text2922">F</text>
    </g>
    <g
       stroke-miterlimit="1.45"
       transform="matrix(1,0,0,1,1645,302)"
       stroke-linecap="butt"
       id="g2924">
      <rect
         x="-1399.8794"
         y="319.8875"
         clip-path="url(#clipPath2)"
         fill="none"
         width="30"
         rx="4"
         ry="4"
         height="30"
         id="rect2926" />
    </g>
    <g
       fill="rgb(255,204,0)"
       transform="matrix(1,0,0,1,1645,302)"
       stroke="rgb(255,204,0)"
       id="g2928">
      <rect
         x="-1599.8794"
         y="169.8875"
         clip-path="url(#clipPath2)"
         width="30"
         rx="4"
         ry="4"
         height="30"
         stroke="none"
         id="rect2930" />
    </g>
    <g
       font-size="13"
       font-family="sans-serif"
       transform="matrix(1,0,0,1,1645,302)"
       id="g2932">
      <text
         xml:space="preserve"
         x="-1592.3794"
         y="189.5613"
         clip-path="url(#clipPath2)"
         stroke="none"
         id="text2934">S0</text>
    </g>
    <g
       stroke-miterlimit="1.45"
       transform="matrix(1,0,0,1,1645,302)"
       stroke-linecap="butt"
       id="g2936">
      <rect
         x="-1599.8794"
         y="169.8875"
         clip-path="url(#clipPath2)"
         fill="none"
         width="30"
         rx="4"
         ry="4"
         height="30"
         id="rect2938" />
    </g>
    <g
       fill="rgb(255,204,0)"
       transform="matrix(1,0,0,1,1645,302)"
       stroke="rgb(255,204,0)"
       id="g2940">
      <rect
         x="-607.3997"
         y="37.4204"
         clip-path="url(#clipPath2)"
         width="30"
         rx="4"
         ry="4"
         height="30"
         stroke="none"
         id="rect2942" />
    </g>
    <g
       font-size="13"
       font-family="sans-serif"
       transform="matrix(1,0,0,1,1645,302)"
       id="g2944">
      <text
         xml:space="preserve"
         x="-596.3997"
         y="57.0941"
         clip-path="url(#clipPath2)"
         stroke="none"
         id="text2946">1</text>
    </g>
    <g
       stroke-miterlimit="1.45"
       transform="matrix(1,0,0,1,1645,302)"
       stroke-linecap="butt"
       id="g2948">
      <rect
         x="-607.3997"
         y="37.4204"
         clip-path="url(#clipPath2)"
         fill="none"
         width="30"
         rx="4"
         ry="4"
         height="30"
         id="rect2950" />
    </g>
    <g
       fill="rgb(255,204,0)"
       transform="matrix(1,0,0,1,1645,302)"
       stroke="rgb(255,204,0)"
       id="g2952">
      <rect
         x="-207.3997"
         y="37.4204"
         clip-path="url(#clipPath2)"
         width="30"
         rx="4"
         ry="4"
         height="30"
         stroke="none"
         id="rect2954" />
    </g>
    <g
       font-size="13"
       font-family="sans-serif"
       transform="matrix(1,0,0,1,1645,302)"
       id="g2956">
      <text
         xml:space="preserve"
         x="-196.3997"
         y="57.0941"
         clip-path="url(#clipPath2)"
         stroke="none"
         id="text2958">5</text>
    </g>
    <g
       stroke-miterlimit="1.45"
       transform="matrix(1,0,0,1,1645,302)"
       stroke-linecap="butt"
       id="g2960">
      <rect
         x="-207.3997"
         y="37.4204"
         clip-path="url(#clipPath2)"
         fill="none"
         width="30"
         rx="4"
         ry="4"
         height="30"
         id="rect2962" />
    </g>
    <g
       fill="rgb(255,204,0)"
       transform="matrix(1,0,0,1,1645,302)"
       stroke="rgb(255,204,0)"
       id="g2964">
      <rect
         x="-107.3997"
         y="37.4204"
         clip-path="url(#clipPath2)"
         width="30"
         rx="4"
         ry="4"
         height="30"
         stroke="none"
         id="rect2966" />
    </g>
    <g
       font-size="13"
       font-family="sans-serif"
       transform="matrix(1,0,0,1,1645,302)"
       id="g2968">
      <text
         xml:space="preserve"
         x="-96.3997"
         y="57.0941"
         clip-path="url(#clipPath2)"
         stroke="none"
         id="text2970">g</text>
    </g>
    <g
       stroke-miterlimit="1.45"
       transform="matrix(1,0,0,1,1645,302)"
       stroke-linecap="butt"
       id="g2972">
      <rect
         x="-107.3997"
         y="37.4204"
         clip-path="url(#clipPath2)"
         fill="none"
         width="30"
         rx="4"
         ry="4"
         height="30"
         id="rect2974" />
    </g>
    <g
       fill="rgb(255,204,0)"
       transform="matrix(1,0,0,1,1645,302)"
       stroke="rgb(255,204,0)"
       id="g2976">
      <rect
         x="-307.3997"
         y="37.4204"
         clip-path="url(#clipPath2)"
         width="30"
         rx="4"
         ry="4"
         height="30"
         stroke="none"
         id="rect2978" />
    </g>
    <g
       font-size="13"
       font-family="sans-serif"
       transform="matrix(1,0,0,1,1645,302)"
       id="g2980">
      <text
         xml:space="preserve"
         x="-296.3997"
         y="57.0941"
         clip-path="url(#clipPath2)"
         stroke="none"
         id="text2982">4</text>
    </g>
    <g
       stroke-miterlimit="1.45"
       transform="matrix(1,0,0,1,1645,302)"
       stroke-linecap="butt"
       id="g2984">
      <rect
         x="-307.3997"
         y="37.4204"
         clip-path="url(#clipPath2)"
         fill="none"
         width="30"
         rx="4"
         ry="4"
         height="30"
         id="rect2986" />
    </g>
    <g
       fill="rgb(255,204,0)"
       transform="matrix(1,0,0,1,1645,302)"
       stroke="rgb(255,204,0)"
       id="g2988">
      <rect
         x="-507.3997"
         y="187.4204"
         clip-path="url(#clipPath2)"
         width="30"
         rx="4"
         ry="4"
         height="30"
         stroke="none"
         id="rect2990" />
    </g>
    <g
       font-size="13"
       font-family="sans-serif"
       transform="matrix(1,0,0,1,1645,302)"
       id="g2992">
      <text
         xml:space="preserve"
         x="-495.8997"
         y="207.0941"
         clip-path="url(#clipPath2)"
         stroke="none"
         id="text2994">F</text>
    </g>
    <g
       stroke-miterlimit="1.45"
       transform="matrix(1,0,0,1,1645,302)"
       stroke-linecap="butt"
       id="g2996">
      <rect
         x="-507.3997"
         y="187.4204"
         clip-path="url(#clipPath2)"
         fill="none"
         width="30"
         rx="4"
         ry="4"
         height="30"
         id="rect2998" />
    </g>
    <g
       fill="rgb(255,204,0)"
       transform="matrix(1,0,0,1,1645,302)"
       stroke="rgb(255,204,0)"
       id="g3000">
      <rect
         x="-707.3997"
         y="37.4204"
         clip-path="url(#clipPath2)"
         width="30"
         rx="4"
         ry="4"
         height="30"
         stroke="none"
         id="rect3002" />
    </g>
    <g
       font-size="13"
       font-family="sans-serif"
       transform="matrix(1,0,0,1,1645,302)"
       id="g3004">
      <text
         xml:space="preserve"
         x="-699.8997"
         y="57.0941"
         clip-path="url(#clipPath2)"
         stroke="none"
         id="text3006">S0</text>
    </g>
    <g
       stroke-miterlimit="1.45"
       transform="matrix(1,0,0,1,1645,302)"
       stroke-linecap="butt"
       id="g3008">
      <rect
         x="-707.3997"
         y="37.4204"
         clip-path="url(#clipPath2)"
         fill="none"
         width="30"
         rx="4"
         ry="4"
         height="30"
         id="rect3010" />
    </g>
    <g
       fill="rgb(255,204,0)"
       transform="matrix(1,0,0,1,1645,302)"
       stroke="rgb(255,204,0)"
       id="g3012">
      <rect
         x="-609.8215"
         y="324.4165"
         clip-path="url(#clipPath2)"
         width="30"
         rx="4"
         ry="4"
         height="30"
         stroke="none"
         id="rect3014" />
    </g>
    <g
       font-size="13"
       font-family="sans-serif"
       transform="matrix(1,0,0,1,1645,302)"
       id="g3016">
      <text
         xml:space="preserve"
         x="-598.8215"
         y="344.0902"
         clip-path="url(#clipPath2)"
         stroke="none"
         id="text3018">1</text>
    </g>
    <g
       stroke-miterlimit="1.45"
       transform="matrix(1,0,0,1,1645,302)"
       stroke-linecap="butt"
       id="g3020">
      <rect
         x="-609.8215"
         y="324.4165"
         clip-path="url(#clipPath2)"
         fill="none"
         width="30"
         rx="4"
         ry="4"
         height="30"
         id="rect3022" />
    </g>
    <g
       fill="rgb(255,204,0)"
       transform="matrix(1,0,0,1,1645,302)"
       stroke="rgb(255,204,0)"
       id="g3024">
      <rect
         x="-209.8215"
         y="324.4165"
         clip-path="url(#clipPath2)"
         width="30"
         rx="4"
         ry="4"
         height="30"
         stroke="none"
         id="rect3026" />
    </g>
    <g
       font-size="13"
       font-family="sans-serif"
       transform="matrix(1,0,0,1,1645,302)"
       id="g3028">
      <text
         xml:space="preserve"
         x="-198.8215"
         y="344.0902"
         clip-path="url(#clipPath2)"
         stroke="none"
         id="text3030">5</text>
    </g>
    <g
       stroke-miterlimit="1.45"
       transform="matrix(1,0,0,1,1645,302)"
       stroke-linecap="butt"
       id="g3032">
      <rect
         x="-209.8215"
         y="324.4165"
         clip-path="url(#clipPath2)"
         fill="none"
         width="30"
         rx="4"
         ry="4"
         height="30"
         id="rect3034" />
    </g>
    <g
       fill="rgb(255,204,0)"
       transform="matrix(1,0,0,1,1645,302)"
       stroke="rgb(255,204,0)"
       id="g3036">
      <rect
         x="-109.8215"
         y="324.4165"
         clip-path="url(#clipPath2)"
         width="30"
         rx="4"
         ry="4"
         height="30"
         stroke="none"
         id="rect3038" />
    </g>
    <g
       font-size="13"
       font-family="sans-serif"
       transform="matrix(1,0,0,1,1645,302)"
       id="g3040">
      <text
         xml:space="preserve"
         x="-98.8215"
         y="344.0902"
         clip-path="url(#clipPath2)"
         stroke="none"
         id="text3042">g</text>
    </g>
    <g
       stroke-miterlimit="1.45"
       transform="matrix(1,0,0,1,1645,302)"
       stroke-linecap="butt"
       id="g3044">
      <rect
         x="-109.8215"
         y="324.4165"
         clip-path="url(#clipPath2)"
         fill="none"
         width="30"
         rx="4"
         ry="4"
         height="30"
         id="rect3046" />
    </g>
    <g
       fill="rgb(255,204,0)"
       transform="matrix(1,0,0,1,1645,302)"
       stroke="rgb(255,204,0)"
       id="g3048">
      <rect
         x="-509.8215"
         y="474.4165"
         clip-path="url(#clipPath2)"
         width="30"
         rx="4"
         ry="4"
         height="30"
         stroke="none"
         id="rect3050" />
    </g>
    <g
       font-size="13"
       font-family="sans-serif"
       transform="matrix(1,0,0,1,1645,302)"
       id="g3052">
      <text
         xml:space="preserve"
         x="-498.3215"
         y="494.0902"
         clip-path="url(#clipPath2)"
         stroke="none"
         id="text3054">F</text>
    </g>
    <g
       stroke-miterlimit="1.45"
       transform="matrix(1,0,0,1,1645,302)"
       stroke-linecap="butt"
       id="g3056">
      <rect
         x="-509.8215"
         y="474.4165"
         clip-path="url(#clipPath2)"
         fill="none"
         width="30"
         rx="4"
         ry="4"
         height="30"
         id="rect3058" />
    </g>
    <g
       fill="rgb(255,204,0)"
       transform="matrix(1,0,0,1,1645,302)"
       stroke="rgb(255,204,0)"
       id="g3060">
      <rect
         x="-709.8215"
         y="324.4165"
         clip-path="url(#clipPath2)"
         width="30"
         rx="4"
         ry="4"
         height="30"
         stroke="none"
         id="rect3062" />
    </g>
    <g
       font-size="13"
       font-family="sans-serif"
       transform="matrix(1,0,0,1,1645,302)"
       id="g3064">
      <text
         xml:space="preserve"
         x="-702.3215"
         y="344.0902"
         clip-path="url(#clipPath2)"
         stroke="none"
         id="text3066">S0</text>
    </g>
    <g
       stroke-miterlimit="1.45"
       transform="matrix(1,0,0,1,1645,302)"
       stroke-linecap="butt"
       id="g3068">
      <rect
         x="-709.8215"
         y="324.4165"
         clip-path="url(#clipPath2)"
         fill="none"
         width="30"
         rx="4"
         ry="4"
         height="30"
         id="rect3070" />
    </g>
    <g
       fill="rgb(255,204,0)"
       transform="matrix(1,0,0,1,1645,302)"
       stroke="rgb(255,204,0)"
       id="g3072">
      <rect
         x="-409.5715"
         y="-254.3335"
         clip-path="url(#clipPath2)"
         width="30"
         rx="4"
         ry="4"
         height="30"
         stroke="none"
         id="rect3074" />
    </g>
    <g
       font-size="13"
       font-family="sans-serif"
       transform="matrix(1,0,0,1,1645,302)"
       id="g3076">
      <text
         xml:space="preserve"
         x="-398.5715"
         y="-234.6598"
         clip-path="url(#clipPath2)"
         stroke="none"
         id="text3078">3</text>
    </g>
    <g
       stroke-miterlimit="1.45"
       transform="matrix(1,0,0,1,1645,302)"
       stroke-linecap="butt"
       id="g3080">
      <rect
         x="-409.5715"
         y="-254.3335"
         clip-path="url(#clipPath2)"
         fill="none"
         width="30"
         rx="4"
         ry="4"
         height="30"
         id="rect3082" />
    </g>
    <g
       fill="rgb(255,204,0)"
       transform="matrix(1,0,0,1,1645,302)"
       stroke="rgb(255,204,0)"
       id="g3084">
      <rect
         x="-609.5715"
         y="-254.3335"
         clip-path="url(#clipPath2)"
         width="30"
         rx="4"
         ry="4"
         height="30"
         stroke="none"
         id="rect3086" />
    </g>
    <g
       font-size="13"
       font-family="sans-serif"
       transform="matrix(1,0,0,1,1645,302)"
       id="g3088">
      <text
         xml:space="preserve"
         x="-598.5715"
         y="-234.6598"
         clip-path="url(#clipPath2)"
         stroke="none"
         id="text3090">1</text>
    </g>
    <g
       stroke-miterlimit="1.45"
       transform="matrix(1,0,0,1,1645,302)"
       stroke-linecap="butt"
       id="g3092">
      <rect
         x="-609.5715"
         y="-254.3335"
         clip-path="url(#clipPath2)"
         fill="none"
         width="30"
         rx="4"
         ry="4"
         height="30"
         id="rect3094" />
    </g>
    <g
       fill="rgb(255,204,0)"
       transform="matrix(1,0,0,1,1645,302)"
       stroke="rgb(255,204,0)"
       id="g3096">
      <rect
         x="-209.5715"
         y="-254.3335"
         clip-path="url(#clipPath2)"
         width="30"
         rx="4"
         ry="4"
         height="30"
         stroke="none"
         id="rect3098" />
    </g>
    <g
       font-size="13"
       font-family="sans-serif"
       transform="matrix(1,0,0,1,1645,302)"
       id="g3100">
      <text
         xml:space="preserve"
         x="-198.5715"
         y="-234.6598"
         clip-path="url(#clipPath2)"
         stroke="none"
         id="text3102">5</text>
    </g>
    <g
       stroke-miterlimit="1.45"
       transform="matrix(1,0,0,1,1645,302)"
       stroke-linecap="butt"
       id="g3104">
      <rect
         x="-209.5715"
         y="-254.3335"
         clip-path="url(#clipPath2)"
         fill="none"
         width="30"
         rx="4"
         ry="4"
         height="30"
         id="rect3106" />
    </g>
    <g
       fill="rgb(255,204,0)"
       transform="matrix(1,0,0,1,1645,302)"
       stroke="rgb(255,204,0)"
       id="g3108">
      <rect
         x="-109.5715"
         y="-254.3335"
         clip-path="url(#clipPath2)"
         width="30"
         rx="4"
         ry="4"
         height="30"
         stroke="none"
         id="rect3110" />
    </g>
    <g
       font-size="13"
       font-family="sans-serif"
       transform="matrix(1,0,0,1,1645,302)"
       id="g3112">
      <text
         xml:space="preserve"
         x="-98.5715"
         y="-234.6598"
         clip-path="url(#clipPath2)"
         stroke="none"
         id="text3114">g</text>
    </g>
    <g
       stroke-miterlimit="1.45"
       transform="matrix(1,0,0,1,1645,302)"
       stroke-linecap="butt"
       id="g3116">
      <rect
         x="-109.5715"
         y="-254.3335"
         clip-path="url(#clipPath2)"
         fill="none"
         width="30"
         rx="4"
         ry="4"
         height="30"
         id="rect3118" />
    </g>
    <g
       fill="rgb(255,204,0)"
       transform="matrix(1,0,0,1,1645,302)"
       stroke="rgb(255,204,0)"
       id="g3120">
      <rect
         x="-309.5715"
         y="-254.3335"
         clip-path="url(#clipPath2)"
         width="30"
         rx="4"
         ry="4"
         height="30"
         stroke="none"
         id="rect3122" />
    </g>
    <g
       font-size="13"
       font-family="sans-serif"
       transform="matrix(1,0,0,1,1645,302)"
       id="g3124">
      <text
         xml:space="preserve"
         x="-298.5715"
         y="-234.6598"
         clip-path="url(#clipPath2)"
         stroke="none"
         id="text3126">4</text>
    </g>
    <g
       stroke-miterlimit="1.45"
       transform="matrix(1,0,0,1,1645,302)"
       stroke-linecap="butt"
       id="g3128">
      <rect
         x="-309.5715"
         y="-254.3335"
         clip-path="url(#clipPath2)"
         fill="none"
         width="30"
         rx="4"
         ry="4"
         height="30"
         id="rect3130" />
    </g>
    <g
       fill="rgb(255,204,0)"
       transform="matrix(1,0,0,1,1645,302)"
       stroke="rgb(255,204,0)"
       id="g3132">
      <rect
         x="-509.5715"
         y="-104.3335"
         clip-path="url(#clipPath2)"
         width="30"
         rx="4"
         ry="4"
         height="30"
         stroke="none"
         id="rect3134" />
    </g>
    <g
       font-size="13"
       font-family="sans-serif"
       transform="matrix(1,0,0,1,1645,302)"
       id="g3136">
      <text
         xml:space="preserve"
         x="-498.0715"
         y="-84.6598"
         clip-path="url(#clipPath2)"
         stroke="none"
         id="text3138">F</text>
    </g>
    <g
       stroke-miterlimit="1.45"
       transform="matrix(1,0,0,1,1645,302)"
       stroke-linecap="butt"
       id="g3140">
      <rect
         x="-509.5715"
         y="-104.3335"
         clip-path="url(#clipPath2)"
         fill="none"
         width="30"
         rx="4"
         ry="4"
         height="30"
         id="rect3142" />
    </g>
    <g
       fill="rgb(255,204,0)"
       transform="matrix(1,0,0,1,1645,302)"
       stroke="rgb(255,204,0)"
       id="g3144">
      <rect
         x="-709.5715"
         y="-254.3335"
         clip-path="url(#clipPath2)"
         width="30"
         rx="4"
         ry="4"
         height="30"
         stroke="none"
         id="rect3146" />
    </g>
    <g
       font-size="13"
       font-family="sans-serif"
       transform="matrix(1,0,0,1,1645,302)"
       id="g3148">
      <text
         xml:space="preserve"
         x="-702.0715"
         y="-234.6598"
         clip-path="url(#clipPath2)"
         stroke="none"
         id="text3150">S0</text>
    </g>
    <g
       stroke-miterlimit="1.45"
       transform="matrix(1,0,0,1,1645,302)"
       stroke-linecap="butt"
       id="g3152">
      <rect
         x="-709.5715"
         y="-254.3335"
         clip-path="url(#clipPath2)"
         fill="none"
         width="30"
         rx="4"
         ry="4"
         height="30"
         id="rect3154" />
    </g>
    <g
       fill="rgb(255,204,0)"
       transform="matrix(1,0,0,1,1645,302)"
       stroke="rgb(255,204,0)"
       id="g3156">
      <rect
         x="-610.1965"
         y="616.604"
         clip-path="url(#clipPath2)"
         width="30"
         rx="4"
         ry="4"
         height="30"
         stroke="none"
         id="rect3158" />
    </g>
    <g
       font-size="13"
       font-family="sans-serif"
       transform="matrix(1,0,0,1,1645,302)"
       id="g3160">
      <text
         xml:space="preserve"
         x="-599.1965"
         y="636.2777"
         clip-path="url(#clipPath2)"
         stroke="none"
         id="text3162">1</text>
    </g>
    <g
       stroke-miterlimit="1.45"
       transform="matrix(1,0,0,1,1645,302)"
       stroke-linecap="butt"
       id="g3164">
      <rect
         x="-610.1965"
         y="616.604"
         clip-path="url(#clipPath2)"
         fill="none"
         width="30"
         rx="4"
         ry="4"
         height="30"
         id="rect3166" />
    </g>
    <g
       fill="rgb(255,204,0)"
       transform="matrix(1,0,0,1,1645,302)"
       stroke="rgb(255,204,0)"
       id="g3168">
      <rect
         x="-110.1965"
         y="616.604"
         clip-path="url(#clipPath2)"
         width="30"
         rx="4"
         ry="4"
         height="30"
         stroke="none"
         id="rect3170" />
    </g>
    <g
       font-size="13"
       font-family="sans-serif"
       transform="matrix(1,0,0,1,1645,302)"
       id="g3172">
      <text
         xml:space="preserve"
         x="-99.1965"
         y="636.2777"
         clip-path="url(#clipPath2)"
         stroke="none"
         id="text3174">g</text>
    </g>
    <g
       stroke-miterlimit="1.45"
       transform="matrix(1,0,0,1,1645,302)"
       stroke-linecap="butt"
       id="g3176">
      <rect
         x="-110.1965"
         y="616.604"
         clip-path="url(#clipPath2)"
         fill="none"
         width="30"
         rx="4"
         ry="4"
         height="30"
         id="rect3178" />
    </g>
    <g
       fill="rgb(255,204,0)"
       transform="matrix(1,0,0,1,1645,302)"
       stroke="rgb(255,204,0)"
       id="g3180">
      <rect
         x="-510.1965"
         y="766.604"
         clip-path="url(#clipPath2)"
         width="30"
         rx="4"
         ry="4"
         height="30"
         stroke="none"
         id="rect3182" />
    </g>
    <g
       font-size="13"
       font-family="sans-serif"
       transform="matrix(1,0,0,1,1645,302)"
       id="g3184">
      <text
         xml:space="preserve"
         x="-498.6965"
         y="786.2777"
         clip-path="url(#clipPath2)"
         stroke="none"
         id="text3186">F</text>
    </g>
    <g
       stroke-miterlimit="1.45"
       transform="matrix(1,0,0,1,1645,302)"
       stroke-linecap="butt"
       id="g3188">
      <rect
         x="-510.1965"
         y="766.604"
         clip-path="url(#clipPath2)"
         fill="none"
         width="30"
         rx="4"
         ry="4"
         height="30"
         id="rect3190" />
    </g>
    <g
       fill="rgb(255,204,0)"
       transform="matrix(1,0,0,1,1645,302)"
       stroke="rgb(255,204,0)"
       id="g3192">
      <rect
         x="-710.1965"
         y="616.604"
         clip-path="url(#clipPath2)"
         width="30"
         rx="4"
         ry="4"
         height="30"
         stroke="none"
         id="rect3194" />
    </g>
    <g
       font-size="13"
       font-family="sans-serif"
       transform="matrix(1,0,0,1,1645,302)"
       id="g3196">
      <text
         xml:space="preserve"
         x="-702.6965"
         y="636.2777"
         clip-path="url(#clipPath2)"
         stroke="none"
         id="text3198">S0</text>
    </g>
    <g
       stroke-miterlimit="1.45"
       transform="matrix(1,0,0,1,1645,302)"
       stroke-linecap="butt"
       id="g3200">
      <rect
         x="-710.1965"
         y="616.604"
         clip-path="url(#clipPath2)"
         fill="none"
         width="30"
         rx="4"
         ry="4"
         height="30"
         id="rect3202" />
    </g>
    <g
       font-size="45"
       font-family="sans-serif"
       transform="matrix(1,0,0,1,1645,302)"
       id="g3204">
      <text
         xml:space="preserve"
         x="43.8354"
         y="-158.0201"
         clip-path="url(#clipPath2)"
         stroke="none"
         id="text3206">=&gt;    h1</text>
      <text
         xml:space="preserve"
         x="43.8354"
         y="128.9845"
         clip-path="url(#clipPath2)"
         stroke="none"
         id="text3208">=&gt;    h2</text>
      <text
         xml:space="preserve"
         x="43.8354"
         y="419.9731"
         clip-path="url(#clipPath2)"
         stroke="none"
         id="text3210">=&gt;    h3</text>
      <text
         xml:space="preserve"
         x="43.8354"
         y="696.5198"
         clip-path="url(#clipPath2)"
         stroke="none"
         id="text3212">=&gt;    hn</text>
    </g>
    <g
       font-size="45"
       font-family="sans-serif"
       transform="matrix(1,0,0,1,1645,302) translate(-819.1646,642.7436) rotate(45) translate(819.1646,-642.7436)"
       id="g3214">
      <text
         xml:space="preserve"
         x="-862.1646"
         y="658.9157"
         clip-path="url(#clipPath3)"
         stroke="none"
         id="text3216">=&gt; </text>
    </g>
    <g
       font-size="45"
       font-family="sans-serif"
       transform="matrix(1,0,0,1,1645,302) translate(-819.1646,-125.8607) rotate(315) translate(819.1646,125.8607)"
       id="g3218">
      <text
         xml:space="preserve"
         x="-862.1646"
         y="-109.6886"
         clip-path="url(#clipPath4)"
         stroke="none"
         id="text3220">=&gt; </text>
    </g>
    <g
       font-size="45"
       font-family="sans-serif"
       transform="matrix(1,0,0,1,1645,302)"
       id="g3222">
      <text
         xml:space="preserve"
         x="-862.1646"
         y="420.1187"
         clip-path="url(#clipPath2)"
         stroke="none"
         id="text3224">=&gt; </text>
      <text
         xml:space="preserve"
         x="-862.1646"
         y="132.8767"
         clip-path="url(#clipPath2)"
         stroke="none"
         id="text3226">=&gt; </text>
      <text
         xml:space="preserve"
         x="-990.6072"
         y="346.337"
         clip-path="url(#clipPath2)"
         stroke="none"
         id="text3228">P</text>
      <text
         font-size="35"
         x="-721"
         y="-74.8451"
         clip-path="url(#clipPath2)"
         stroke="none"
         xml:space="preserve"
         id="text3230">1</text>
      <text
         font-size="35"
         x="-721"
         y="215.4146"
         clip-path="url(#clipPath2)"
         stroke="none"
         xml:space="preserve"
         id="text3232">2</text>
      <text
         font-size="35"
         x="-721"
         y="508.7263"
         clip-path="url(#clipPath2)"
         stroke="none"
         xml:space="preserve"
         id="text3234">3</text>
      <text
         font-size="35"
         x="-721"
         y="795.9341"
         clip-path="url(#clipPath2)"
         stroke="none"
         xml:space="preserve"
         id="text3236">n</text>
    </g>
    <g
       stroke-width="3"
       stroke-miterlimit="1.45"
       transform="matrix(1,0,0,1,1645,302)"
       stroke-linecap="butt"
       id="g3238">
      <rect
         x="-1629.5665"
         y="137.478"
         clip-path="url(#clipPath2)"
         fill="none"
         width="690"
         rx="4"
         ry="4"
         height="232.5391"
         id="rect3240" />
      <rect
         x="-739.8836"
         y="584.1945"
         clip-path="url(#clipPath2)"
         fill="none"
         width="690"
         rx="4"
         ry="4"
         height="232.5391"
         id="rect3242" />
      <rect
         x="-739.5086"
         y="292.007"
         clip-path="url(#clipPath2)"
         fill="none"
         width="690"
         rx="4"
         ry="4"
         height="232.5391"
         id="rect3244" />
      <path
         fill="none"
         d="M-1469.8892 184.8875 L-1409.8641 184.8875"
         clip-path="url(#clipPath2)"
         id="path3246" />
      <path
         d="M-1399.8641 184.8875 L-1414.8641 178.6375 L-1411.1141 184.8875 L-1414.8641 191.1375 Z"
         clip-path="url(#clipPath2)"
         stroke="none"
         id="path3248" />
      <path
         fill="none"
         d="M-1369.8892 184.8875 L-1309.8641 184.8875"
         clip-path="url(#clipPath2)"
         id="path3250" />
      <path
         d="M-1299.8641 184.8875 L-1314.8641 178.6375 L-1311.1141 184.8875 L-1314.8641 191.1375 Z"
         clip-path="url(#clipPath2)"
         stroke="none"
         id="path3252" />
      <path
         fill="none"
         d="M-1269.8892 184.8875 L-1209.8641 184.8875"
         clip-path="url(#clipPath2)"
         id="path3254" />
      <path
         d="M-1199.8641 184.8875 L-1214.8641 178.6375 L-1211.1141 184.8875 L-1214.8641 191.1375 Z"
         clip-path="url(#clipPath2)"
         stroke="none"
         id="path3256" />
      <path
         fill="none"
         d="M-1169.8892 184.8875 L-1109.8641 184.8875"
         clip-path="url(#clipPath2)"
         id="path3258" />
      <path
         d="M-1099.8641 184.8875 L-1114.8641 178.6375 L-1111.1141 184.8875 L-1114.8641 191.1375 Z"
         clip-path="url(#clipPath2)"
         stroke="none"
         id="path3260" />
      <path
         fill="none"
         d="M-1069.8892 184.8875 L-1009.8641 184.8875"
         clip-path="url(#clipPath2)"
         id="path3262" />
      <path
         d="M-999.8641 184.8875 L-1014.8641 178.6375 L-1011.1141 184.8875 L-1014.8641 191.1375 Z"
         clip-path="url(#clipPath2)"
         stroke="none"
         id="path3264" />
      <path
         fill="none"
         stroke-dasharray="18,6"
         d="M-1474.894 199.8656 L-1400.4257 311.5683"
         clip-path="url(#clipPath2)"
         id="path3266" />
      <path
         stroke-dasharray="18,6"
         d="M-1394.8787 319.8888 L-1397.9989 303.9411 L-1401.119 310.5282 L-1408.3994 310.8749 Z"
         clip-path="url(#clipPath2)"
         stroke="none"
         id="path3268" />
      <path
         fill="none"
         d="M-1569.8892 184.8875 L-1509.8641 184.8875"
         clip-path="url(#clipPath2)"
         id="path3270" />
      <path
         d="M-1499.8641 184.8875 L-1514.8641 178.6375 L-1511.1141 184.8875 L-1514.8641 191.1375 Z"
         clip-path="url(#clipPath2)"
         stroke="none"
         id="path3272" />
      <path
         fill="none"
         d="M-277.4094 52.4204 L-217.3843 52.4204"
         clip-path="url(#clipPath2)"
         id="path3274" />
      <path
         d="M-207.3843 52.4204 L-222.3843 46.1704 L-218.6343 52.4204 L-222.3843 58.6704 Z"
         clip-path="url(#clipPath2)"
         stroke="none"
         id="path3276" />
      <path
         fill="none"
         d="M-177.4094 52.4204 L-117.3843 52.4204"
         clip-path="url(#clipPath2)"
         id="path3278" />
      <path
         d="M-107.3843 52.4204 L-122.3843 46.1704 L-118.6343 52.4204 L-122.3843 58.6704 Z"
         clip-path="url(#clipPath2)"
         stroke="none"
         id="path3280" />
      <path
         fill="none"
         stroke-dasharray="18,6"
         d="M-582.4143 67.3984 L-507.9458 179.1011"
         clip-path="url(#clipPath2)"
         id="path3282" />
      <path
         stroke-dasharray="18,6"
         d="M-502.3988 187.4216 L-505.519 171.474 L-508.6392 178.0611 L-515.9197 178.4078 Z"
         clip-path="url(#clipPath2)"
         stroke="none"
         id="path3284" />
      <path
         fill="none"
         d="M-677.4094 52.4204 L-617.3843 52.4204"
         clip-path="url(#clipPath2)"
         id="path3286" />
      <path
         d="M-607.3843 52.4204 L-622.3843 46.1704 L-618.6343 52.4204 L-622.3843 58.6704 Z"
         clip-path="url(#clipPath2)"
         stroke="none"
         id="path3288" />
      <path
         fill="none"
         d="M-179.8313 339.4165 L-119.8062 339.4165"
         clip-path="url(#clipPath2)"
         id="path3290" />
      <path
         d="M-109.8062 339.4165 L-124.8062 333.1665 L-121.0562 339.4165 L-124.8062 345.6665 Z"
         clip-path="url(#clipPath2)"
         stroke="none"
         id="path3292" />
      <path
         fill="none"
         stroke-dasharray="18,6"
         d="M-584.8362 354.3945 L-510.3677 466.0972"
         clip-path="url(#clipPath2)"
         id="path3294" />
      <path
         stroke-dasharray="18,6"
         d="M-504.8207 474.4177 L-507.9409 458.4701 L-511.0611 465.0572 L-518.3416 465.4038 Z"
         clip-path="url(#clipPath2)"
         stroke="none"
         id="path3296" />
      <path
         fill="none"
         d="M-679.8313 339.4165 L-619.8062 339.4165"
         clip-path="url(#clipPath2)"
         id="path3298" />
      <path
         d="M-609.8062 339.4165 L-624.8062 333.1665 L-621.0562 339.4165 L-624.8062 345.6665 Z"
         clip-path="url(#clipPath2)"
         stroke="none"
         id="path3300" />
      <path
         fill="none"
         d="M-379.5813 -239.3335 L-319.5562 -239.3335"
         clip-path="url(#clipPath2)"
         id="path3302" />
      <path
         d="M-309.5562 -239.3335 L-324.5562 -245.5835 L-320.8062 -239.3335 L-324.5562 -233.0835 Z"
         clip-path="url(#clipPath2)"
         stroke="none"
         id="path3304" />
      <path
         fill="none"
         d="M-279.5813 -239.3335 L-219.5562 -239.3335"
         clip-path="url(#clipPath2)"
         id="path3306" />
      <path
         d="M-209.5562 -239.3335 L-224.5562 -245.5835 L-220.8062 -239.3335 L-224.5562 -233.0835 Z"
         clip-path="url(#clipPath2)"
         stroke="none"
         id="path3308" />
      <path
         fill="none"
         d="M-179.5813 -239.3335 L-119.5562 -239.3335"
         clip-path="url(#clipPath2)"
         id="path3310" />
      <path
         d="M-109.5562 -239.3335 L-124.5562 -245.5835 L-120.8062 -239.3335 L-124.5562 -233.0835 Z"
         clip-path="url(#clipPath2)"
         stroke="none"
         id="path3312" />
      <path
         fill="none"
         stroke-dasharray="18,6"
         d="M-584.5862 -224.3555 L-510.1177 -112.6528"
         clip-path="url(#clipPath2)"
         id="path3314" />
      <path
         stroke-dasharray="18,6"
         d="M-504.5707 -104.3323 L-507.6909 -120.2799 L-510.8111 -113.6928 L-518.0916 -113.3462 Z"
         clip-path="url(#clipPath2)"
         stroke="none"
         id="path3316" />
      <path
         fill="none"
         d="M-679.5813 -239.3335 L-619.5562 -239.3335"
         clip-path="url(#clipPath2)"
         id="path3318" />
      <path
         d="M-609.5562 -239.3335 L-624.5562 -245.5835 L-620.8062 -239.3335 L-624.5562 -233.0835 Z"
         clip-path="url(#clipPath2)"
         stroke="none"
         id="path3320" />
      <path
         fill="none"
         stroke-dasharray="18,6"
         d="M-585.2112 646.582 L-510.7427 758.2847"
         clip-path="url(#clipPath2)"
         id="path3322" />
      <path
         stroke-dasharray="18,6"
         d="M-505.1957 766.6052 L-508.3159 750.6576 L-511.4361 757.2446 L-518.7166 757.5914 Z"
         clip-path="url(#clipPath2)"
         stroke="none"
         id="path3324" />
      <path
         fill="none"
         d="M-680.2063 631.604 L-620.1812 631.604"
         clip-path="url(#clipPath2)"
         id="path3326" />
      <path
         d="M-610.1812 631.604 L-625.1812 625.354 L-621.4312 631.604 L-625.1812 637.854 Z"
         clip-path="url(#clipPath2)"
         stroke="none"
         id="path3328" />
    </g>
  </g>
</svg>
