<?xml version="1.0" encoding="UTF-8" standalone="no"?>
<!DOCTYPE svg PUBLIC "-//W3C//DTD SVG 1.0//EN" "http://www.w3.org/TR/2001/REC-SVG-20010904/DTD/svg10.dtd">
<!-- Generated by Microsoft Visio 11.0, SVG Export, v1.0 Drawing1.svg Page-1 -->
<svg xmlns="http://www.w3.org/2000/svg" xmlns:v="http://schemas.microsoft.com/visio/2003/SVGExtensions/" width="8.26772in"
		height="11.6929in" viewBox="0 0 595.276 841.89" xml:space="preserve" color-interpolation-filters="sRGB" class="st3">
	<v:documentProperties v:langID="1033" v:viewMarkup="false"/>

	<style type="text/css">
	<![CDATA[
		.st1 {fill:#e8eef7;stroke:#000000;stroke-linecap:round;stroke-linejoin:round;stroke-width:0.24}
		.st2 {fill:#000000;font-family:Arial;font-size:4.00001em}
		.st3 {fill:none;fill-rule:evenodd;font-size:12;overflow:visible;stroke-linecap:square;stroke-miterlimit:3}
	]]>
	</style>

	<g v:mID="0" v:index="1" v:groupContext="foregroundPage">
		<v:userDefs>
			<v:ud v:nameU="SchemeName" v:val="VT4(Default)"/>
		</v:userDefs>
		<title>Page-1</title>
		<v:pageProperties v:drawingScale="0.0393701" v:pageScale="0.0393701" v:drawingUnits="24" v:shadowOffsetX="8.50394"
				v:shadowOffsetY="-8.50394"/>
		<v:layer v:name="Connector" v:index="0"/>
		<g id="shape1-1" v:mID="1" v:groupContext="shape" transform="translate(47.2441,-630.236)">
			<title>Rectangle</title>
			<desc>1</desc>
			<v:userDefs>
				<v:ud v:nameU="visVersion" v:val="VT0(11):26"/>
			</v:userDefs>
			<v:textBlock v:margins="rect(4,4,4,4)" v:tabSpace="42.5197"/>
			<v:textRect cx="56.6929" cy="799.37" width="113.39" height="85.0394"/>
			<rect x="0" y="756.85" width="113.386" height="85.0394" class="st1"/>
			<text x="43.35" y="813.77" class="st2" v:langID="1046"><v:paragraph v:horizAlign="1"/><v:tabList/>1</text>		</g>
		<g id="shape2-4" v:mID="2" v:groupContext="shape" transform="translate(242.835,-630.236)">
			<title>Rectangle.2</title>
			<desc>2</desc>
			<v:userDefs>
				<v:ud v:nameU="visVersion" v:val="VT0(11):26"/>
			</v:userDefs>
			<v:textBlock v:margins="rect(4,4,4,4)" v:tabSpace="42.5197"/>
			<v:textRect cx="56.6929" cy="799.37" width="113.39" height="85.0394"/>
			<rect x="0" y="756.85" width="113.386" height="85.0394" class="st1"/>
			<text x="43.35" y="813.77" class="st2" v:langID="1046"><v:paragraph v:horizAlign="1"/><v:tabList/>2</text>		</g>
		<g id="shape3-7" v:mID="3" v:groupContext="shape" transform="translate(438.425,-630.236)">
			<title>Rectangle.3</title>
			<desc>3</desc>
			<v:userDefs>
				<v:ud v:nameU="visVersion" v:val="VT0(11):26"/>
			</v:userDefs>
			<v:textBlock v:margins="rect(4,4,4,4)" v:tabSpace="42.5197"/>
			<v:textRect cx="56.6929" cy="799.37" width="113.39" height="85.0394"/>
			<rect x="0" y="756.85" width="113.386" height="85.0394" class="st1"/>
			<text x="43.35" y="813.77" class="st2" v:langID="1046"><v:paragraph v:horizAlign="1"/><v:tabList/>3</text>		</g>
		<g id="shape4-10" v:mID="4" v:groupContext="shape" transform="translate(-709.606,52.9134) rotate(-90) scale(-1,1)">
			<title>Fancy arrow</title>
			<v:userDefs>
				<v:ud v:nameU="visVersion" v:val="VT0(11):26"/>
			</v:userDefs>
			<path d="M0 813.54 L28.35 785.2 L35.43 792.28 L21.26 806.46 L73.7 806.46 L73.7 820.63 L21.26 820.63 L35.43 834.8 L28.35
						 841.89 L0 813.54 Z" class="st1"/>
		</g>
		<g id="shape5-12" v:mID="5" v:groupContext="shape" transform="translate(-514.016,55.748) rotate(-90) scale(-1,1)">
			<title>Fancy arrow.5</title>
			<v:userDefs>
				<v:ud v:nameU="visVersion" v:val="VT0(11):26"/>
			</v:userDefs>
			<path d="M0 813.54 L28.35 785.2 L35.43 792.28 L21.26 806.46 L70.87 806.46 L70.87 820.63 L21.26 820.63 L35.43 834.8 L28.35
						 841.89 L0 813.54 Z" class="st1"/>
		</g>
		<g id="shape6-14" v:mID="6" v:groupContext="shape" transform="translate(-318.425,52.9134) rotate(-90) scale(-1,1)">
			<title>Fancy arrow.6</title>
			<v:userDefs>
				<v:ud v:nameU="visVersion" v:val="VT0(11):26"/>
			</v:userDefs>
			<path d="M0 813.54 L28.35 785.2 L35.43 792.28 L21.26 806.46 L73.7 806.46 L73.7 820.63 L21.26 820.63 L35.43 834.8 L28.35
						 841.89 L0 813.54 Z" class="st1"/>
		</g>
		<g id="shape7-16" v:mID="7" v:groupContext="shape" transform="translate(143.622,-460.157)">
			<title>Rectangle.7</title>
			<desc>1,2</desc>
			<v:userDefs>
				<v:ud v:nameU="visVersion" v:val="VT0(11):26"/>
			</v:userDefs>
			<v:textBlock v:margins="rect(4,4,4,4)" v:tabSpace="42.5197"/>
			<v:textRect cx="56.6929" cy="799.37" width="113.39" height="85.0394"/>
			<rect x="0" y="756.85" width="113.386" height="85.0394" class="st1"/>
			<text x="23.34" y="813.77" class="st2" v:langID="1046"><v:paragraph v:horizAlign="1"/><v:tabList/>1,2</text>		</g>
		<g id="shape8-19" v:mID="8" v:groupContext="shape" transform="translate(342.047,-460.157)">
			<title>Rectangle.8</title>
			<desc>2,3</desc>
			<v:userDefs>
				<v:ud v:nameU="visVersion" v:val="VT0(11):26"/>
			</v:userDefs>
			<v:textBlock v:margins="rect(4,4,4,4)" v:tabSpace="42.5197"/>
			<v:textRect cx="56.6929" cy="799.37" width="113.39" height="85.0394"/>
			<rect x="0" y="756.85" width="113.386" height="85.0394" class="st1"/>
			<text x="23.34" y="813.77" class="st2" v:langID="1046"><v:paragraph v:horizAlign="1"/><v:tabList/>2,3</text>		</g>
		<g id="shape9-22" v:mID="9" v:groupContext="shape" transform="translate(-434.321,821.679) rotate(41.4237) scale(1,-1)">
			<title>Fancy arrow.9</title>
			<v:userDefs>
				<v:ud v:nameU="visVersion" v:val="VT0(11):26"/>
			</v:userDefs>
			<path d="M0 813.54 L28.35 785.2 L35.43 792.28 L21.26 806.46 L128.53 806.46 L128.53 820.63 L21.26 820.63 L35.43 834.8
						 L28.35 841.89 L0 813.54 Z" class="st1"/>
		</g>
		<g id="shape10-24" v:mID="10" v:groupContext="shape" transform="translate(-229.919,-406.035) rotate(-40.6013) scale(-1,1)">
			<title>Fancy arrow.10</title>
			<v:userDefs>
				<v:ud v:nameU="visVersion" v:val="VT0(11):26"/>
			</v:userDefs>
			<path d="M0 813.54 L28.35 785.2 L35.43 792.28 L21.26 806.46 L130.67 806.46 L130.67 820.63 L21.26 820.63 L35.43 834.8
						 L28.35 841.89 L0 813.54 Z" class="st1"/>
		</g>
		<g id="shape11-26" v:mID="11" v:groupContext="shape" transform="translate(-43.1397,-398.372) rotate(-41.4237) scale(-1,1)">
			<title>Fancy arrow.11</title>
			<v:userDefs>
				<v:ud v:nameU="visVersion" v:val="VT0(11):26"/>
			</v:userDefs>
			<path d="M0 813.54 L28.35 785.2 L35.43 792.28 L21.26 806.46 L128.53 806.46 L128.53 820.63 L21.26 820.63 L35.43 834.8
						 L28.35 841.89 L0 813.54 Z" class="st1"/>
		</g>
		<g id="shape12-28" v:mID="12" v:groupContext="shape" transform="translate(-229.919,829.342) rotate(40.6013) scale(1,-1)">
			<title>Fancy arrow.12</title>
			<v:userDefs>
				<v:ud v:nameU="visVersion" v:val="VT0(11):26"/>
			</v:userDefs>
			<path d="M0 813.54 L28.35 785.2 L35.43 792.28 L21.26 806.46 L130.67 806.46 L130.67 820.63 L21.26 820.63 L35.43 834.8
						 L28.35 841.89 L0 813.54 Z" class="st1"/>
		</g>
		<g id="shape13-30" v:mID="13" v:groupContext="shape" transform="translate(242.835,-131.339)">
			<title>Rectangle.13</title>
			<desc>4</desc>
			<v:userDefs>
				<v:ud v:nameU="visVersion" v:val="VT0(11):26"/>
			</v:userDefs>
			<v:textBlock v:margins="rect(4,4,4,4)" v:tabSpace="42.5197"/>
			<v:textRect cx="56.6929" cy="799.37" width="113.39" height="85.0394"/>
			<rect x="0" y="756.85" width="113.386" height="85.0394" class="st1"/>
			<text x="43.35" y="813.77" class="st2" v:langID="1046"><v:paragraph v:horizAlign="1"/><v:tabList/>4</text>		</g>
		<g id="shape14-33" v:mID="14" v:groupContext="shape" transform="translate(-327.698,1159.52) rotate(40.5559) scale(1,-1)">
			<title>Fancy arrow.14</title>
			<v:userDefs>
				<v:ud v:nameU="visVersion" v:val="VT0(11):26"/>
			</v:userDefs>
			<path d="M0 813.54 L28.35 785.2 L35.43 792.28 L21.26 806.46 L129.34 806.46 L129.34 820.63 L21.26 820.63 L35.43 834.8
						 L28.35 841.89 L0 813.54 Z" class="st1"/>
		</g>
		<g id="shape15-35" v:mID="15" v:groupContext="shape" transform="translate(-123.442,-81.6325) rotate(-40.0176) scale(-1,1)">
			<title>Fancy arrow.15</title>
			<v:userDefs>
				<v:ud v:nameU="visVersion" v:val="VT0(11):26"/>
			</v:userDefs>
			<path d="M0 813.54 L28.35 785.2 L35.43 792.28 L21.26 806.46 L130.78 806.46 L130.78 820.63 L21.26 820.63 L35.43 834.8
						 L28.35 841.89 L0 813.54 Z" class="st1"/>
		</g>
		<g id="shape16-37" v:mID="16" v:groupContext="shape" transform="translate(144.567,-300.472)">
			<title>Rectangle.16</title>
			<desc>4</desc>
			<v:userDefs>
				<v:ud v:nameU="visVersion" v:val="VT0(11):26"/>
			</v:userDefs>
			<v:textBlock v:margins="rect(4,4,4,4)" v:tabSpace="42.5197"/>
			<v:textRect cx="56.6929" cy="799.37" width="113.39" height="85.0394"/>
			<rect x="0" y="756.85" width="113.386" height="85.0394" class="st1"/>
			<text x="43.35" y="813.77" class="st2" v:langID="1046"><v:paragraph v:horizAlign="1"/><v:tabList/>4</text>		</g>
		<g id="shape17-40" v:mID="17" v:groupContext="shape" transform="translate(342.992,-300.472)">
			<title>Rectangle.17</title>
			<desc>4</desc>
			<v:userDefs>
				<v:ud v:nameU="visVersion" v:val="VT0(11):26"/>
			</v:userDefs>
			<v:textBlock v:margins="rect(4,4,4,4)" v:tabSpace="42.5197"/>
			<v:textRect cx="56.6929" cy="799.37" width="113.39" height="85.0394"/>
			<rect x="0" y="756.85" width="113.386" height="85.0394" class="st1"/>
			<text x="43.35" y="813.77" class="st2" v:langID="1046"><v:paragraph v:horizAlign="1"/><v:tabList/>4</text>		</g>
		<g id="shape18-43" v:mID="18" v:groupContext="shape" transform="translate(-613.163,392.029) rotate(89.2748) scale(1,-1)">
			<title>Fancy arrow.18</title>
			<v:userDefs>
				<v:ud v:nameU="visVersion" v:val="VT0(11):26"/>
			</v:userDefs>
			<path d="M0 813.54 L28.35 785.2 L35.43 792.28 L21.26 806.46 L74.65 806.46 L74.65 820.63 L21.26 820.63 L35.43 834.8 L28.35
						 841.89 L0 813.54 Z" class="st1"/>
		</g>
		<g id="shape19-45" v:mID="19" v:groupContext="shape" transform="translate(-414.738,392.029) rotate(89.2748) scale(1,-1)">
			<title>Fancy arrow.19</title>
			<v:userDefs>
				<v:ud v:nameU="visVersion" v:val="VT0(11):26"/>
			</v:userDefs>
			<path d="M0 813.54 L28.35 785.2 L35.43 792.28 L21.26 806.46 L74.65 806.46 L74.65 820.63 L21.26 820.63 L35.43 834.8 L28.35
						 841.89 L0 813.54 Z" class="st1"/>
		</g>
		<g id="shape20-47" v:mID="20" v:groupContext="shape" transform="translate(-513.951,720.848) rotate(89.2748) scale(1,-1)">
			<title>Fancy arrow.20</title>
			<v:userDefs>
				<v:ud v:nameU="visVersion" v:val="VT0(11):26"/>
			</v:userDefs>
			<path d="M0 813.54 L28.35 785.2 L35.43 792.28 L21.26 806.46 L74.65 806.46 L74.65 820.63 L21.26 820.63 L35.43 834.8 L28.35
						 841.89 L0 813.54 Z" class="st1"/>
		</g>
	</g>
</svg>
