<?xml version="1.0" encoding="UTF-8" standalone="no"?>
<svg
   xmlns:dc="http://purl.org/dc/elements/1.1/"
   xmlns:cc="http://web.resource.org/cc/"
   xmlns:rdf="http://www.w3.org/1999/02/22-rdf-syntax-ns#"
   xmlns:svg="http://www.w3.org/2000/svg"
   xmlns="http://www.w3.org/2000/svg"
   xmlns:sodipodi="http://sodipodi.sourceforge.net/DTD/sodipodi-0.dtd"
   xmlns:inkscape="http://www.inkscape.org/namespaces/inkscape"
   fill-opacity="1"
   color-rendering="auto"
   color-interpolation="auto"
   stroke="black"
   text-rendering="auto"
   stroke-linecap="square"
   width="627"
   stroke-miterlimit="10"
   stroke-opacity="1"
   shape-rendering="auto"
   fill="black"
   stroke-dasharray="none"
   font-weight="normal"
   stroke-width="1"
   height="244"
   font-family="'Dialog'"
   font-style="normal"
   stroke-linejoin="miter"
   font-size="12"
   stroke-dashoffset="0"
   image-rendering="auto"
   id="svg2763"
   sodipodi:version="0.32"
   inkscape:version="0.45.1"
   sodipodi:docname="mundo_blocos.svg"
   sodipodi:docbase="/home/delta/Ãrea de Trabalho/monografia/img"
   inkscape:output_extension="org.inkscape.output.svg.inkscape">
  <metadata
     id="metadata3034">
    <rdf:RDF>
      <cc:Work
         rdf:about="">
        <dc:format>image/svg+xml</dc:format>
        <dc:type
           rdf:resource="http://purl.org/dc/dcmitype/StillImage" />
      </cc:Work>
    </rdf:RDF>
  </metadata>
  <sodipodi:namedview
     inkscape:window-height="627"
     inkscape:window-width="910"
     inkscape:pageshadow="2"
     inkscape:pageopacity="0.0"
     guidetolerance="10.0"
     gridtolerance="10.0"
     objecttolerance="10.0"
     borderopacity="1.0"
     bordercolor="#666666"
     pagecolor="#ffffff"
     id="base"
     inkscape:zoom="1.3014354"
     inkscape:cx="313.5"
     inkscape:cy="122"
     inkscape:window-x="347"
     inkscape:window-y="143"
     inkscape:current-layer="svg2763" />
<!--Generated by ySVG-->  <defs
     id="genericDefs" />
  <g
     id="g2766">
    <defs
       id="defs1">
      <clipPath
         clipPathUnits="userSpaceOnUse"
         id="clipPath1">
        <path
           d="M0 0 L627 0 L627 244 L0 244 L0 0 Z"
           id="path2770" />
      </clipPath>
      <clipPath
         clipPathUnits="userSpaceOnUse"
         id="clipPath2">
        <path
           d="M47 -14 L674 -14 L674 230 L47 230 L47 -14 Z"
           id="path2773" />
      </clipPath>
    </defs>
    <g
       fill="white"
       transform="translate(-47,14)"
       stroke="white"
       id="g2775">
      <rect
         x="47"
         y="-14"
         clip-path="url(#clipPath2)"
         width="627"
         height="244"
         stroke="none"
         id="rect2777" />
    </g>
    <g
       fill="white"
       stroke="white"
       id="g2779">
      <rect
         x="9.125"
         y="220.75"
         clip-path="url(#clipPath1)"
         width="104.9043"
         height="15.5625"
         stroke="none"
         id="rect2781" />
    </g>
    <g
       fill="silver"
       transform="matrix(1,0,0,1,-47,14)"
       stroke="silver"
       id="g2785">
      <rect
         x="526"
         y="4.6667"
         clip-path="url(#clipPath2)"
         width="9"
         height="49"
         stroke="none"
         id="rect2787" />
    </g>
    <g
       stroke-width="2"
       stroke-miterlimit="1.45"
       transform="matrix(1,0,0,1,-47,14)"
       stroke-linecap="butt"
       id="g2789">
      <rect
         x="526"
         y="4.6667"
         clip-path="url(#clipPath2)"
         fill="none"
         width="9"
         height="49"
         id="rect2791" />
    </g>
    <g
       fill="silver"
       transform="matrix(1,0,0,1,-47,14)"
       stroke="silver"
       id="g2793">
      <rect
         x="562"
         y="45.6667"
         clip-path="url(#clipPath2)"
         width="9"
         height="49"
         stroke="none"
         id="rect2795" />
    </g>
    <g
       stroke-width="2"
       stroke-miterlimit="1.45"
       transform="matrix(1,0,0,1,-47,14)"
       stroke-linecap="butt"
       id="g2797">
      <rect
         x="562"
         y="45.6667"
         clip-path="url(#clipPath2)"
         fill="none"
         width="9"
         height="49"
         id="rect2799" />
    </g>
    <g
       fill="silver"
       transform="matrix(1,0,0,1,-47,14)"
       stroke="silver"
       id="g2801">
      <rect
         x="493"
         y="45.6667"
         clip-path="url(#clipPath2)"
         width="9"
         height="49"
         stroke="none"
         id="rect2803" />
    </g>
    <g
       stroke-width="2"
       stroke-miterlimit="1.45"
       transform="matrix(1,0,0,1,-47,14)"
       stroke-linecap="butt"
       id="g2805">
      <rect
         x="493"
         y="45.6667"
         clip-path="url(#clipPath2)"
         fill="none"
         width="9"
         height="49"
         id="rect2807" />
    </g>
    <g
       fill="silver"
       transform="matrix(1,0,0,1,-47,14)"
       stroke="silver"
       id="g2809">
      <rect
         x="97"
         y="1.6667"
         clip-path="url(#clipPath2)"
         width="9"
         height="49"
         stroke="none"
         id="rect2811" />
    </g>
    <g
       stroke-width="2"
       stroke-miterlimit="1.45"
       transform="matrix(1,0,0,1,-47,14)"
       stroke-linecap="butt"
       id="g2813">
      <rect
         x="97"
         y="1.6667"
         clip-path="url(#clipPath2)"
         fill="none"
         width="9"
         height="49"
         id="rect2815" />
    </g>
    <g
       fill="silver"
       transform="matrix(1,0,0,1,-47,14)"
       stroke="silver"
       id="g2817">
      <rect
         x="131"
         y="41.6667"
         clip-path="url(#clipPath2)"
         width="9"
         height="49"
         stroke="none"
         id="rect2819" />
    </g>
    <g
       stroke-width="2"
       stroke-miterlimit="1.45"
       transform="matrix(1,0,0,1,-47,14)"
       stroke-linecap="butt"
       id="g2821">
      <rect
         x="131"
         y="41.6667"
         clip-path="url(#clipPath2)"
         fill="none"
         width="9"
         height="49"
         id="rect2823" />
    </g>
    <g
       fill="silver"
       transform="matrix(1,0,0,1,-47,14)"
       stroke="silver"
       id="g2825">
      <rect
         x="62"
         y="41.6667"
         clip-path="url(#clipPath2)"
         width="9"
         height="49"
         stroke="none"
         id="rect2827" />
    </g>
    <g
       stroke-width="2"
       stroke-miterlimit="1.45"
       transform="matrix(1,0,0,1,-47,14)"
       stroke-linecap="butt"
       id="g2829">
      <rect
         x="62"
         y="41.6667"
         clip-path="url(#clipPath2)"
         fill="none"
         width="9"
         height="49"
         id="rect2831" />
    </g>
    <g
       fill="silver"
       transform="matrix(1,0,0,1,-47,14)"
       stroke="silver"
       id="g2833">
      <rect
         x="309"
         y="1.6667"
         clip-path="url(#clipPath2)"
         width="9"
         height="49"
         stroke="none"
         id="rect2835" />
    </g>
    <g
       stroke-width="2"
       stroke-miterlimit="1.45"
       transform="matrix(1,0,0,1,-47,14)"
       stroke-linecap="butt"
       id="g2837">
      <rect
         x="309"
         y="1.6667"
         clip-path="url(#clipPath2)"
         fill="none"
         width="9"
         height="49"
         id="rect2839" />
    </g>
    <g
       fill="silver"
       transform="matrix(1,0,0,1,-47,14)"
       stroke="silver"
       id="g2841">
      <rect
         x="345"
         y="41.6667"
         clip-path="url(#clipPath2)"
         width="9"
         height="49"
         stroke="none"
         id="rect2843" />
    </g>
    <g
       stroke-width="2"
       stroke-miterlimit="1.45"
       transform="matrix(1,0,0,1,-47,14)"
       stroke-linecap="butt"
       id="g2845">
      <rect
         x="345"
         y="41.6667"
         clip-path="url(#clipPath2)"
         fill="none"
         width="9"
         height="49"
         id="rect2847" />
    </g>
    <g
       fill="silver"
       transform="matrix(1,0,0,1,-47,14)"
       stroke="silver"
       id="g2849">
      <rect
         x="276"
         y="41.6667"
         clip-path="url(#clipPath2)"
         width="9"
         height="49"
         stroke="none"
         id="rect2851" />
    </g>
    <g
       stroke-width="2"
       stroke-miterlimit="1.45"
       transform="matrix(1,0,0,1,-47,14)"
       stroke-linecap="butt"
       id="g2853">
      <rect
         x="276"
         y="41.6667"
         clip-path="url(#clipPath2)"
         fill="none"
         width="9"
         height="49"
         id="rect2855" />
    </g>
    <g
       fill="rgb(0,204,255)"
       transform="matrix(1,0,0,1,-47,14)"
       stroke="rgb(0,204,255)"
       id="g2857">
      <rect
         x="608"
         y="33"
         clip-path="url(#clipPath2)"
         width="50"
         rx="4"
         ry="4"
         height="50"
         stroke="none"
         id="rect2859"
         style="fill:#ffcc00;fill-opacity:1" />
    </g>
    <g
       font-size="20"
       font-family="sans-serif"
       transform="matrix(1,0,0,1,-47,14)"
       id="g2861">
      <text
         xml:space="preserve"
         x="626"
         y="65.3682"
         clip-path="url(#clipPath2)"
         stroke="none"
         id="text2863">A</text>
    </g>
    <g
       stroke-width="2"
       stroke-miterlimit="1.45"
       transform="matrix(1,0,0,1,-47,14)"
       stroke-linecap="butt"
       id="g2865">
      <rect
         x="608"
         y="33"
         clip-path="url(#clipPath2)"
         fill="none"
         width="50"
         rx="4"
         ry="4"
         height="50"
         id="rect2867" />
    </g>
    <g
       fill="rgb(0,204,255)"
       transform="matrix(1,0,0,1,-47,14)"
       stroke="rgb(0,204,255)"
       id="g2869">
      <rect
         x="608"
         y="88"
         clip-path="url(#clipPath2)"
         width="50"
         rx="4"
         ry="4"
         height="50"
         stroke="none"
         id="rect2871"
         style="fill:#ffcc00;fill-opacity:1" />
    </g>
    <g
       font-size="20"
       font-family="sans-serif"
       transform="matrix(1,0,0,1,-47,14)"
       id="g2873">
      <text
         xml:space="preserve"
         x="627"
         y="120.3682"
         clip-path="url(#clipPath2)"
         stroke="none"
         id="text2875">B</text>
    </g>
    <g
       stroke-width="2"
       stroke-miterlimit="1.45"
       transform="matrix(1,0,0,1,-47,14)"
       stroke-linecap="butt"
       id="g2877">
      <rect
         x="608"
         y="88"
         clip-path="url(#clipPath2)"
         fill="none"
         width="50"
         rx="4"
         ry="4"
         height="50"
         id="rect2879" />
    </g>
    <g
       fill="rgb(0,204,255)"
       transform="matrix(1,0,0,1,-47,14)"
       stroke="rgb(0,204,255)"
       id="g2881">
      <rect
         x="608"
         y="143"
         clip-path="url(#clipPath2)"
         width="50"
         rx="4"
         ry="4"
         height="50"
         stroke="none"
         id="rect2883"
         style="fill:#ffcc00;fill-opacity:1" />
    </g>
    <g
       font-size="20"
       font-family="sans-serif"
       transform="matrix(1,0,0,1,-47,14)"
       id="g2885">
      <text
         xml:space="preserve"
         x="626"
         y="175.3682"
         clip-path="url(#clipPath2)"
         stroke="none"
         id="text2887">C</text>
    </g>
    <g
       stroke-width="2"
       stroke-miterlimit="1.45"
       transform="matrix(1,0,0,1,-47,14)"
       stroke-linecap="butt"
       id="g2889">
      <rect
         x="608"
         y="143"
         clip-path="url(#clipPath2)"
         fill="none"
         width="50"
         rx="4"
         ry="4"
         height="50"
         id="rect2891" />
    </g>
    <g
       fill="silver"
       transform="matrix(1,0,0,1,-47,14)"
       stroke="silver"
       id="g2893">
      <rect
         x="494"
         y="198"
         clip-path="url(#clipPath2)"
         width="165"
         height="15"
         stroke="none"
         id="rect2895" />
    </g>
    <g
       stroke-width="2"
       stroke-miterlimit="1.45"
       transform="matrix(1,0,0,1,-47,14)"
       stroke-linecap="butt"
       id="g2897">
      <rect
         x="494"
         y="198"
         clip-path="url(#clipPath2)"
         fill="none"
         width="165"
         height="15"
         id="rect2899" />
    </g>
    <g
       fill="rgb(255,204,0)"
       transform="matrix(1,0,0,1,-47,14)"
       stroke="rgb(255,204,0)"
       id="g2901">
      <rect
         x="290"
         y="54"
         clip-path="url(#clipPath2)"
         width="50"
         rx="4"
         ry="4"
         height="50"
         stroke="none"
         id="rect2903" />
    </g>
    <g
       font-size="20"
       font-family="sans-serif"
       transform="matrix(1,0,0,1,-47,14)"
       id="g2905">
      <text
         xml:space="preserve"
         x="308"
         y="86.3682"
         clip-path="url(#clipPath2)"
         stroke="none"
         id="text2907">A</text>
    </g>
    <g
       stroke-width="2"
       stroke-miterlimit="1.45"
       transform="matrix(1,0,0,1,-47,14)"
       stroke-linecap="butt"
       id="g2909">
      <rect
         x="290"
         y="54"
         clip-path="url(#clipPath2)"
         fill="none"
         width="50"
         rx="4"
         ry="4"
         height="50"
         id="rect2911" />
    </g>
    <g
       fill="rgb(0,204,255)"
       transform="matrix(1,0,0,1,-47,14)"
       stroke="rgb(0,204,255)"
       id="g2913">
      <rect
         x="403"
         y="89"
         clip-path="url(#clipPath2)"
         width="50"
         rx="4"
         ry="4"
         height="50"
         stroke="none"
         id="rect2915"
         style="fill:#ffcc00;fill-opacity:1" />
    </g>
    <g
       font-size="20"
       font-family="sans-serif"
       transform="matrix(1,0,0,1,-47,14)"
       id="g2917">
      <text
         xml:space="preserve"
         x="422"
         y="121.3682"
         clip-path="url(#clipPath2)"
         stroke="none"
         id="text2919">B</text>
    </g>
    <g
       stroke-width="2"
       stroke-miterlimit="1.45"
       transform="matrix(1,0,0,1,-47,14)"
       stroke-linecap="butt"
       id="g2921">
      <rect
         x="403"
         y="89"
         clip-path="url(#clipPath2)"
         fill="none"
         width="50"
         rx="4"
         ry="4"
         height="50"
         id="rect2923" />
    </g>
    <g
       fill="rgb(0,204,255)"
       transform="matrix(1,0,0,1,-47,14)"
       stroke="rgb(0,204,255)"
       id="g2925">
      <rect
         x="403"
         y="144"
         clip-path="url(#clipPath2)"
         width="50"
         rx="4"
         ry="4"
         height="50"
         stroke="none"
         id="rect2927"
         style="fill:#ffcc00;fill-opacity:1" />
    </g>
    <g
       font-size="20"
       font-family="sans-serif"
       transform="matrix(1,0,0,1,-47,14)"
       id="g2929">
      <text
         xml:space="preserve"
         x="421"
         y="176.3682"
         clip-path="url(#clipPath2)"
         stroke="none"
         id="text2931">C</text>
    </g>
    <g
       stroke-width="2"
       stroke-miterlimit="1.45"
       transform="matrix(1,0,0,1,-47,14)"
       stroke-linecap="butt"
       id="g2933">
      <rect
         x="403"
         y="144"
         clip-path="url(#clipPath2)"
         fill="none"
         width="50"
         rx="4"
         ry="4"
         height="50"
         id="rect2935" />
    </g>
    <g
       fill="silver"
       transform="matrix(1,0,0,1,-47,14)"
       stroke="silver"
       id="g2937">
      <rect
         x="289"
         y="199"
         clip-path="url(#clipPath2)"
         width="165"
         height="15"
         stroke="none"
         id="rect2939" />
    </g>
    <g
       stroke-width="2"
       stroke-miterlimit="1.45"
       transform="matrix(1,0,0,1,-47,14)"
       stroke-linecap="butt"
       id="g2941">
      <rect
         x="289"
         y="199"
         clip-path="url(#clipPath2)"
         fill="none"
         width="165"
         height="15"
         id="rect2943" />
    </g>
    <g
       fill="rgb(255,204,0)"
       transform="matrix(1,0,0,1,-47,14)"
       stroke="rgb(255,204,0)"
       id="g2945">
      <rect
         x="77"
         y="144"
         clip-path="url(#clipPath2)"
         width="50"
         rx="4"
         ry="4"
         height="50"
         stroke="none"
         id="rect2947" />
    </g>
    <g
       font-size="20"
       font-family="sans-serif"
       transform="matrix(1,0,0,1,-47,14)"
       id="g2949">
      <text
         xml:space="preserve"
         x="95"
         y="176.3682"
         clip-path="url(#clipPath2)"
         stroke="none"
         id="text2951">A</text>
    </g>
    <g
       stroke-width="2"
       stroke-miterlimit="1.45"
       transform="matrix(1,0,0,1,-47,14)"
       stroke-linecap="butt"
       id="g2953">
      <rect
         x="77"
         y="144"
         clip-path="url(#clipPath2)"
         fill="none"
         width="50"
         rx="4"
         ry="4"
         height="50"
         id="rect2955" />
    </g>
    <g
       fill="rgb(0,204,255)"
       transform="matrix(1,0,0,1,-47,14)"
       stroke="rgb(0,204,255)"
       id="g2957">
      <rect
         x="191"
         y="90"
         clip-path="url(#clipPath2)"
         width="50"
         rx="4"
         ry="4"
         height="50"
         stroke="none"
         id="rect2959"
         style="fill:#ffcc00;fill-opacity:1" />
    </g>
    <g
       font-size="20"
       font-family="sans-serif"
       transform="matrix(1,0,0,1,-47,14)"
       id="g2961">
      <text
         xml:space="preserve"
         x="210"
         y="122.3682"
         clip-path="url(#clipPath2)"
         stroke="none"
         id="text2963">B</text>
    </g>
    <g
       stroke-width="2"
       stroke-miterlimit="1.45"
       transform="matrix(1,0,0,1,-47,14)"
       stroke-linecap="butt"
       id="g2965">
      <rect
         x="191"
         y="90"
         clip-path="url(#clipPath2)"
         fill="none"
         width="50"
         rx="4"
         ry="4"
         height="50"
         id="rect2967" />
    </g>
    <g
       fill="rgb(0,204,255)"
       transform="matrix(1,0,0,1,-47,14)"
       stroke="rgb(0,204,255)"
       id="g2969">
      <rect
         x="191"
         y="145"
         clip-path="url(#clipPath2)"
         width="50"
         rx="4"
         ry="4"
         height="50"
         stroke="none"
         id="rect2971"
         style="fill:#ffcc00;fill-opacity:1" />
    </g>
    <g
       font-size="20"
       font-family="sans-serif"
       transform="matrix(1,0,0,1,-47,14)"
       id="g2973">
      <text
         xml:space="preserve"
         x="209"
         y="177.3682"
         clip-path="url(#clipPath2)"
         stroke="none"
         id="text2975">C</text>
    </g>
    <g
       stroke-width="2"
       stroke-miterlimit="1.45"
       transform="matrix(1,0,0,1,-47,14)"
       stroke-linecap="butt"
       id="g2977">
      <rect
         x="191"
         y="145"
         clip-path="url(#clipPath2)"
         fill="none"
         width="50"
         rx="4"
         ry="4"
         height="50"
         id="rect2979" />
    </g>
    <g
       fill="silver"
       transform="matrix(1,0,0,1,-47,14)"
       stroke="silver"
       id="g2981">
      <rect
         x="77"
         y="200"
         clip-path="url(#clipPath2)"
         width="165"
         height="15"
         stroke="none"
         id="rect2983" />
    </g>
    <g
       stroke-width="2"
       stroke-miterlimit="1.45"
       transform="matrix(1,0,0,1,-47,14)"
       stroke-linecap="butt"
       id="g2985">
      <rect
         x="77"
         y="200"
         clip-path="url(#clipPath2)"
         fill="none"
         width="165"
         height="15"
         id="rect2987" />
    </g>
    <g
       font-size="10"
       font-family="sans-serif"
       transform="matrix(1,0,0,1,-47,14)"
       id="g2989" />
    <g
       fill="silver"
       transform="matrix(1,0,0,1,-47,14)"
       stroke="silver"
       id="g3009">
      <rect
         x="62"
         y="41.6667"
         clip-path="url(#clipPath2)"
         width="78"
         height="9"
         stroke="none"
         id="rect3011" />
    </g>
    <g
       stroke-width="2"
       stroke-miterlimit="1.45"
       transform="matrix(1,0,0,1,-47,14)"
       stroke-linecap="butt"
       id="g3013">
      <rect
         x="62"
         y="41.6667"
         clip-path="url(#clipPath2)"
         fill="none"
         width="78"
         height="9"
         id="rect3015" />
    </g>
    <g
       fill="silver"
       transform="matrix(1,0,0,1,-47,14)"
       stroke="silver"
       id="g3017">
      <rect
         x="276"
         y="41.6667"
         clip-path="url(#clipPath2)"
         width="78"
         height="9"
         stroke="none"
         id="rect3019" />
    </g>
    <g
       stroke-width="2"
       stroke-miterlimit="1.45"
       transform="matrix(1,0,0,1,-47,14)"
       stroke-linecap="butt"
       id="g3021">
      <rect
         x="276"
         y="41.6667"
         clip-path="url(#clipPath2)"
         fill="none"
         width="78"
         height="9"
         id="rect3023" />
    </g>
    <g
       fill="silver"
       transform="matrix(1,0,0,1,-47,14)"
       stroke="silver"
       id="g3025">
      <rect
         x="493"
         y="45.6667"
         clip-path="url(#clipPath2)"
         width="78"
         height="9"
         stroke="none"
         id="rect3027" />
    </g>
    <g
       stroke-width="2"
       stroke-miterlimit="1.45"
       transform="matrix(1,0,0,1,-47,14)"
       stroke-linecap="butt"
       id="g3029">
      <rect
         x="493"
         y="45.6667"
         clip-path="url(#clipPath2)"
         fill="none"
         width="78"
         height="9"
         id="rect3031" />
    </g>
  </g>
</svg>
