<?xml version="1.0" encoding="UTF-8" standalone="no"?>
<svg
   xmlns:dc="http://purl.org/dc/elements/1.1/"
   xmlns:cc="http://web.resource.org/cc/"
   xmlns:rdf="http://www.w3.org/1999/02/22-rdf-syntax-ns#"
   xmlns:svg="http://www.w3.org/2000/svg"
   xmlns="http://www.w3.org/2000/svg"
   xmlns:sodipodi="http://sodipodi.sourceforge.net/DTD/sodipodi-0.dtd"
   xmlns:inkscape="http://www.inkscape.org/namespaces/inkscape"
   fill-opacity="1"
   color-rendering="auto"
   color-interpolation="auto"
   stroke="black"
   text-rendering="auto"
   stroke-linecap="square"
   width="627"
   stroke-miterlimit="10"
   stroke-opacity="1"
   shape-rendering="auto"
   fill="black"
   stroke-dasharray="none"
   font-weight="normal"
   stroke-width="1"
   height="244"
   font-family="'Dialog'"
   font-style="normal"
   stroke-linejoin="miter"
   font-size="12"
   stroke-dashoffset="0"
   image-rendering="auto"
   id="svg2484"
   sodipodi:version="0.32"
   inkscape:version="0.45.1"
   sodipodi:docname="mundo_blocos_coloridos.svg"
   sodipodi:docbase="/home/david/Desktop/monografia/img"
   inkscape:output_extension="org.inkscape.output.svg.inkscape">
  <metadata
     id="metadata2755">
    <rdf:RDF>
      <cc:Work
         rdf:about="">
        <dc:format>image/svg+xml</dc:format>
        <dc:type
           rdf:resource="http://purl.org/dc/dcmitype/StillImage" />
      </cc:Work>
    </rdf:RDF>
  </metadata>
  <sodipodi:namedview
     inkscape:window-height="627"
     inkscape:window-width="910"
     inkscape:pageshadow="2"
     inkscape:pageopacity="0.0"
     guidetolerance="10.0"
     gridtolerance="10.0"
     objecttolerance="10.0"
     borderopacity="1.0"
     bordercolor="#666666"
     pagecolor="#ffffff"
     id="base"
     inkscape:zoom="1.3014354"
     inkscape:cx="313.5"
     inkscape:cy="122"
     inkscape:window-x="0"
     inkscape:window-y="24"
     inkscape:current-layer="svg2484" />
<!--Generated by ySVG-->  <defs
     id="genericDefs" />
  <g
     id="g2487">
    <defs
       id="defs1">
      <clipPath
         clipPathUnits="userSpaceOnUse"
         id="clipPath1">
        <path
           d="M0 0 L627 0 L627 244 L0 244 L0 0 Z"
           id="path2491" />
      </clipPath>
      <clipPath
         clipPathUnits="userSpaceOnUse"
         id="clipPath2">
        <path
           d="M47 -14 L674 -14 L674 230 L47 230 L47 -14 Z"
           id="path2494" />
      </clipPath>
    </defs>
    <g
       fill="white"
       transform="translate(-47,14)"
       stroke="white"
       id="g2496">
      <rect
         x="47"
         y="-14"
         clip-path="url(#clipPath2)"
         width="627"
         height="244"
         stroke="none"
         id="rect2498" />
    </g>
    <g
       fill="white"
       stroke="white"
       id="g2500">
      <rect
         x="9.125"
         y="220.75"
         clip-path="url(#clipPath1)"
         width="104.9043"
         height="15.5625"
         stroke="none"
         id="rect2502" />
    </g>
    <g
       fill="silver"
       transform="matrix(1,0,0,1,-47,14)"
       stroke="silver"
       id="g2506">
      <rect
         x="526"
         y="4.6667"
         clip-path="url(#clipPath2)"
         width="9"
         height="49"
         stroke="none"
         id="rect2508" />
    </g>
    <g
       stroke-width="2"
       stroke-miterlimit="1.45"
       transform="matrix(1,0,0,1,-47,14)"
       stroke-linecap="butt"
       id="g2510">
      <rect
         x="526"
         y="4.6667"
         clip-path="url(#clipPath2)"
         fill="none"
         width="9"
         height="49"
         id="rect2512" />
    </g>
    <g
       fill="silver"
       transform="matrix(1,0,0,1,-47,14)"
       stroke="silver"
       id="g2514">
      <rect
         x="562"
         y="45.6667"
         clip-path="url(#clipPath2)"
         width="9"
         height="49"
         stroke="none"
         id="rect2516" />
    </g>
    <g
       stroke-width="2"
       stroke-miterlimit="1.45"
       transform="matrix(1,0,0,1,-47,14)"
       stroke-linecap="butt"
       id="g2518">
      <rect
         x="562"
         y="45.6667"
         clip-path="url(#clipPath2)"
         fill="none"
         width="9"
         height="49"
         id="rect2520" />
    </g>
    <g
       fill="silver"
       transform="matrix(1,0,0,1,-47,14)"
       stroke="silver"
       id="g2522">
      <rect
         x="493"
         y="45.6667"
         clip-path="url(#clipPath2)"
         width="9"
         height="49"
         stroke="none"
         id="rect2524" />
    </g>
    <g
       stroke-width="2"
       stroke-miterlimit="1.45"
       transform="matrix(1,0,0,1,-47,14)"
       stroke-linecap="butt"
       id="g2526">
      <rect
         x="493"
         y="45.6667"
         clip-path="url(#clipPath2)"
         fill="none"
         width="9"
         height="49"
         id="rect2528" />
    </g>
    <g
       fill="silver"
       transform="matrix(1,0,0,1,-47,14)"
       stroke="silver"
       id="g2530">
      <rect
         x="97"
         y="1.6667"
         clip-path="url(#clipPath2)"
         width="9"
         height="49"
         stroke="none"
         id="rect2532" />
    </g>
    <g
       stroke-width="2"
       stroke-miterlimit="1.45"
       transform="matrix(1,0,0,1,-47,14)"
       stroke-linecap="butt"
       id="g2534">
      <rect
         x="97"
         y="1.6667"
         clip-path="url(#clipPath2)"
         fill="none"
         width="9"
         height="49"
         id="rect2536" />
    </g>
    <g
       fill="silver"
       transform="matrix(1,0,0,1,-47,14)"
       stroke="silver"
       id="g2538">
      <rect
         x="131"
         y="41.6667"
         clip-path="url(#clipPath2)"
         width="9"
         height="49"
         stroke="none"
         id="rect2540" />
    </g>
    <g
       stroke-width="2"
       stroke-miterlimit="1.45"
       transform="matrix(1,0,0,1,-47,14)"
       stroke-linecap="butt"
       id="g2542">
      <rect
         x="131"
         y="41.6667"
         clip-path="url(#clipPath2)"
         fill="none"
         width="9"
         height="49"
         id="rect2544" />
    </g>
    <g
       fill="silver"
       transform="matrix(1,0,0,1,-47,14)"
       stroke="silver"
       id="g2546">
      <rect
         x="62"
         y="41.6667"
         clip-path="url(#clipPath2)"
         width="9"
         height="49"
         stroke="none"
         id="rect2548" />
    </g>
    <g
       stroke-width="2"
       stroke-miterlimit="1.45"
       transform="matrix(1,0,0,1,-47,14)"
       stroke-linecap="butt"
       id="g2550">
      <rect
         x="62"
         y="41.6667"
         clip-path="url(#clipPath2)"
         fill="none"
         width="9"
         height="49"
         id="rect2552" />
    </g>
    <g
       fill="silver"
       transform="matrix(1,0,0,1,-47,14)"
       stroke="silver"
       id="g2554">
      <rect
         x="309"
         y="1.6667"
         clip-path="url(#clipPath2)"
         width="9"
         height="49"
         stroke="none"
         id="rect2556" />
    </g>
    <g
       stroke-width="2"
       stroke-miterlimit="1.45"
       transform="matrix(1,0,0,1,-47,14)"
       stroke-linecap="butt"
       id="g2558">
      <rect
         x="309"
         y="1.6667"
         clip-path="url(#clipPath2)"
         fill="none"
         width="9"
         height="49"
         id="rect2560" />
    </g>
    <g
       fill="silver"
       transform="matrix(1,0,0,1,-47,14)"
       stroke="silver"
       id="g2562">
      <rect
         x="345"
         y="41.6667"
         clip-path="url(#clipPath2)"
         width="9"
         height="49"
         stroke="none"
         id="rect2564" />
    </g>
    <g
       stroke-width="2"
       stroke-miterlimit="1.45"
       transform="matrix(1,0,0,1,-47,14)"
       stroke-linecap="butt"
       id="g2566">
      <rect
         x="345"
         y="41.6667"
         clip-path="url(#clipPath2)"
         fill="none"
         width="9"
         height="49"
         id="rect2568" />
    </g>
    <g
       fill="silver"
       transform="matrix(1,0,0,1,-47,14)"
       stroke="silver"
       id="g2570">
      <rect
         x="276"
         y="41.6667"
         clip-path="url(#clipPath2)"
         width="9"
         height="49"
         stroke="none"
         id="rect2572" />
    </g>
    <g
       stroke-width="2"
       stroke-miterlimit="1.45"
       transform="matrix(1,0,0,1,-47,14)"
       stroke-linecap="butt"
       id="g2574">
      <rect
         x="276"
         y="41.6667"
         clip-path="url(#clipPath2)"
         fill="none"
         width="9"
         height="49"
         id="rect2576" />
    </g>
    <g
       fill="rgb(0,204,255)"
       transform="matrix(1,0,0,1,-47,14)"
       stroke="rgb(0,204,255)"
       id="g2578">
      <rect
         x="608"
         y="33"
         clip-path="url(#clipPath2)"
         width="50"
         rx="4"
         ry="4"
         height="50"
         stroke="none"
         id="rect2580" />
    </g>
    <g
       font-size="20"
       font-family="sans-serif"
       transform="matrix(1,0,0,1,-47,14)"
       id="g2582">
      <text
         xml:space="preserve"
         x="626"
         y="65.1889"
         clip-path="url(#clipPath2)"
         stroke="none"
         id="text2584">A</text>
    </g>
    <g
       stroke-width="2"
       stroke-miterlimit="1.45"
       transform="matrix(1,0,0,1,-47,14)"
       stroke-linecap="butt"
       id="g2586">
      <rect
         x="608"
         y="33"
         clip-path="url(#clipPath2)"
         fill="none"
         width="50"
         rx="4"
         ry="4"
         height="50"
         id="rect2588" />
    </g>
    <g
       fill="rgb(0,204,255)"
       transform="matrix(1,0,0,1,-47,14)"
       stroke="rgb(0,204,255)"
       id="g2590">
      <rect
         x="608"
         y="88"
         clip-path="url(#clipPath2)"
         width="50"
         rx="4"
         ry="4"
         height="50"
         stroke="none"
         id="rect2592" />
    </g>
    <g
       font-size="20"
       font-family="sans-serif"
       transform="matrix(1,0,0,1,-47,14)"
       id="g2594">
      <text
         xml:space="preserve"
         x="627"
         y="120.1889"
         clip-path="url(#clipPath2)"
         stroke="none"
         id="text2596">B</text>
    </g>
    <g
       stroke-width="2"
       stroke-miterlimit="1.45"
       transform="matrix(1,0,0,1,-47,14)"
       stroke-linecap="butt"
       id="g2598">
      <rect
         x="608"
         y="88"
         clip-path="url(#clipPath2)"
         fill="none"
         width="50"
         rx="4"
         ry="4"
         height="50"
         id="rect2600" />
    </g>
    <g
       fill="rgb(0,204,255)"
       transform="matrix(1,0,0,1,-47,14)"
       stroke="rgb(0,204,255)"
       id="g2602">
      <rect
         x="608"
         y="143"
         clip-path="url(#clipPath2)"
         width="50"
         rx="4"
         ry="4"
         height="50"
         stroke="none"
         id="rect2604" />
    </g>
    <g
       font-size="20"
       font-family="sans-serif"
       transform="matrix(1,0,0,1,-47,14)"
       id="g2606">
      <text
         xml:space="preserve"
         x="626"
         y="175.1889"
         clip-path="url(#clipPath2)"
         stroke="none"
         id="text2608">C</text>
    </g>
    <g
       stroke-width="2"
       stroke-miterlimit="1.45"
       transform="matrix(1,0,0,1,-47,14)"
       stroke-linecap="butt"
       id="g2610">
      <rect
         x="608"
         y="143"
         clip-path="url(#clipPath2)"
         fill="none"
         width="50"
         rx="4"
         ry="4"
         height="50"
         id="rect2612" />
    </g>
    <g
       fill="silver"
       transform="matrix(1,0,0,1,-47,14)"
       stroke="silver"
       id="g2614">
      <rect
         x="494"
         y="198"
         clip-path="url(#clipPath2)"
         width="165"
         height="15"
         stroke="none"
         id="rect2616" />
    </g>
    <g
       stroke-width="2"
       stroke-miterlimit="1.45"
       transform="matrix(1,0,0,1,-47,14)"
       stroke-linecap="butt"
       id="g2618">
      <rect
         x="494"
         y="198"
         clip-path="url(#clipPath2)"
         fill="none"
         width="165"
         height="15"
         id="rect2620" />
    </g>
    <g
       fill="white"
       transform="matrix(1,0,0,1,-47,14)"
       stroke="white"
       id="g2622">
      <rect
         x="290"
         y="54"
         clip-path="url(#clipPath2)"
         width="50"
         rx="4"
         ry="4"
         height="50"
         stroke="none"
         id="rect2624" />
    </g>
    <g
       font-size="20"
       font-family="sans-serif"
       transform="matrix(1,0,0,1,-47,14)"
       id="g2626">
      <text
         xml:space="preserve"
         x="308"
         y="86.1889"
         clip-path="url(#clipPath2)"
         stroke="none"
         id="text2628">A</text>
    </g>
    <g
       stroke-width="2"
       stroke-miterlimit="1.45"
       transform="matrix(1,0,0,1,-47,14)"
       stroke-linecap="butt"
       id="g2630">
      <rect
         x="290"
         y="54"
         clip-path="url(#clipPath2)"
         fill="none"
         width="50"
         rx="4"
         ry="4"
         height="50"
         id="rect2632" />
    </g>
    <g
       fill="rgb(0,204,255)"
       transform="matrix(1,0,0,1,-47,14)"
       stroke="rgb(0,204,255)"
       id="g2634">
      <rect
         x="403"
         y="89"
         clip-path="url(#clipPath2)"
         width="50"
         rx="4"
         ry="4"
         height="50"
         stroke="none"
         id="rect2636" />
    </g>
    <g
       font-size="20"
       font-family="sans-serif"
       transform="matrix(1,0,0,1,-47,14)"
       id="g2638">
      <text
         xml:space="preserve"
         x="422"
         y="121.1889"
         clip-path="url(#clipPath2)"
         stroke="none"
         id="text2640">B</text>
    </g>
    <g
       stroke-width="2"
       stroke-miterlimit="1.45"
       transform="matrix(1,0,0,1,-47,14)"
       stroke-linecap="butt"
       id="g2642">
      <rect
         x="403"
         y="89"
         clip-path="url(#clipPath2)"
         fill="none"
         width="50"
         rx="4"
         ry="4"
         height="50"
         id="rect2644" />
    </g>
    <g
       fill="rgb(0,204,255)"
       transform="matrix(1,0,0,1,-47,14)"
       stroke="rgb(0,204,255)"
       id="g2646">
      <rect
         x="403"
         y="144"
         clip-path="url(#clipPath2)"
         width="50"
         rx="4"
         ry="4"
         height="50"
         stroke="none"
         id="rect2648" />
    </g>
    <g
       font-size="20"
       font-family="sans-serif"
       transform="matrix(1,0,0,1,-47,14)"
       id="g2650">
      <text
         xml:space="preserve"
         x="421"
         y="176.1889"
         clip-path="url(#clipPath2)"
         stroke="none"
         id="text2652">C</text>
    </g>
    <g
       stroke-width="2"
       stroke-miterlimit="1.45"
       transform="matrix(1,0,0,1,-47,14)"
       stroke-linecap="butt"
       id="g2654">
      <rect
         x="403"
         y="144"
         clip-path="url(#clipPath2)"
         fill="none"
         width="50"
         rx="4"
         ry="4"
         height="50"
         id="rect2656" />
    </g>
    <g
       fill="silver"
       transform="matrix(1,0,0,1,-47,14)"
       stroke="silver"
       id="g2658">
      <rect
         x="289"
         y="199"
         clip-path="url(#clipPath2)"
         width="165"
         height="15"
         stroke="none"
         id="rect2660" />
    </g>
    <g
       stroke-width="2"
       stroke-miterlimit="1.45"
       transform="matrix(1,0,0,1,-47,14)"
       stroke-linecap="butt"
       id="g2662">
      <rect
         x="289"
         y="199"
         clip-path="url(#clipPath2)"
         fill="none"
         width="165"
         height="15"
         id="rect2664" />
    </g>
    <g
       fill="white"
       transform="matrix(1,0,0,1,-47,14)"
       stroke="white"
       id="g2666">
      <rect
         x="77"
         y="144"
         clip-path="url(#clipPath2)"
         width="50"
         rx="4"
         ry="4"
         height="50"
         stroke="none"
         id="rect2668" />
    </g>
    <g
       font-size="20"
       font-family="sans-serif"
       transform="matrix(1,0,0,1,-47,14)"
       id="g2670">
      <text
         xml:space="preserve"
         x="95"
         y="176.1889"
         clip-path="url(#clipPath2)"
         stroke="none"
         id="text2672">A</text>
    </g>
    <g
       stroke-width="2"
       stroke-miterlimit="1.45"
       transform="matrix(1,0,0,1,-47,14)"
       stroke-linecap="butt"
       id="g2674">
      <rect
         x="77"
         y="144"
         clip-path="url(#clipPath2)"
         fill="none"
         width="50"
         rx="4"
         ry="4"
         height="50"
         id="rect2676" />
    </g>
    <g
       fill="rgb(0,204,255)"
       transform="matrix(1,0,0,1,-47,14)"
       stroke="rgb(0,204,255)"
       id="g2678">
      <rect
         x="191"
         y="90"
         clip-path="url(#clipPath2)"
         width="50"
         rx="4"
         ry="4"
         height="50"
         stroke="none"
         id="rect2680" />
    </g>
    <g
       font-size="20"
       font-family="sans-serif"
       transform="matrix(1,0,0,1,-47,14)"
       id="g2682">
      <text
         xml:space="preserve"
         x="210"
         y="122.1889"
         clip-path="url(#clipPath2)"
         stroke="none"
         id="text2684">B</text>
    </g>
    <g
       stroke-width="2"
       stroke-miterlimit="1.45"
       transform="matrix(1,0,0,1,-47,14)"
       stroke-linecap="butt"
       id="g2686">
      <rect
         x="191"
         y="90"
         clip-path="url(#clipPath2)"
         fill="none"
         width="50"
         rx="4"
         ry="4"
         height="50"
         id="rect2688" />
    </g>
    <g
       fill="rgb(0,204,255)"
       transform="matrix(1,0,0,1,-47,14)"
       stroke="rgb(0,204,255)"
       id="g2690">
      <rect
         x="191"
         y="145"
         clip-path="url(#clipPath2)"
         width="50"
         rx="4"
         ry="4"
         height="50"
         stroke="none"
         id="rect2692" />
    </g>
    <g
       font-size="20"
       font-family="sans-serif"
       transform="matrix(1,0,0,1,-47,14)"
       id="g2694">
      <text
         xml:space="preserve"
         x="209"
         y="177.1889"
         clip-path="url(#clipPath2)"
         stroke="none"
         id="text2696">C</text>
    </g>
    <g
       stroke-width="2"
       stroke-miterlimit="1.45"
       transform="matrix(1,0,0,1,-47,14)"
       stroke-linecap="butt"
       id="g2698">
      <rect
         x="191"
         y="145"
         clip-path="url(#clipPath2)"
         fill="none"
         width="50"
         rx="4"
         ry="4"
         height="50"
         id="rect2700" />
    </g>
    <g
       fill="silver"
       transform="matrix(1,0,0,1,-47,14)"
       stroke="silver"
       id="g2702">
      <rect
         x="77"
         y="200"
         clip-path="url(#clipPath2)"
         width="165"
         height="15"
         stroke="none"
         id="rect2704" />
    </g>
    <g
       stroke-width="2"
       stroke-miterlimit="1.45"
       transform="matrix(1,0,0,1,-47,14)"
       stroke-linecap="butt"
       id="g2706">
      <rect
         x="77"
         y="200"
         clip-path="url(#clipPath2)"
         fill="none"
         width="165"
         height="15"
         id="rect2708" />
    </g>
    <g
       font-size="10"
       font-family="sans-serif"
       transform="matrix(1,0,0,1,-47,14)"
       id="g2710">
      <text
         xml:space="preserve"
         x="85.5"
         y="188.5944"
         clip-path="url(#clipPath2)"
         stroke="none"
         id="text2712">branco</text>
      <text
         xml:space="preserve"
         x="298.5"
         y="97.5944"
         clip-path="url(#clipPath2)"
         stroke="none"
         id="text2714">branco</text>
      <text
         xml:space="preserve"
         x="204.5"
         y="134.5944"
         clip-path="url(#clipPath2)"
         stroke="none"
         id="text2716">azul</text>
      <text
         xml:space="preserve"
         x="204.5"
         y="188.5944"
         clip-path="url(#clipPath2)"
         stroke="none"
         id="text2718">azul</text>
      <text
         xml:space="preserve"
         x="416.5"
         y="135.5944"
         clip-path="url(#clipPath2)"
         stroke="none"
         id="text2720">azul</text>
      <text
         xml:space="preserve"
         x="417.75"
         y="187.3444"
         clip-path="url(#clipPath2)"
         stroke="none"
         id="text2722">azul</text>
      <text
         xml:space="preserve"
         x="622.5156"
         y="75.0788"
         clip-path="url(#clipPath2)"
         stroke="none"
         id="text2724">azul</text>
      <text
         xml:space="preserve"
         x="621.5"
         y="132.6569"
         clip-path="url(#clipPath2)"
         stroke="none"
         id="text2726">azul</text>
      <text
         xml:space="preserve"
         x="624.4844"
         y="185.2819"
         clip-path="url(#clipPath2)"
         stroke="none"
         id="text2728">azul</text>
    </g>
    <g
       fill="silver"
       transform="matrix(1,0,0,1,-47,14)"
       stroke="silver"
       id="g2730">
      <rect
         x="62"
         y="41.6667"
         clip-path="url(#clipPath2)"
         width="78"
         height="9"
         stroke="none"
         id="rect2732" />
    </g>
    <g
       stroke-width="2"
       stroke-miterlimit="1.45"
       transform="matrix(1,0,0,1,-47,14)"
       stroke-linecap="butt"
       id="g2734">
      <rect
         x="62"
         y="41.6667"
         clip-path="url(#clipPath2)"
         fill="none"
         width="78"
         height="9"
         id="rect2736" />
    </g>
    <g
       fill="silver"
       transform="matrix(1,0,0,1,-47,14)"
       stroke="silver"
       id="g2738">
      <rect
         x="276"
         y="41.6667"
         clip-path="url(#clipPath2)"
         width="78"
         height="9"
         stroke="none"
         id="rect2740" />
    </g>
    <g
       stroke-width="2"
       stroke-miterlimit="1.45"
       transform="matrix(1,0,0,1,-47,14)"
       stroke-linecap="butt"
       id="g2742">
      <rect
         x="276"
         y="41.6667"
         clip-path="url(#clipPath2)"
         fill="none"
         width="78"
         height="9"
         id="rect2744" />
    </g>
    <g
       fill="silver"
       transform="matrix(1,0,0,1,-47,14)"
       stroke="silver"
       id="g2746">
      <rect
         x="493"
         y="45.6667"
         clip-path="url(#clipPath2)"
         width="78"
         height="9"
         stroke="none"
         id="rect2748" />
    </g>
    <g
       stroke-width="2"
       stroke-miterlimit="1.45"
       transform="matrix(1,0,0,1,-47,14)"
       stroke-linecap="butt"
       id="g2750">
      <rect
         x="493"
         y="45.6667"
         clip-path="url(#clipPath2)"
         fill="none"
         width="78"
         height="9"
         id="rect2752" />
    </g>
  </g>
</svg>
