<?xml version="1.0" encoding="UTF-8" standalone="no"?>
<svg
   xmlns:dc="http://purl.org/dc/elements/1.1/"
   xmlns:cc="http://web.resource.org/cc/"
   xmlns:rdf="http://www.w3.org/1999/02/22-rdf-syntax-ns#"
   xmlns:svg="http://www.w3.org/2000/svg"
   xmlns="http://www.w3.org/2000/svg"
   xmlns:sodipodi="http://sodipodi.sourceforge.net/DTD/sodipodi-0.dtd"
   xmlns:inkscape="http://www.inkscape.org/namespaces/inkscape"
   fill-opacity="1"
   color-rendering="auto"
   color-interpolation="auto"
   stroke="black"
   text-rendering="auto"
   stroke-linecap="square"
   width="962"
   stroke-miterlimit="10"
   stroke-opacity="1"
   shape-rendering="auto"
   fill="black"
   stroke-dasharray="none"
   font-weight="normal"
   stroke-width="1"
   height="518"
   font-family="'Dialog'"
   font-style="normal"
   stroke-linejoin="miter"
   font-size="12"
   stroke-dashoffset="0"
   image-rendering="auto"
   id="svg2786"
   sodipodi:version="0.32"
   inkscape:version="0.45.1"
   sodipodi:docname="plano_ordem_parcial.svg"
   inkscape:output_extension="org.inkscape.output.svg.inkscape"
   sodipodi:docbase="C:\Users\david\Desktop\monografia\img">
  <metadata
     id="metadata3359">
    <rdf:RDF>
      <cc:Work
         rdf:about="">
        <dc:format>image/svg+xml</dc:format>
        <dc:type
           rdf:resource="http://purl.org/dc/dcmitype/StillImage" />
      </cc:Work>
    </rdf:RDF>
  </metadata>
  <sodipodi:namedview
     inkscape:window-height="575"
     inkscape:window-width="802"
     inkscape:pageshadow="2"
     inkscape:pageopacity="0.0"
     guidetolerance="10.0"
     gridtolerance="10.0"
     objecttolerance="10.0"
     borderopacity="1.0"
     bordercolor="#666666"
     pagecolor="#ffffff"
     id="base"
     inkscape:zoom="0.72779923"
     inkscape:cx="481"
     inkscape:cy="259"
     inkscape:window-x="46"
     inkscape:window-y="46"
     inkscape:current-layer="svg2786" />
<!--Generated by ySVG-->  <defs
     id="genericDefs" />
  <g
     id="g2789">
    <defs
       id="defs1">
      <clipPath
         clipPathUnits="userSpaceOnUse"
         id="clipPath1">
        <path
           d="M0 0 L962 0 L962 518 L0 518 L0 0 Z"
           id="path2793" />
      </clipPath>
      <clipPath
         clipPathUnits="userSpaceOnUse"
         id="clipPath2">
        <path
           d="M196 -15 L1158 -15 L1158 503 L196 503 L196 -15 Z"
           id="path2796" />
      </clipPath>
    </defs>
    <g
       fill="white"
       transform="translate(-196,15)"
       stroke="white"
       id="g2798">
      <rect
         x="196"
         y="-15"
         clip-path="url(#clipPath2)"
         width="962"
         height="518"
         stroke="none"
         id="rect2800" />
    </g>
    <g
       fill="white"
       stroke="white"
       id="g2802">
      <rect
         x="8.9219"
         y="495.4062"
         clip-path="url(#clipPath1)"
         width="100.6484"
         height="15.125"
         stroke="none"
         id="rect2804" />
    </g>
    <g
       font-size="15"
       font-family="sans-serif"
       transform="matrix(1,0,0,1,-196,15)"
       id="g2808">
      <text
         xml:space="preserve"
         x="361"
         y="95.8923"
         clip-path="url(#clipPath2)"
         stroke="none"
         id="text2810">Iniciar</text>
    </g>
    <g
       stroke-width="3"
       stroke-miterlimit="1.45"
       transform="matrix(1,0,0,1,-196,15)"
       stroke-linecap="butt"
       id="g2812">
      <rect
         x="345"
         y="72.5"
         clip-path="url(#clipPath2)"
         fill="none"
         width="70"
         rx="4"
         ry="4"
         height="35"
         id="rect2814" />
    </g>
    <g
       font-size="14"
       font-family="sans-serif"
       transform="matrix(1,0,0,1,-196,15)"
       id="g2816">
      <text
         xml:space="preserve"
         x="265"
         y="201.9238"
         clip-path="url(#clipPath2)"
         stroke="none"
         id="text2818">Meia</text>
      <text
         xml:space="preserve"
         x="249.5"
         y="219.0752"
         clip-path="url(#clipPath2)"
         stroke="none"
         id="text2820">Esquerda</text>
    </g>
    <g
       stroke-width="3"
       stroke-miterlimit="1.45"
       transform="matrix(1,0,0,1,-196,15)"
       stroke-linecap="butt"
       id="g2822">
      <rect
         x="245"
         y="187.5"
         clip-path="url(#clipPath2)"
         fill="none"
         width="70"
         rx="4"
         ry="4"
         height="35"
         id="rect2824" />
    </g>
    <g
       font-size="14"
       font-family="sans-serif"
       transform="matrix(1,0,0,1,-196,15)"
       id="g2826">
      <text
         xml:space="preserve"
         x="465"
         y="201.9238"
         clip-path="url(#clipPath2)"
         stroke="none"
         id="text2828">Meia</text>
      <text
         xml:space="preserve"
         x="459.5"
         y="219.0752"
         clip-path="url(#clipPath2)"
         stroke="none"
         id="text2830">Direita</text>
    </g>
    <g
       stroke-width="3"
       stroke-miterlimit="1.45"
       transform="matrix(1,0,0,1,-196,15)"
       stroke-linecap="butt"
       id="g2832">
      <rect
         x="445"
         y="187.5"
         clip-path="url(#clipPath2)"
         fill="none"
         width="70"
         rx="4"
         ry="4"
         height="35"
         id="rect2834" />
    </g>
    <g
       font-size="14"
       font-family="sans-serif"
       transform="matrix(1,0,0,1,-196,15)"
       id="g2836">
      <text
         xml:space="preserve"
         x="257.5"
         y="341.9238"
         clip-path="url(#clipPath2)"
         stroke="none"
         id="text2838">Sapato</text>
      <text
         xml:space="preserve"
         x="249.5"
         y="359.0752"
         clip-path="url(#clipPath2)"
         stroke="none"
         id="text2840">Esquerdo</text>
    </g>
    <g
       stroke-width="3"
       stroke-miterlimit="1.45"
       transform="matrix(1,0,0,1,-196,15)"
       stroke-linecap="butt"
       id="g2842">
      <rect
         x="245"
         y="327.5"
         clip-path="url(#clipPath2)"
         fill="none"
         width="70"
         rx="4"
         ry="4"
         height="35"
         id="rect2844" />
    </g>
    <g
       font-size="14"
       font-family="sans-serif"
       transform="matrix(1,0,0,1,-196,15)"
       id="g2846">
      <text
         xml:space="preserve"
         x="457.5"
         y="341.9238"
         clip-path="url(#clipPath2)"
         stroke="none"
         id="text2848">Sapato</text>
      <text
         xml:space="preserve"
         x="459.5"
         y="359.0752"
         clip-path="url(#clipPath2)"
         stroke="none"
         id="text2850">Direito</text>
    </g>
    <g
       stroke-width="3"
       stroke-miterlimit="1.45"
       transform="matrix(1,0,0,1,-196,15)"
       stroke-linecap="butt"
       id="g2852">
      <rect
         x="445"
         y="327.5"
         clip-path="url(#clipPath2)"
         fill="none"
         width="70"
         rx="4"
         ry="4"
         height="35"
         id="rect2854" />
    </g>
    <g
       font-size="15"
       font-family="sans-serif"
       transform="matrix(1,0,0,1,-196,15)"
       id="g2856">
      <text
         xml:space="preserve"
         x="350.5"
         y="475.8923"
         clip-path="url(#clipPath2)"
         stroke="none"
         id="text2858">Terminar</text>
    </g>
    <g
       stroke-width="3"
       stroke-miterlimit="1.45"
       transform="matrix(1,0,0,1,-196,15)"
       stroke-linecap="butt"
       id="g2860">
      <rect
         x="345"
         y="452.5"
         clip-path="url(#clipPath2)"
         fill="none"
         width="70"
         rx="4"
         ry="4"
         height="35"
         id="rect2862" />
    </g>
    <g
       font-size="15"
       font-family="sans-serif"
       transform="matrix(1,0,0,1,-196,15)"
       id="g2864">
      <text
         xml:space="preserve"
         x="615"
         y="108.8923"
         clip-path="url(#clipPath2)"
         stroke="none"
         id="text2866">Iniciar</text>
    </g>
    <g
       stroke-width="3"
       stroke-miterlimit="1.45"
       transform="matrix(1,0,0,1,-196,15)"
       stroke-linecap="butt"
       id="g2868">
      <rect
         x="599"
         y="85.5"
         clip-path="url(#clipPath2)"
         fill="none"
         width="70"
         rx="4"
         ry="4"
         height="35"
         id="rect2870" />
    </g>
    <g
       font-size="14"
       font-family="sans-serif"
       transform="matrix(1,0,0,1,-196,15)"
       id="g2872">
      <text
         xml:space="preserve"
         x="617"
         y="169.9238"
         clip-path="url(#clipPath2)"
         stroke="none"
         id="text2874">Meia </text>
      <text
         xml:space="preserve"
         x="613.5"
         y="187.0752"
         clip-path="url(#clipPath2)"
         stroke="none"
         id="text2876">Direita</text>
    </g>
    <g
       stroke-width="3"
       stroke-miterlimit="1.45"
       transform="matrix(1,0,0,1,-196,15)"
       stroke-linecap="butt"
       id="g2878">
      <rect
         x="599"
         y="155.5"
         clip-path="url(#clipPath2)"
         fill="none"
         width="70"
         rx="4"
         ry="4"
         height="35"
         id="rect2880" />
    </g>
    <g
       font-size="14"
       font-family="sans-serif"
       transform="matrix(1,0,0,1,-196,15)"
       id="g2882">
      <text
         xml:space="preserve"
         x="619"
         y="239.9238"
         clip-path="url(#clipPath2)"
         stroke="none"
         id="text2884">Meia</text>
      <text
         xml:space="preserve"
         x="603.5"
         y="257.0752"
         clip-path="url(#clipPath2)"
         stroke="none"
         id="text2886">Esquerda</text>
    </g>
    <g
       stroke-width="3"
       stroke-miterlimit="1.45"
       transform="matrix(1,0,0,1,-196,15)"
       stroke-linecap="butt"
       id="g2888">
      <rect
         x="599"
         y="225.5"
         clip-path="url(#clipPath2)"
         fill="none"
         width="70"
         rx="4"
         ry="4"
         height="35"
         id="rect2890" />
    </g>
    <g
       font-size="14"
       font-family="sans-serif"
       transform="matrix(1,0,0,1,-196,15)"
       id="g2892">
      <text
         xml:space="preserve"
         x="611.5"
         y="309.9238"
         clip-path="url(#clipPath2)"
         stroke="none"
         id="text2894">Sapato</text>
      <text
         xml:space="preserve"
         x="613.5"
         y="327.0752"
         clip-path="url(#clipPath2)"
         stroke="none"
         id="text2896">Direito</text>
    </g>
    <g
       stroke-width="3"
       stroke-miterlimit="1.45"
       transform="matrix(1,0,0,1,-196,15)"
       stroke-linecap="butt"
       id="g2898">
      <rect
         x="599"
         y="295.5"
         clip-path="url(#clipPath2)"
         fill="none"
         width="70"
         rx="4"
         ry="4"
         height="35"
         id="rect2900" />
    </g>
    <g
       font-size="14"
       font-family="sans-serif"
       transform="matrix(1,0,0,1,-196,15)"
       id="g2902">
      <text
         xml:space="preserve"
         x="611.5"
         y="389.9238"
         clip-path="url(#clipPath2)"
         stroke="none"
         id="text2904">Sapato</text>
      <text
         xml:space="preserve"
         x="603.5"
         y="407.0752"
         clip-path="url(#clipPath2)"
         stroke="none"
         id="text2906">Esquerdo</text>
    </g>
    <g
       stroke-width="3"
       stroke-miterlimit="1.45"
       transform="matrix(1,0,0,1,-196,15)"
       stroke-linecap="butt"
       id="g2908">
      <rect
         x="599"
         y="375.5"
         clip-path="url(#clipPath2)"
         fill="none"
         width="70"
         rx="4"
         ry="4"
         height="35"
         id="rect2910" />
    </g>
    <g
       font-size="15"
       font-family="sans-serif"
       transform="matrix(1,0,0,1,-196,15)"
       id="g2912">
      <text
         xml:space="preserve"
         x="604.5"
         y="468.8923"
         clip-path="url(#clipPath2)"
         stroke="none"
         id="text2914">Terminar</text>
    </g>
    <g
       stroke-width="3"
       stroke-miterlimit="1.45"
       transform="matrix(1,0,0,1,-196,15)"
       stroke-linecap="butt"
       id="g2916">
      <rect
         x="599"
         y="445.5"
         clip-path="url(#clipPath2)"
         fill="none"
         width="70"
         rx="4"
         ry="4"
         height="35"
         id="rect2918" />
    </g>
    <g
       font-size="15"
       font-family="sans-serif"
       transform="matrix(1,0,0,1,-196,15)"
       id="g2920">
      <text
         xml:space="preserve"
         x="709"
         y="107.8923"
         clip-path="url(#clipPath2)"
         stroke="none"
         id="text2922">Iniciar</text>
    </g>
    <g
       stroke-width="3"
       stroke-miterlimit="1.45"
       transform="matrix(1,0,0,1,-196,15)"
       stroke-linecap="butt"
       id="g2924">
      <rect
         x="693"
         y="84.5"
         clip-path="url(#clipPath2)"
         fill="none"
         width="70"
         rx="4"
         ry="4"
         height="35"
         id="rect2926" />
    </g>
    <g
       font-size="14"
       font-family="sans-serif"
       transform="matrix(1,0,0,1,-196,15)"
       id="g2928">
      <text
         xml:space="preserve"
         x="713"
         y="168.9238"
         clip-path="url(#clipPath2)"
         stroke="none"
         id="text2930">Meia</text>
      <text
         xml:space="preserve"
         x="707.5"
         y="186.0752"
         clip-path="url(#clipPath2)"
         stroke="none"
         id="text2932">Direita</text>
    </g>
    <g
       stroke-width="3"
       stroke-miterlimit="1.45"
       transform="matrix(1,0,0,1,-196,15)"
       stroke-linecap="butt"
       id="g2934">
      <rect
         x="693"
         y="154.5"
         clip-path="url(#clipPath2)"
         fill="none"
         width="70"
         rx="4"
         ry="4"
         height="35"
         id="rect2936" />
    </g>
    <g
       font-size="14"
       font-family="sans-serif"
       transform="matrix(1,0,0,1,-196,15)"
       id="g2938">
      <text
         xml:space="preserve"
         x="713"
         y="238.9238"
         clip-path="url(#clipPath2)"
         stroke="none"
         id="text2940">Meia</text>
      <text
         xml:space="preserve"
         x="697.5"
         y="256.0752"
         clip-path="url(#clipPath2)"
         stroke="none"
         id="text2942">Esquerda</text>
    </g>
    <g
       stroke-width="3"
       stroke-miterlimit="1.45"
       transform="matrix(1,0,0,1,-196,15)"
       stroke-linecap="butt"
       id="g2944">
      <rect
         x="693"
         y="224.5"
         clip-path="url(#clipPath2)"
         fill="none"
         width="70"
         rx="4"
         ry="4"
         height="35"
         id="rect2946" />
    </g>
    <g
       font-size="14"
       font-family="sans-serif"
       transform="matrix(1,0,0,1,-196,15)"
       id="g2948">
      <text
         xml:space="preserve"
         x="705.5"
         y="308.9238"
         clip-path="url(#clipPath2)"
         stroke="none"
         id="text2950">Sapato</text>
      <text
         xml:space="preserve"
         x="697.5"
         y="326.0752"
         clip-path="url(#clipPath2)"
         stroke="none"
         id="text2952">Esquerdo</text>
    </g>
    <g
       stroke-width="3"
       stroke-miterlimit="1.45"
       transform="matrix(1,0,0,1,-196,15)"
       stroke-linecap="butt"
       id="g2954">
      <rect
         x="693"
         y="294.5"
         clip-path="url(#clipPath2)"
         fill="none"
         width="70"
         rx="4"
         ry="4"
         height="35"
         id="rect2956" />
    </g>
    <g
       font-size="14"
       font-family="sans-serif"
       transform="matrix(1,0,0,1,-196,15)"
       id="g2958">
      <text
         xml:space="preserve"
         x="705.5"
         y="388.9238"
         clip-path="url(#clipPath2)"
         stroke="none"
         id="text2960">Sapato</text>
      <text
         xml:space="preserve"
         x="707.5"
         y="406.0752"
         clip-path="url(#clipPath2)"
         stroke="none"
         id="text2962">Direito</text>
    </g>
    <g
       stroke-width="3"
       stroke-miterlimit="1.45"
       transform="matrix(1,0,0,1,-196,15)"
       stroke-linecap="butt"
       id="g2964">
      <rect
         x="693"
         y="374.5"
         clip-path="url(#clipPath2)"
         fill="none"
         width="70"
         rx="4"
         ry="4"
         height="35"
         id="rect2966" />
    </g>
    <g
       font-size="15"
       font-family="sans-serif"
       transform="matrix(1,0,0,1,-196,15)"
       id="g2968">
      <text
         xml:space="preserve"
         x="698.5"
         y="467.8923"
         clip-path="url(#clipPath2)"
         stroke="none"
         id="text2970">Terminar</text>
    </g>
    <g
       stroke-width="3"
       stroke-miterlimit="1.45"
       transform="matrix(1,0,0,1,-196,15)"
       stroke-linecap="butt"
       id="g2972">
      <rect
         x="693"
         y="444.5"
         clip-path="url(#clipPath2)"
         fill="none"
         width="70"
         rx="4"
         ry="4"
         height="35"
         id="rect2974" />
    </g>
    <g
       font-size="15"
       font-family="sans-serif"
       transform="matrix(1,0,0,1,-196,15)"
       id="g2976">
      <text
         xml:space="preserve"
         x="805"
         y="108.8923"
         clip-path="url(#clipPath2)"
         stroke="none"
         id="text2978">Iniciar</text>
    </g>
    <g
       stroke-width="3"
       stroke-miterlimit="1.45"
       transform="matrix(1,0,0,1,-196,15)"
       stroke-linecap="butt"
       id="g2980">
      <rect
         x="789"
         y="85.5"
         clip-path="url(#clipPath2)"
         fill="none"
         width="70"
         rx="4"
         ry="4"
         height="35"
         id="rect2982" />
    </g>
    <g
       font-size="14"
       font-family="sans-serif"
       transform="matrix(1,0,0,1,-196,15)"
       id="g2984">
      <text
         xml:space="preserve"
         x="809"
         y="169.9238"
         clip-path="url(#clipPath2)"
         stroke="none"
         id="text2986">Meia</text>
      <text
         xml:space="preserve"
         x="793.5"
         y="187.0752"
         clip-path="url(#clipPath2)"
         stroke="none"
         id="text2988">Esquerda</text>
    </g>
    <g
       stroke-width="3"
       stroke-miterlimit="1.45"
       transform="matrix(1,0,0,1,-196,15)"
       stroke-linecap="butt"
       id="g2990">
      <rect
         x="789"
         y="155.5"
         clip-path="url(#clipPath2)"
         fill="none"
         width="70"
         rx="4"
         ry="4"
         height="35"
         id="rect2992" />
    </g>
    <g
       font-size="14"
       font-family="sans-serif"
       transform="matrix(1,0,0,1,-196,15)"
       id="g2994">
      <text
         xml:space="preserve"
         x="809"
         y="239.9238"
         clip-path="url(#clipPath2)"
         stroke="none"
         id="text2996">Meia</text>
      <text
         xml:space="preserve"
         x="803.5"
         y="257.0752"
         clip-path="url(#clipPath2)"
         stroke="none"
         id="text2998">Direita</text>
    </g>
    <g
       stroke-width="3"
       stroke-miterlimit="1.45"
       transform="matrix(1,0,0,1,-196,15)"
       stroke-linecap="butt"
       id="g3000">
      <rect
         x="789"
         y="225.5"
         clip-path="url(#clipPath2)"
         fill="none"
         width="70"
         rx="4"
         ry="4"
         height="35"
         id="rect3002" />
    </g>
    <g
       font-size="14"
       font-family="sans-serif"
       transform="matrix(1,0,0,1,-196,15)"
       id="g3004">
      <text
         xml:space="preserve"
         x="801.5"
         y="309.9238"
         clip-path="url(#clipPath2)"
         stroke="none"
         id="text3006">Sapato</text>
      <text
         xml:space="preserve"
         x="803.5"
         y="327.0752"
         clip-path="url(#clipPath2)"
         stroke="none"
         id="text3008">Direito</text>
    </g>
    <g
       stroke-width="3"
       stroke-miterlimit="1.45"
       transform="matrix(1,0,0,1,-196,15)"
       stroke-linecap="butt"
       id="g3010">
      <rect
         x="789"
         y="295.5"
         clip-path="url(#clipPath2)"
         fill="none"
         width="70"
         rx="4"
         ry="4"
         height="35"
         id="rect3012" />
    </g>
    <g
       font-size="14"
       font-family="sans-serif"
       transform="matrix(1,0,0,1,-196,15)"
       id="g3014">
      <text
         xml:space="preserve"
         x="801.5"
         y="389.9238"
         clip-path="url(#clipPath2)"
         stroke="none"
         id="text3016">Sapato</text>
      <text
         xml:space="preserve"
         x="793.5"
         y="407.0752"
         clip-path="url(#clipPath2)"
         stroke="none"
         id="text3018">Esquerdo</text>
    </g>
    <g
       stroke-width="3"
       stroke-miterlimit="1.45"
       transform="matrix(1,0,0,1,-196,15)"
       stroke-linecap="butt"
       id="g3020">
      <rect
         x="789"
         y="375.5"
         clip-path="url(#clipPath2)"
         fill="none"
         width="70"
         rx="4"
         ry="4"
         height="35"
         id="rect3022" />
    </g>
    <g
       font-size="15"
       font-family="sans-serif"
       transform="matrix(1,0,0,1,-196,15)"
       id="g3024">
      <text
         xml:space="preserve"
         x="794.5"
         y="468.8923"
         clip-path="url(#clipPath2)"
         stroke="none"
         id="text3026">Terminar</text>
    </g>
    <g
       stroke-width="3"
       stroke-miterlimit="1.45"
       transform="matrix(1,0,0,1,-196,15)"
       stroke-linecap="butt"
       id="g3028">
      <rect
         x="789"
         y="445.5"
         clip-path="url(#clipPath2)"
         fill="none"
         width="70"
         rx="4"
         ry="4"
         height="35"
         id="rect3030" />
    </g>
    <g
       font-size="15"
       font-family="sans-serif"
       transform="matrix(1,0,0,1,-196,15)"
       id="g3032">
      <text
         xml:space="preserve"
         x="899"
         y="107.8923"
         clip-path="url(#clipPath2)"
         stroke="none"
         id="text3034">Iniciar</text>
    </g>
    <g
       stroke-width="3"
       stroke-miterlimit="1.45"
       transform="matrix(1,0,0,1,-196,15)"
       stroke-linecap="butt"
       id="g3036">
      <rect
         x="883"
         y="84.5"
         clip-path="url(#clipPath2)"
         fill="none"
         width="70"
         rx="4"
         ry="4"
         height="35"
         id="rect3038" />
    </g>
    <g
       font-size="14"
       font-family="sans-serif"
       transform="matrix(1,0,0,1,-196,15)"
       id="g3040">
      <text
         xml:space="preserve"
         x="903"
         y="168.9238"
         clip-path="url(#clipPath2)"
         stroke="none"
         id="text3042">Meia</text>
      <text
         xml:space="preserve"
         x="887.5"
         y="186.0752"
         clip-path="url(#clipPath2)"
         stroke="none"
         id="text3044">Esquerda</text>
    </g>
    <g
       stroke-width="3"
       stroke-miterlimit="1.45"
       transform="matrix(1,0,0,1,-196,15)"
       stroke-linecap="butt"
       id="g3046">
      <rect
         x="883"
         y="154.5"
         clip-path="url(#clipPath2)"
         fill="none"
         width="70"
         rx="4"
         ry="4"
         height="35"
         id="rect3048" />
    </g>
    <g
       font-size="14"
       font-family="sans-serif"
       transform="matrix(1,0,0,1,-196,15)"
       id="g3050">
      <text
         xml:space="preserve"
         x="903"
         y="238.9238"
         clip-path="url(#clipPath2)"
         stroke="none"
         id="text3052">Meia</text>
      <text
         xml:space="preserve"
         x="897.5"
         y="256.0752"
         clip-path="url(#clipPath2)"
         stroke="none"
         id="text3054">Direita</text>
    </g>
    <g
       stroke-width="3"
       stroke-miterlimit="1.45"
       transform="matrix(1,0,0,1,-196,15)"
       stroke-linecap="butt"
       id="g3056">
      <rect
         x="883"
         y="224.5"
         clip-path="url(#clipPath2)"
         fill="none"
         width="70"
         rx="4"
         ry="4"
         height="35"
         id="rect3058" />
    </g>
    <g
       font-size="14"
       font-family="sans-serif"
       transform="matrix(1,0,0,1,-196,15)"
       id="g3060">
      <text
         xml:space="preserve"
         x="895.5"
         y="308.9238"
         clip-path="url(#clipPath2)"
         stroke="none"
         id="text3062">Sapato</text>
      <text
         xml:space="preserve"
         x="887.5"
         y="326.0752"
         clip-path="url(#clipPath2)"
         stroke="none"
         id="text3064">Esquerdo</text>
    </g>
    <g
       stroke-width="3"
       stroke-miterlimit="1.45"
       transform="matrix(1,0,0,1,-196,15)"
       stroke-linecap="butt"
       id="g3066">
      <rect
         x="883"
         y="294.5"
         clip-path="url(#clipPath2)"
         fill="none"
         width="70"
         rx="4"
         ry="4"
         height="35"
         id="rect3068" />
    </g>
    <g
       font-size="14"
       font-family="sans-serif"
       transform="matrix(1,0,0,1,-196,15)"
       id="g3070">
      <text
         xml:space="preserve"
         x="895.5"
         y="388.9238"
         clip-path="url(#clipPath2)"
         stroke="none"
         id="text3072">Sapato</text>
      <text
         xml:space="preserve"
         x="897.5"
         y="406.0752"
         clip-path="url(#clipPath2)"
         stroke="none"
         id="text3074">Direito</text>
    </g>
    <g
       stroke-width="3"
       stroke-miterlimit="1.45"
       transform="matrix(1,0,0,1,-196,15)"
       stroke-linecap="butt"
       id="g3076">
      <rect
         x="883"
         y="374.5"
         clip-path="url(#clipPath2)"
         fill="none"
         width="70"
         rx="4"
         ry="4"
         height="35"
         id="rect3078" />
    </g>
    <g
       font-size="15"
       font-family="sans-serif"
       transform="matrix(1,0,0,1,-196,15)"
       id="g3080">
      <text
         xml:space="preserve"
         x="888.5"
         y="467.8923"
         clip-path="url(#clipPath2)"
         stroke="none"
         id="text3082">Terminar</text>
    </g>
    <g
       stroke-width="3"
       stroke-miterlimit="1.45"
       transform="matrix(1,0,0,1,-196,15)"
       stroke-linecap="butt"
       id="g3084">
      <rect
         x="883"
         y="444.5"
         clip-path="url(#clipPath2)"
         fill="none"
         width="70"
         rx="4"
         ry="4"
         height="35"
         id="rect3086" />
    </g>
    <g
       font-size="15"
       font-family="sans-serif"
       transform="matrix(1,0,0,1,-196,15)"
       id="g3088">
      <text
         xml:space="preserve"
         x="995"
         y="108.8923"
         clip-path="url(#clipPath2)"
         stroke="none"
         id="text3090">Iniciar</text>
    </g>
    <g
       stroke-width="3"
       stroke-miterlimit="1.45"
       transform="matrix(1,0,0,1,-196,15)"
       stroke-linecap="butt"
       id="g3092">
      <rect
         x="979"
         y="85.5"
         clip-path="url(#clipPath2)"
         fill="none"
         width="70"
         rx="4"
         ry="4"
         height="35"
         id="rect3094" />
    </g>
    <g
       font-size="14"
       font-family="sans-serif"
       transform="matrix(1,0,0,1,-196,15)"
       id="g3096">
      <text
         xml:space="preserve"
         x="999"
         y="169.9238"
         clip-path="url(#clipPath2)"
         stroke="none"
         id="text3098">Meia</text>
      <text
         xml:space="preserve"
         x="993.5"
         y="187.0752"
         clip-path="url(#clipPath2)"
         stroke="none"
         id="text3100">Direita</text>
    </g>
    <g
       stroke-width="3"
       stroke-miterlimit="1.45"
       transform="matrix(1,0,0,1,-196,15)"
       stroke-linecap="butt"
       id="g3102">
      <rect
         x="979"
         y="155.5"
         clip-path="url(#clipPath2)"
         fill="none"
         width="70"
         rx="4"
         ry="4"
         height="35"
         id="rect3104" />
    </g>
    <g
       font-size="14"
       font-family="sans-serif"
       transform="matrix(1,0,0,1,-196,15)"
       id="g3106">
      <text
         xml:space="preserve"
         x="991.5"
         y="239.9238"
         clip-path="url(#clipPath2)"
         stroke="none"
         id="text3108">Sapato</text>
      <text
         xml:space="preserve"
         x="993.5"
         y="257.0752"
         clip-path="url(#clipPath2)"
         stroke="none"
         id="text3110">Direito</text>
    </g>
    <g
       stroke-width="3"
       stroke-miterlimit="1.45"
       transform="matrix(1,0,0,1,-196,15)"
       stroke-linecap="butt"
       id="g3112">
      <rect
         x="979"
         y="225.5"
         clip-path="url(#clipPath2)"
         fill="none"
         width="70"
         rx="4"
         ry="4"
         height="35"
         id="rect3114" />
    </g>
    <g
       font-size="14"
       font-family="sans-serif"
       transform="matrix(1,0,0,1,-196,15)"
       id="g3116">
      <text
         xml:space="preserve"
         x="999"
         y="309.9238"
         clip-path="url(#clipPath2)"
         stroke="none"
         id="text3118">Meia</text>
      <text
         xml:space="preserve"
         x="983.5"
         y="327.0752"
         clip-path="url(#clipPath2)"
         stroke="none"
         id="text3120">Esquerda</text>
    </g>
    <g
       stroke-width="3"
       stroke-miterlimit="1.45"
       transform="matrix(1,0,0,1,-196,15)"
       stroke-linecap="butt"
       id="g3122">
      <rect
         x="979"
         y="295.5"
         clip-path="url(#clipPath2)"
         fill="none"
         width="70"
         rx="4"
         ry="4"
         height="35"
         id="rect3124" />
    </g>
    <g
       font-size="14"
       font-family="sans-serif"
       transform="matrix(1,0,0,1,-196,15)"
       id="g3126">
      <text
         xml:space="preserve"
         x="991.5"
         y="389.9238"
         clip-path="url(#clipPath2)"
         stroke="none"
         id="text3128">Sapato</text>
      <text
         xml:space="preserve"
         x="983.5"
         y="407.0752"
         clip-path="url(#clipPath2)"
         stroke="none"
         id="text3130">Esquerdo</text>
    </g>
    <g
       stroke-width="3"
       stroke-miterlimit="1.45"
       transform="matrix(1,0,0,1,-196,15)"
       stroke-linecap="butt"
       id="g3132">
      <rect
         x="979"
         y="375.5"
         clip-path="url(#clipPath2)"
         fill="none"
         width="70"
         rx="4"
         ry="4"
         height="35"
         id="rect3134" />
    </g>
    <g
       font-size="15"
       font-family="sans-serif"
       transform="matrix(1,0,0,1,-196,15)"
       id="g3136">
      <text
         xml:space="preserve"
         x="984.5"
         y="468.8923"
         clip-path="url(#clipPath2)"
         stroke="none"
         id="text3138">Terminar</text>
    </g>
    <g
       stroke-width="3"
       stroke-miterlimit="1.45"
       transform="matrix(1,0,0,1,-196,15)"
       stroke-linecap="butt"
       id="g3140">
      <rect
         x="979"
         y="445.5"
         clip-path="url(#clipPath2)"
         fill="none"
         width="70"
         rx="4"
         ry="4"
         height="35"
         id="rect3142" />
    </g>
    <g
       font-size="15"
       font-family="sans-serif"
       transform="matrix(1,0,0,1,-196,15)"
       id="g3144">
      <text
         xml:space="preserve"
         x="1089"
         y="107.8923"
         clip-path="url(#clipPath2)"
         stroke="none"
         id="text3146">Iniciar</text>
    </g>
    <g
       stroke-width="3"
       stroke-miterlimit="1.45"
       transform="matrix(1,0,0,1,-196,15)"
       stroke-linecap="butt"
       id="g3148">
      <rect
         x="1073"
         y="84.5"
         clip-path="url(#clipPath2)"
         fill="none"
         width="70"
         rx="4"
         ry="4"
         height="35"
         id="rect3150" />
    </g>
    <g
       font-size="14"
       font-family="sans-serif"
       transform="matrix(1,0,0,1,-196,15)"
       id="g3152">
      <text
         xml:space="preserve"
         x="1093"
         y="168.9238"
         clip-path="url(#clipPath2)"
         stroke="none"
         id="text3154">Meia</text>
      <text
         xml:space="preserve"
         x="1077.5"
         y="186.0752"
         clip-path="url(#clipPath2)"
         stroke="none"
         id="text3156">Esquerda</text>
    </g>
    <g
       stroke-width="3"
       stroke-miterlimit="1.45"
       transform="matrix(1,0,0,1,-196,15)"
       stroke-linecap="butt"
       id="g3158">
      <rect
         x="1073"
         y="154.5"
         clip-path="url(#clipPath2)"
         fill="none"
         width="70"
         rx="4"
         ry="4"
         height="35"
         id="rect3160" />
    </g>
    <g
       font-size="14"
       font-family="sans-serif"
       transform="matrix(1,0,0,1,-196,15)"
       id="g3162">
      <text
         xml:space="preserve"
         x="1085.5"
         y="238.9238"
         clip-path="url(#clipPath2)"
         stroke="none"
         id="text3164">Sapato</text>
      <text
         xml:space="preserve"
         x="1077.5"
         y="256.0752"
         clip-path="url(#clipPath2)"
         stroke="none"
         id="text3166">Esquerdo</text>
    </g>
    <g
       stroke-width="3"
       stroke-miterlimit="1.45"
       transform="matrix(1,0,0,1,-196,15)"
       stroke-linecap="butt"
       id="g3168">
      <rect
         x="1073"
         y="224.5"
         clip-path="url(#clipPath2)"
         fill="none"
         width="70"
         rx="4"
         ry="4"
         height="35"
         id="rect3170" />
    </g>
    <g
       font-size="14"
       font-family="sans-serif"
       transform="matrix(1,0,0,1,-196,15)"
       id="g3172">
      <text
         xml:space="preserve"
         x="1093"
         y="308.9238"
         clip-path="url(#clipPath2)"
         stroke="none"
         id="text3174">Meia</text>
      <text
         xml:space="preserve"
         x="1087.5"
         y="326.0752"
         clip-path="url(#clipPath2)"
         stroke="none"
         id="text3176">Direita</text>
    </g>
    <g
       stroke-width="3"
       stroke-miterlimit="1.45"
       transform="matrix(1,0,0,1,-196,15)"
       stroke-linecap="butt"
       id="g3178">
      <rect
         x="1073"
         y="294.5"
         clip-path="url(#clipPath2)"
         fill="none"
         width="70"
         rx="4"
         ry="4"
         height="35"
         id="rect3180" />
    </g>
    <g
       font-size="14"
       font-family="sans-serif"
       transform="matrix(1,0,0,1,-196,15)"
       id="g3182">
      <text
         xml:space="preserve"
         x="1085.5"
         y="388.9238"
         clip-path="url(#clipPath2)"
         stroke="none"
         id="text3184">Sapato</text>
      <text
         xml:space="preserve"
         x="1087.5"
         y="406.0752"
         clip-path="url(#clipPath2)"
         stroke="none"
         id="text3186">Direito</text>
    </g>
    <g
       stroke-width="3"
       stroke-miterlimit="1.45"
       transform="matrix(1,0,0,1,-196,15)"
       stroke-linecap="butt"
       id="g3188">
      <rect
         x="1073"
         y="374.5"
         clip-path="url(#clipPath2)"
         fill="none"
         width="70"
         rx="4"
         ry="4"
         height="35"
         id="rect3190" />
    </g>
    <g
       font-size="15"
       font-family="sans-serif"
       transform="matrix(1,0,0,1,-196,15)"
       id="g3192">
      <text
         xml:space="preserve"
         x="1078.5"
         y="467.8923"
         clip-path="url(#clipPath2)"
         stroke="none"
         id="text3194">Terminar</text>
    </g>
    <g
       stroke-width="3"
       stroke-miterlimit="1.45"
       transform="matrix(1,0,0,1,-196,15)"
       stroke-linecap="butt"
       id="g3196">
      <rect
         x="1073"
         y="444.5"
         clip-path="url(#clipPath2)"
         fill="none"
         width="70"
         rx="4"
         ry="4"
         height="35"
         id="rect3198" />
    </g>
    <g
       font-size="20"
       font-family="sans-serif"
       transform="matrix(1,0,0,1,-196,15)"
       id="g3200">
      <text
         xml:space="preserve"
         x="248.5"
         y="22.8564"
         clip-path="url(#clipPath2)"
         stroke="none"
         id="text3202">Plano de ordem parcial</text>
      <text
         xml:space="preserve"
         x="603.5"
         y="22.8564"
         clip-path="url(#clipPath2)"
         stroke="none"
         id="text3204">Planos de ordem total</text>
      <text
         font-size="13"
         x="213"
         y="317.1067"
         clip-path="url(#clipPath2)"
         stroke="none"
         xml:space="preserve"
         id="text3206">MeiaEsquerdaCalçada</text>
      <text
         font-size="13"
         x="423"
         y="318.1436"
         clip-path="url(#clipPath2)"
         stroke="none"
         xml:space="preserve"
         id="text3208">MeiaDireitaCalçada</text>
      <text
         font-size="13"
         x="242.6667"
         y="445.1067"
         clip-path="url(#clipPath2)"
         stroke="none"
         xml:space="preserve"
         id="text3210">SapatoEsquerdoCalçado, SapatoDireitoCalçado</text>
    </g>
    <g
       stroke-width="3"
       stroke-miterlimit="1.45"
       transform="matrix(1,0,0,1,-196,15)"
       stroke-linecap="butt"
       id="g3212">
      <path
         fill="none"
         d="M364.79 107.4915 L301.7768 179.9567"
         clip-path="url(#clipPath2)"
         id="path3214" />
      <path
         d="M295.215 187.5027 L309.774 180.2848 L302.597 179.0134 L300.3414 172.0825 Z"
         clip-path="url(#clipPath2)"
         stroke="none"
         id="path3216" />
      <path
         fill="none"
         d="M395.21 107.4915 L458.2232 179.9567"
         clip-path="url(#clipPath2)"
         id="path3218" />
      <path
         d="M464.785 187.5027 L459.6586 172.0825 L457.403 179.0134 L450.226 180.2848 Z"
         clip-path="url(#clipPath2)"
         stroke="none"
         id="path3220" />
      <path
         fill="none"
         d="M479.8367 222.4763 L479.2336 287.0004"
         clip-path="url(#clipPath2)"
         id="path3222" />
      <path
         d="M479.1402 297 L485.5301 282.0591 L479.2453 285.7505 L473.0306 281.9423 Z"
         clip-path="url(#clipPath2)"
         stroke="none"
         id="path3224" />
      <path
         fill="none"
         d="M298.5555 362.511 L358.3939 418.981"
         clip-path="url(#clipPath2)"
         id="path3226" />
      <path
         d="M365.6667 425.8444 L359.0471 411.0038 L357.4847 418.123 L350.4678 420.0948 Z"
         clip-path="url(#clipPath2)"
         stroke="none"
         id="path3228" />
      <path
         fill="none"
         d="M461.6903 362.511 L402.8936 418.7427"
         clip-path="url(#clipPath2)"
         id="path3230" />
      <path
         d="M395.6667 425.6544 L410.8269 419.8037 L403.797 417.8787 L402.1873 410.77 Z"
         clip-path="url(#clipPath2)"
         stroke="none"
         id="path3232" />
      <path
         fill="none"
         d="M634 120.4658 L634 145.4801"
         clip-path="url(#clipPath2)"
         id="path3234" />
      <path
         d="M634 155.4801 L640.25 140.4801 L634 144.2301 L627.75 140.4801 Z"
         clip-path="url(#clipPath2)"
         stroke="none"
         id="path3236" />
      <path
         fill="none"
         d="M634 190.4658 L634 215.4801"
         clip-path="url(#clipPath2)"
         id="path3238" />
      <path
         d="M634 225.4801 L640.25 210.4801 L634 214.2301 L627.75 210.4801 Z"
         clip-path="url(#clipPath2)"
         stroke="none"
         id="path3240" />
      <path
         fill="none"
         d="M634 260.4658 L634 285.48"
         clip-path="url(#clipPath2)"
         id="path3242" />
      <path
         d="M634 295.48 L640.25 280.48 L634 284.23 L627.75 280.48 Z"
         clip-path="url(#clipPath2)"
         stroke="none"
         id="path3244" />
      <path
         fill="none"
         d="M634 330.4609 L634 365.5025"
         clip-path="url(#clipPath2)"
         id="path3246" />
      <path
         d="M634 375.5025 L640.25 360.5025 L634 364.2525 L627.75 360.5025 Z"
         clip-path="url(#clipPath2)"
         stroke="none"
         id="path3248" />
      <path
         fill="none"
         d="M634 410.4658 L634 435.48"
         clip-path="url(#clipPath2)"
         id="path3250" />
      <path
         d="M634 445.48 L640.25 430.48 L634 434.23 L627.75 430.48 Z"
         clip-path="url(#clipPath2)"
         stroke="none"
         id="path3252" />
      <path
         fill="none"
         d="M728 119.4658 L728 144.4801"
         clip-path="url(#clipPath2)"
         id="path3254" />
      <path
         d="M728 154.4801 L734.25 139.4801 L728 143.2301 L721.75 139.4801 Z"
         clip-path="url(#clipPath2)"
         stroke="none"
         id="path3256" />
      <path
         fill="none"
         d="M728 189.4658 L728 214.4801"
         clip-path="url(#clipPath2)"
         id="path3258" />
      <path
         d="M728 224.4801 L734.25 209.4801 L728 213.2301 L721.75 209.4801 Z"
         clip-path="url(#clipPath2)"
         stroke="none"
         id="path3260" />
      <path
         fill="none"
         d="M728 259.4658 L728 284.48"
         clip-path="url(#clipPath2)"
         id="path3262" />
      <path
         d="M728 294.48 L734.25 279.48 L728 283.23 L721.75 279.48 Z"
         clip-path="url(#clipPath2)"
         stroke="none"
         id="path3264" />
      <path
         fill="none"
         d="M728 329.4609 L728 364.5025"
         clip-path="url(#clipPath2)"
         id="path3266" />
      <path
         d="M728 374.5025 L734.25 359.5025 L728 363.2525 L721.75 359.5025 Z"
         clip-path="url(#clipPath2)"
         stroke="none"
         id="path3268" />
      <path
         fill="none"
         d="M728 409.4658 L728 434.48"
         clip-path="url(#clipPath2)"
         id="path3270" />
      <path
         d="M728 444.48 L734.25 429.48 L728 433.23 L721.75 429.48 Z"
         clip-path="url(#clipPath2)"
         stroke="none"
         id="path3272" />
      <path
         fill="none"
         d="M824 120.4658 L824 145.4801"
         clip-path="url(#clipPath2)"
         id="path3274" />
      <path
         d="M824 155.4801 L830.25 140.4801 L824 144.2301 L817.75 140.4801 Z"
         clip-path="url(#clipPath2)"
         stroke="none"
         id="path3276" />
      <path
         fill="none"
         d="M824 190.4658 L824 215.4801"
         clip-path="url(#clipPath2)"
         id="path3278" />
      <path
         d="M824 225.4801 L830.25 210.4801 L824 214.2301 L817.75 210.4801 Z"
         clip-path="url(#clipPath2)"
         stroke="none"
         id="path3280" />
      <path
         fill="none"
         d="M824 260.4658 L824 285.48"
         clip-path="url(#clipPath2)"
         id="path3282" />
      <path
         d="M824 295.48 L830.25 280.48 L824 284.23 L817.75 280.48 Z"
         clip-path="url(#clipPath2)"
         stroke="none"
         id="path3284" />
      <path
         fill="none"
         d="M824 330.4609 L824 365.5025"
         clip-path="url(#clipPath2)"
         id="path3286" />
      <path
         d="M824 375.5025 L830.25 360.5025 L824 364.2525 L817.75 360.5025 Z"
         clip-path="url(#clipPath2)"
         stroke="none"
         id="path3288" />
      <path
         fill="none"
         d="M824 410.4658 L824 435.48"
         clip-path="url(#clipPath2)"
         id="path3290" />
      <path
         d="M824 445.48 L830.25 430.48 L824 434.23 L817.75 430.48 Z"
         clip-path="url(#clipPath2)"
         stroke="none"
         id="path3292" />
      <path
         fill="none"
         d="M918 119.4658 L918 144.4801"
         clip-path="url(#clipPath2)"
         id="path3294" />
      <path
         d="M918 154.4801 L924.25 139.4801 L918 143.2301 L911.75 139.4801 Z"
         clip-path="url(#clipPath2)"
         stroke="none"
         id="path3296" />
      <path
         fill="none"
         d="M918 189.4658 L918 214.4801"
         clip-path="url(#clipPath2)"
         id="path3298" />
      <path
         d="M918 224.4801 L924.25 209.4801 L918 213.2301 L911.75 209.4801 Z"
         clip-path="url(#clipPath2)"
         stroke="none"
         id="path3300" />
      <path
         fill="none"
         d="M918 259.4658 L918 284.48"
         clip-path="url(#clipPath2)"
         id="path3302" />
      <path
         d="M918 294.48 L924.25 279.48 L918 283.23 L911.75 279.48 Z"
         clip-path="url(#clipPath2)"
         stroke="none"
         id="path3304" />
      <path
         fill="none"
         d="M918 329.4609 L918 364.5025"
         clip-path="url(#clipPath2)"
         id="path3306" />
      <path
         d="M918 374.5025 L924.25 359.5025 L918 363.2525 L911.75 359.5025 Z"
         clip-path="url(#clipPath2)"
         stroke="none"
         id="path3308" />
      <path
         fill="none"
         d="M918 409.4658 L918 434.48"
         clip-path="url(#clipPath2)"
         id="path3310" />
      <path
         d="M918 444.48 L924.25 429.48 L918 433.23 L911.75 429.48 Z"
         clip-path="url(#clipPath2)"
         stroke="none"
         id="path3312" />
      <path
         fill="none"
         d="M1014 120.4658 L1014 145.4801"
         clip-path="url(#clipPath2)"
         id="path3314" />
      <path
         d="M1014 155.4801 L1020.25 140.4801 L1014 144.2301 L1007.75 140.4801 Z"
         clip-path="url(#clipPath2)"
         stroke="none"
         id="path3316" />
      <path
         fill="none"
         d="M1014 190.4658 L1014 215.4801"
         clip-path="url(#clipPath2)"
         id="path3318" />
      <path
         d="M1014 225.4801 L1020.25 210.4801 L1014 214.2301 L1007.75 210.4801 Z"
         clip-path="url(#clipPath2)"
         stroke="none"
         id="path3320" />
      <path
         fill="none"
         d="M1014 260.4658 L1014 285.48"
         clip-path="url(#clipPath2)"
         id="path3322" />
      <path
         d="M1014 295.48 L1020.25 280.48 L1014 284.23 L1007.75 280.48 Z"
         clip-path="url(#clipPath2)"
         stroke="none"
         id="path3324" />
      <path
         fill="none"
         d="M1014 330.4609 L1014 365.5025"
         clip-path="url(#clipPath2)"
         id="path3326" />
      <path
         d="M1014 375.5025 L1020.25 360.5025 L1014 364.2525 L1007.75 360.5025 Z"
         clip-path="url(#clipPath2)"
         stroke="none"
         id="path3328" />
      <path
         fill="none"
         d="M1014 410.4658 L1014 435.48"
         clip-path="url(#clipPath2)"
         id="path3330" />
      <path
         d="M1014 445.48 L1020.25 430.48 L1014 434.23 L1007.75 430.48 Z"
         clip-path="url(#clipPath2)"
         stroke="none"
         id="path3332" />
      <path
         fill="none"
         d="M1108 119.4658 L1108 144.4801"
         clip-path="url(#clipPath2)"
         id="path3334" />
      <path
         d="M1108 154.4801 L1114.25 139.4801 L1108 143.2301 L1101.75 139.4801 Z"
         clip-path="url(#clipPath2)"
         stroke="none"
         id="path3336" />
      <path
         fill="none"
         d="M1108 189.4658 L1108 214.4801"
         clip-path="url(#clipPath2)"
         id="path3338" />
      <path
         d="M1108 224.4801 L1114.25 209.4801 L1108 213.2301 L1101.75 209.4801 Z"
         clip-path="url(#clipPath2)"
         stroke="none"
         id="path3340" />
      <path
         fill="none"
         d="M1108.3479 259.511 L1108.7734 284.5061"
         clip-path="url(#clipPath2)"
         id="path3342" />
      <path
         d="M1108.9436 294.5047 L1114.9374 279.4005 L1108.7521 283.2563 L1102.4392 279.6132 Z"
         clip-path="url(#clipPath2)"
         stroke="none"
         id="path3344" />
      <path
         fill="none"
         d="M1108 329.4609 L1108 364.5025"
         clip-path="url(#clipPath2)"
         id="path3346" />
      <path
         d="M1108 374.5025 L1114.25 359.5025 L1108 363.2525 L1101.75 359.5025 Z"
         clip-path="url(#clipPath2)"
         stroke="none"
         id="path3348" />
      <path
         fill="none"
         d="M1108 409.4658 L1108 434.48"
         clip-path="url(#clipPath2)"
         id="path3350" />
      <path
         d="M1108 444.48 L1114.25 429.48 L1108 433.23 L1101.75 429.48 Z"
         clip-path="url(#clipPath2)"
         stroke="none"
         id="path3352" />
      <path
         fill="none"
         d="M279.6733 222.4763 L278.4673 287.0017"
         clip-path="url(#clipPath2)"
         id="path3354" />
      <path
         d="M278.2804 297 L284.8096 282.1194 L278.4906 285.752 L272.3118 281.8858 Z"
         clip-path="url(#clipPath2)"
         stroke="none"
         id="path3356" />
    </g>
  </g>
</svg>
