<?xml version="1.0" encoding="UTF-8" standalone="no"?>
<svg width="28cm" height="26cm" viewBox="9 7 28 26">
  <ellipse style="fill: #000000" cx="17.4" cy="7.7" rx="0.5" ry="0.5"/>
  <line style="fill: none; fill-opacity:0; stroke-width: 0.1; stroke: #000000" x1="17.3649" y1="10.2001" x2="17.4" y2="8.2"/>
  <polygon style="fill: #000000" points="17.1149,10.1957 17.3509,11 17.6149,10.2045 "/>
  <rect style="fill: #ffffff" x="12.25" y="11.05" width="10.2" height="1.8" rx="0.5" ry="0.5"/>
  <rect style="fill: none; fill-opacity:0; stroke-width: 0.1; stroke: #000000" x="12.25" y="11.05" width="10.2" height="1.8" rx="0.5" ry="0.5"/>
  <text style="fill: #000000; text-anchor:middle; font-size: 1" x="17.35" y="12.3">Planeja e Empilha a Ação </text>
  <rect style="fill: #ffffff" x="12.9" y="14.75" width="8.85" height="1.8" rx="0.5" ry="0.5"/>
  <rect style="fill: none; fill-opacity:0; stroke-width: 0.1; stroke: #000000" x="12.9" y="14.75" width="8.85" height="1.8" rx="0.5" ry="0.5"/>
  <text style="fill: #000000; text-anchor:middle; font-size: 1" x="17.325" y="16">Retira a Ação da Pilha</text>
  <line style="fill: none; fill-opacity:0; stroke-width: 0.1; stroke: #000000" x1="17.3362" y1="13.9001" x2="17.35" y2="12.85"/>
  <polygon style="fill: #000000" points="17.0862,13.8968 17.3257,14.7 17.5862,13.9034 "/>
  <rect style="fill: #ffffff" x="26.85" y="14.7" width="7.35" height="1.8" rx="0.5" ry="0.5"/>
  <rect style="fill: none; fill-opacity:0; stroke-width: 0.1; stroke: #000000" x="26.85" y="14.7" width="7.35" height="1.8" rx="0.5" ry="0.5"/>
  <text style="fill: #000000; text-anchor:middle; font-size: 1" x="30.525" y="15.95">Empilha Subplano</text>
  <line style="fill: none; fill-opacity:0; stroke-width: 0.1; stroke: #000000" x1="22.6" y1="15.6417" x2="26.85" y2="15.6"/>
  <polygon style="fill: #000000" points="22.5975,15.3917 21.8,15.6495 22.6024,15.8917 "/>
  <polygon style="fill: #ffffff" points="16.35,19.95 17.35,18.95 18.35,19.95 17.35,20.95 "/>
  <polygon style="fill: none; fill-opacity:0; stroke-width: 0.1; stroke: #000000" points="16.35,19.95 17.35,18.95 18.35,19.95 17.35,20.95 "/>
  <line style="fill: none; fill-opacity:0; stroke-width: 0.1; stroke: #000000" x1="17.3411" y1="18.1" x2="17.325" y2="16.55"/>
  <polygon style="fill: #000000" points="17.0912,18.1027 17.3495,18.9 17.5911,18.0974 "/>
  <rect style="fill: #ffffff" x="14.4" y="23.9" width="5.85" height="1.8" rx="0.5" ry="0.5"/>
  <rect style="fill: none; fill-opacity:0; stroke-width: 0.1; stroke: #000000" x="14.4" y="23.9" width="5.85" height="1.8" rx="0.5" ry="0.5"/>
  <text style="fill: #000000; text-anchor:middle; font-size: 1" x="17.325" y="25.15">Executa Ação</text>
  <line style="fill: none; fill-opacity:0; stroke-width: 0.1; stroke: #000000" x1="17.3322" y1="23.05" x2="17.35" y2="20.95"/>
  <polygon style="fill: #000000" points="17.0822,23.0479 17.3254,23.85 17.5822,23.0521 "/>
  <polygon style="fill: #ffffff" points="16.35,28.35 17.35,27.35 18.35,28.35 17.35,29.35 "/>
  <polygon style="fill: none; fill-opacity:0; stroke-width: 0.1; stroke: #000000" points="16.35,28.35 17.35,27.35 18.35,28.35 17.35,29.35 "/>
  <line style="fill: none; fill-opacity:0; stroke-width: 0.1; stroke: #000000" x1="17.3371" y1="26.5001" x2="17.325" y2="25.7"/>
  <polygon style="fill: #000000" points="17.0872,26.5039 17.3492,27.3 17.5871,26.4963 "/>
  <polygon style="fill: #ffffff" points="16.36,31.9808 17.36,30.9808 18.36,31.9808 17.36,32.9808 "/>
  <polygon style="fill: none; fill-opacity:0; stroke-width: 0.1; stroke: #000000" points="16.36,31.9808 17.36,30.9808 18.36,31.9808 17.36,32.9808 "/>
  <line style="fill: none; fill-opacity:0; stroke-width: 0.1; stroke: #000000" x1="17.3548" y1="30.1308" x2="17.35" y2="29.35"/>
  <polygon style="fill: #000000" points="17.1048,30.1323 17.3597,30.9308 17.6048,30.1292 "/>
  <rect style="fill: #ffffff" x="26.85" y="19" width="7.25" height="1.8" rx="0.5" ry="0.5"/>
  <rect style="fill: none; fill-opacity:0; stroke-width: 0.1; stroke: #000000" x="26.85" y="19" width="7.25" height="1.8" rx="0.5" ry="0.5"/>
  <text style="fill: #000000; text-anchor:middle; font-size: 1" x="30.475" y="20.25">Procura Subplano</text>
  <line style="fill: none; fill-opacity:0; stroke-width: 0.1; stroke: #000000" x1="26" y1="19.905" x2="18.35" y2="19.95"/>
  <polygon style="fill: #000000" points="26.0015,20.155 26.8,19.9003 25.9985,19.655 "/>
  <polygon style="fill: #ffffff" points="29.4,25.55 30.4,24.55 31.4,25.55 30.4,26.55 "/>
  <polygon style="fill: none; fill-opacity:0; stroke-width: 0.1; stroke: #000000" points="29.4,25.55 30.4,24.55 31.4,25.55 30.4,26.55 "/>
  <line style="fill: none; fill-opacity:0; stroke-width: 0.1; stroke: #000000" x1="30.417" y1="23.7002" x2="30.475" y2="20.8"/>
  <polygon style="fill: #000000" points="30.167,23.6952 30.401,24.5 30.6669,23.7052 "/>
  <polyline style="fill: none; fill-opacity:0; stroke-width: 0.1; stroke: #000000" points="12.05,15.65 11.5,15.65 11.5,28.35 16.35,28.35 "/>
  <polygon style="fill: #000000" points="12.05,16.05 12.85,15.65 12.05,15.25 "/>
  <polyline style="fill: none; fill-opacity:0; stroke-width: 0.1; stroke: #000000" points="11.4,11.95 9.9,11.95 9.9,31.9808 16.36,31.9808 "/>
  <polygon style="fill: #000000" points="11.4,12.35 12.2,11.95 11.4,11.55 "/>
  <polyline style="fill: none; fill-opacity:0; stroke-width: 0.1; stroke: #000000" points="35.05,15.6 36.25,15.6 36.25,25.55 31.4,25.55 "/>
  <polygon style="fill: #000000" points="35.05,15.2 34.25,15.6 35.05,16 "/>
  <polyline style="fill: none; fill-opacity:0; stroke-width: 0.1; stroke: #000000" points="23.3,11.95 37.55,11.95 37.55,30.1 30.55,30.1 "/>
  <polygon style="fill: #000000" points="23.3,11.55 22.5,11.95 23.3,12.35 "/>
  <line style="fill: none; fill-opacity:0; stroke-width: 0.1; stroke: #000000" x1="30.4" y1="26.55" x2="30.35" y2="30.2"/>
  <polyline style="fill: none; fill-opacity:0; stroke-width: 0.1; stroke: #000000" points="18.35,19.95 22.75,19.95 22.75,31.9808 19.21,31.9808 "/>
  <polygon style="fill: #000000" points="19.21,31.5808 18.41,31.9808 19.21,32.3808 "/>
</svg>
